<svg width="52" height="15" viewBox="0 0 52 15" fill="none" xmlns="http://www.w3.org/2000/svg">
<path d="M11.0787 2.7424C11.0684 2.67052 11.0065 2.62944 10.955 2.62944C10.9034 2.62944 9.88215 2.6089 9.88215 2.6089C9.88215 2.6089 9.02598 1.78739 8.94345 1.69497C8.86093 1.61282 8.69588 1.63335 8.63399 1.65389C8.63399 1.65389 8.46894 1.70524 8.20074 1.78739C8.15948 1.64362 8.08727 1.46905 7.99444 1.28421C7.69529 0.70915 7.24141 0.401082 6.70501 0.401082C6.66375 0.401082 6.6328 0.401082 6.59154 0.411351C6.57091 0.390813 6.5606 0.370275 6.53996 0.360006C6.30271 0.113551 6.00356 -0.00967592 5.64252 0.000593025C4.95139 0.0211309 4.26026 0.524309 3.69291 1.40744C3.30093 2.03384 3.00178 2.81428 2.90894 3.42015C2.11466 3.66661 1.55763 3.84118 1.53699 3.84118C1.13469 3.9644 1.12438 3.97467 1.0728 4.35462C1.05217 4.64215 0 12.7444 0 12.7444L8.82998 14.2642L12.657 13.3194C12.6467 13.3194 11.0891 2.81428 11.0787 2.7424ZM7.75718 1.93115C7.55087 1.99277 7.32393 2.06465 7.07637 2.1468C7.07637 1.79766 7.02479 1.30475 6.87006 0.893991C7.39614 0.976143 7.65403 1.57174 7.75718 1.93115ZM6.61217 2.2803C6.14798 2.42406 5.64252 2.5781 5.13707 2.73213C5.28149 2.18788 5.54969 1.65389 5.87978 1.29448C6.00356 1.16098 6.17893 1.01722 6.37492 0.935067C6.58123 1.33556 6.62249 1.90035 6.61217 2.2803ZM5.66316 0.462695C5.8282 0.462695 5.9623 0.493502 6.07577 0.575654C5.89009 0.668074 5.70442 0.81184 5.53937 0.99668C5.09581 1.46905 4.7554 2.19815 4.6213 2.9067C4.19837 3.0402 3.78575 3.16343 3.4144 3.27639C3.66197 2.15707 4.60067 0.493502 5.66316 0.462695Z" fill="#95BF47"/>
<path d="M10.9551 2.63035C10.9035 2.63035 9.88225 2.60981 9.88225 2.60981C9.88225 2.60981 9.02607 1.7883 8.94355 1.69588C8.9126 1.66507 8.87134 1.64453 8.83008 1.64453V14.2651L12.6571 13.3203C12.6571 13.3203 11.0995 2.81519 11.0892 2.74331C11.0685 2.67143 11.0066 2.63035 10.9551 2.63035Z" fill="#5E8E3E"/>
<path d="M6.70564 4.5928L6.26208 6.2461C6.26208 6.2461 5.76694 6.02019 5.17896 6.06126C4.31247 6.11261 4.31247 6.65686 4.31247 6.79036C4.36404 7.52972 6.31365 7.69402 6.42712 9.42948C6.50965 10.7952 5.70504 11.7297 4.52909 11.8016C3.12619 11.8735 2.35254 11.052 2.35254 11.052L2.65169 9.78889C2.65169 9.78889 3.43566 10.3742 4.05458 10.3331C4.45688 10.3126 4.61161 9.97373 4.59098 9.74781C4.52909 8.78253 2.94052 8.84415 2.83736 7.25246C2.75484 5.9175 3.63165 4.57227 5.57094 4.44904C6.32397 4.39769 6.70564 4.5928 6.70564 4.5928Z" fill="white"/>
<path d="M17.8353 8.11364C17.3917 7.87745 17.1648 7.67207 17.1648 7.39481C17.1648 7.04567 17.4846 6.81975 17.9797 6.81975C18.5574 6.81975 19.0731 7.05594 19.0731 7.05594L19.4754 5.82366C19.4754 5.82366 19.1041 5.53613 18.0106 5.53613C16.484 5.53613 15.4215 6.40899 15.4215 7.631C15.4215 8.32929 15.9166 8.853 16.5768 9.23295C17.1132 9.53075 17.2989 9.7464 17.2989 10.0647C17.2989 10.3933 17.0307 10.6603 16.5355 10.6603C15.8032 10.6603 15.1017 10.2804 15.1017 10.2804L14.6685 11.5127C14.6685 11.5127 15.308 11.944 16.3911 11.944C17.9591 11.944 19.0938 11.1738 19.0938 9.78748C19.0834 9.03784 18.5161 8.50386 17.8353 8.11364Z" fill="black"/>
<path d="M24.0863 5.51696C23.3126 5.51696 22.704 5.88664 22.2398 6.44116L22.2192 6.43089L22.8897 2.93945H21.1464L19.4443 11.8324H21.1876L21.7653 8.79275C21.9922 7.64263 22.5905 6.93407 23.1476 6.93407C23.5395 6.93407 23.6943 7.20106 23.6943 7.58102C23.6943 7.8172 23.6737 8.115 23.6221 8.35119L22.9619 11.8324H24.7052L25.386 8.23823C25.4582 7.85828 25.5098 7.40644 25.5098 7.09838C25.5201 6.11256 25.0043 5.51696 24.0863 5.51696Z" fill="black"/>
<path d="M29.471 5.51562C27.3667 5.51562 25.9741 7.40511 25.9741 9.51024C25.9741 10.8555 26.8097 11.944 28.3776 11.944C30.4407 11.944 31.8333 10.1058 31.8333 7.94937C31.8436 6.70682 31.1112 5.51562 29.471 5.51562ZM28.6149 10.6193C28.0166 10.6193 27.769 10.1161 27.769 9.47944C27.769 8.48335 28.2848 6.86086 29.2338 6.86086C29.8527 6.86086 30.059 7.39484 30.059 7.90829C30.059 8.97626 29.5329 10.6193 28.6149 10.6193Z" fill="black"/>
<path d="M36.3098 5.51562C35.1339 5.51562 34.4634 6.55279 34.4634 6.55279H34.4428L34.5459 5.61831H32.9986C32.9264 6.24472 32.782 7.21 32.6479 7.92883L31.4307 14.2956H33.174L33.6588 11.7181H33.7001C33.7001 11.7181 34.0611 11.944 34.7213 11.944C36.774 11.944 38.115 9.84912 38.115 7.73372C38.115 6.56306 37.589 5.51562 36.3098 5.51562ZM34.6388 10.6398C34.1849 10.6398 33.9167 10.3831 33.9167 10.3831L34.2055 8.76061C34.4118 7.6721 34.9792 6.95328 35.5878 6.95328C36.1242 6.95328 36.2892 7.44619 36.2892 7.90829C36.2892 9.03787 35.6187 10.6398 34.6388 10.6398Z" fill="black"/>
<path d="M40.6114 3.02148C40.0544 3.02148 39.6108 3.46305 39.6108 4.02784C39.6108 4.54129 39.9409 4.9007 40.4361 4.9007H40.4567C41.0034 4.9007 41.4676 4.53102 41.4779 3.89434C41.4779 3.39117 41.1375 3.02148 40.6114 3.02148Z" fill="black"/>
<path d="M38.1665 11.8215H39.9098L41.0961 5.66016H39.3425L38.1665 11.8215Z" fill="black"/>
<path d="M45.5427 5.64966H44.3254L44.3873 5.36213C44.4905 4.76653 44.8412 4.24281 45.4292 4.24281C45.7387 4.24281 45.9862 4.33523 45.9862 4.33523L46.3266 2.96946C46.3266 2.96946 46.0275 2.81543 45.3776 2.81543C44.7587 2.81543 44.1398 2.99 43.6653 3.39049C43.067 3.89367 42.7885 4.62276 42.6544 5.36213L42.6028 5.64966H41.7879L41.53 6.96408H42.3449L41.4165 11.8316H43.1598L44.0882 6.96408H45.2951L45.5427 5.64966Z" fill="black"/>
<path d="M49.7513 5.66016C49.7513 5.66016 48.6578 8.40196 48.173 9.90123H48.1524C48.1214 9.41859 47.7191 5.66016 47.7191 5.66016H45.883L46.9351 11.3183C46.9558 11.4416 46.9455 11.5237 46.8939 11.6059C46.6876 11.9961 46.3472 12.376 45.9449 12.6533C45.6148 12.8895 45.2434 13.0435 44.9546 13.1462L45.4394 14.6249C45.7901 14.5531 46.5328 14.2553 47.1518 13.6802C47.9461 12.9408 48.6888 11.7907 49.4418 10.2298L51.5771 5.66016H49.7513Z" fill="black"/>
</svg>
