<svg viewBox="0 0 500 500" xmlns="http://www.w3.org/2000/svg" xmlns:xlink="http://www.w3.org/1999/xlink" width="100%" id="blobSvg">
  <path id="blob" d="M450.5,281Q410,312,408.5,352.5Q407,393,364,393.5Q321,394,294.5,420Q268,446,231,446.5Q194,447,184.5,398.5Q175,350,107.5,365Q40,380,72,328.5Q104,277,91.5,247.5Q79,218,72,176.5Q65,135,114.5,135.5Q164,136,174,76.5Q184,17,225.5,39Q267,61,290.5,91.5Q314,122,347,126.5Q380,131,429.5,146Q479,161,485,205.5Q491,250,450.5,281Z" fill="#4e3505"></path>
</svg>