<svg width="650" height="490" viewBox="0 0 650 490" fill="none" xmlns="http://www.w3.org/2000/svg">
<g clip-path="url(#clip0)">
<path opacity="0.18" d="M142.964 49.7904C97.241 103.233 99.6151 185.332 73.234 251.326C59.1386 286.706 34.2185 318.698 29.8687 356.535C25.6185 393.442 43.3166 432.574 74.861 456.033C143.528 507.102 229.562 461.379 304.255 462.358C360.338 463.105 414.362 493.903 470.063 489.47C487.166 487.928 503.892 483.545 519.554 476.503C556.407 460.259 586.697 432.051 605.521 396.447C616.894 374.864 622.124 346.457 620.463 322.135C617.94 285.062 614.785 246.13 593.435 214.336C565.045 172.083 519.056 164.977 477.932 140.854C433.521 114.805 403.222 73.7641 365.999 40.1278C322.916 1.27838 254.565 -10.5425 201.089 9.86179C175.67 19.6074 157.043 33.3375 142.964 49.7904Z" fill="#CDB693"/>
<path d="M542.432 443.498C538.298 449.94 529.881 451.799 522.31 452.961C468.203 460.814 413.15 454.622 358.827 448.279C354.627 447.781 350.061 447.117 347.206 444.013L353.432 439.032C308.498 444.911 263.102 446.451 217.874 443.631C211.465 443.232 204.492 442.485 199.976 437.936C196.855 434.815 195.361 430.233 191.891 427.477C187.176 423.741 180.435 424.522 174.475 425.368C154.81 428.164 134.984 429.678 115.122 429.901C100.728 430.067 84.6897 428.838 74.8777 418.279C84.2082 411.107 95.3318 406.74 106.289 402.44C120.368 396.928 134.513 391.4 149.306 388.212C167.203 384.344 185.632 384.012 203.928 383.68L402.591 380.144C423.062 379.778 443.715 379.43 463.82 383.298C486.732 387.698 535.841 407.571 516.483 437.239C518.575 437.405 543.429 441.921 542.432 443.498Z" fill="url(#paint0_linear)"/>
<path d="M127.673 417.034C165.478 417.034 196.124 386.387 196.124 348.582C196.124 310.778 165.478 280.131 127.673 280.131C89.8684 280.131 59.2217 310.778 59.2217 348.582C59.2217 386.387 89.8684 417.034 127.673 417.034Z" fill="#9C7248"/>
<path d="M183.92 364.02C192.464 332.962 174.212 300.859 143.154 292.316C112.096 283.773 79.993 302.025 71.4499 333.082C62.9068 364.14 81.1586 396.243 112.216 404.786C143.274 413.329 175.377 395.078 183.92 364.02Z" fill="#644D1E"/>
<path d="M118.426 384.56L119.422 375.246C114.449 374.696 109.729 372.77 105.791 369.684L108.647 363.757C112.298 366.725 116.722 368.586 121.397 369.12C128.038 369.833 132.787 366.563 133.351 361.316C133.916 356.07 130.661 352.733 124.153 349.213C115.155 344.498 109.809 339.634 110.672 331.648C111.502 324.011 117.546 318.798 126.179 318.366L127.175 309.069L132.886 309.683L131.923 318.599C136.118 319.103 140.117 320.662 143.545 323.131L140.656 329.025C137.381 326.549 133.486 325.026 129.4 324.625C122.311 323.862 119.189 327.813 118.791 331.482C118.276 336.264 121.414 339.02 129.051 343.203C138.116 348.101 142.333 353.397 141.503 361.582C140.722 368.854 134.862 375.13 125.282 375.677L124.253 385.24L118.426 384.56Z" fill="#392B0A"/>
<path d="M208.161 418.844C245.966 418.844 276.613 388.197 276.613 350.392C276.613 312.587 245.966 281.941 208.161 281.941C170.356 281.941 139.71 312.587 139.71 350.392C139.71 388.197 170.356 418.844 208.161 418.844Z" fill="#9C7248"/>
<path d="M236.169 401.572C264.418 386.093 274.77 350.645 259.292 322.397C243.813 294.148 208.365 283.796 180.117 299.274C151.868 314.753 141.516 350.201 156.994 378.449C172.473 406.698 207.921 417.05 236.169 401.572Z" fill="#644D1E"/>
<path d="M226.54 382.667L220.779 375.296C216.824 378.363 212.092 380.266 207.115 380.791L205.04 374.532C209.728 374.142 214.206 372.413 217.94 369.551C223.17 365.484 224.332 359.789 221.078 355.622C217.824 351.455 213.175 351.338 206.136 353.331C196.407 356.22 189.185 356.452 184.237 350.11C179.506 344.05 180.236 336.098 186.097 329.755L180.352 322.384L184.885 318.848L190.397 325.92C193.755 323.362 197.708 321.7 201.885 321.089L203.911 327.381C199.836 327.88 195.979 329.501 192.771 332.063C187.143 336.446 187.657 341.443 189.915 344.365C192.887 348.151 197.071 347.952 205.455 345.644C215.416 342.838 222.057 343.668 227.187 350.176C231.687 355.937 231.886 364.487 225.345 371.577L231.255 379.181L226.54 382.667Z" fill="#392B0A"/>
<path d="M418.015 65.1475V404.084C418.015 411.935 414.896 419.464 409.344 425.016C403.793 430.567 396.264 433.686 388.413 433.686H241.714C237.821 433.695 233.965 432.935 230.366 431.452C226.767 429.968 223.496 427.789 220.74 425.039C217.984 422.29 215.798 419.023 214.306 415.428C212.814 411.832 212.046 407.977 212.046 404.084V65.1475C212.044 61.2588 212.808 57.4076 214.295 53.8143C215.781 50.2209 217.961 46.9556 220.71 44.2051C223.459 41.4545 226.723 39.2726 230.316 37.7839C233.909 36.2952 237.759 35.529 241.648 35.529H388.346C392.241 35.5202 396.098 36.28 399.699 37.7648C403.299 39.2495 406.571 41.4301 409.327 44.1815C412.083 46.933 414.269 50.2012 415.76 53.7989C417.25 57.3966 418.017 61.2532 418.015 65.1475V65.1475Z" fill="#CDB693"/>
<path d="M385.325 40.5429H244.786C228.978 40.5429 216.163 53.3576 216.163 69.1653V399.402C216.163 415.21 228.978 428.025 244.786 428.025H385.325C401.132 428.025 413.947 415.21 413.947 399.402V69.1653C413.947 53.3576 401.132 40.5429 385.325 40.5429Z" fill="#473F47"/>
<path d="M408.335 72.7514V392.529C408.261 399.778 405.311 406.701 400.133 411.776C394.956 416.85 387.975 419.661 380.726 419.591H249.053C244.242 419.606 239.511 418.37 235.323 416.005C231.123 413.686 227.618 410.287 225.172 406.159C222.726 402.032 221.427 397.326 221.41 392.529V72.7514C221.489 65.4977 224.445 58.5722 229.628 53.4975C234.812 48.4228 241.799 45.6144 249.053 45.6896H271.3V49.7074C271.356 52.2888 272.174 54.796 273.651 56.9139C275.128 59.0319 277.198 60.6661 279.601 61.6112C281.213 62.2471 282.931 62.5738 284.665 62.5742H345.828C349.316 62.5746 352.664 61.2026 355.15 58.7547C357.635 56.3068 359.057 52.9795 359.11 49.4915V45.6896H380.693C387.774 45.674 394.596 48.3575 399.769 53.1939C402.464 55.6901 404.616 58.7151 406.09 62.0801C407.564 65.4451 408.328 69.0778 408.335 72.7514V72.7514Z" fill="white"/>
<path opacity="0.18" d="M315.097 174.042C339.716 174.042 359.674 154.084 359.674 129.465C359.674 104.846 339.716 84.8877 315.097 84.8877C290.477 84.8877 270.519 104.846 270.519 129.465C270.519 154.084 290.477 174.042 315.097 174.042Z" fill="#CDB693"/>
<path opacity="0.18" d="M385.109 206.915H243.458V322.251H385.109V206.915Z" fill="#CDB693"/>
<g opacity="0.41">
<path opacity="0.41" d="M280.398 296.269H257.055V316.606H280.398V296.269Z" fill="#CDB693"/>
</g>
<path d="M303.558 280.447H280.215V316.606H303.558V280.447Z" fill="#CDB693"/>
<g opacity="0.5">
<path opacity="0.5" d="M326.718 263.761H303.375V316.606H326.718V263.761Z" fill="#CDB693"/>
</g>
<path d="M349.879 247.508H326.536V316.606H349.879V247.508Z" fill="#CDB693"/>
<path d="M373.039 231.121H349.696V316.606H373.039V231.121Z" fill="#CDB693"/>
<path d="M373.039 231.121H349.696V316.606H373.039V231.121Z" fill="url(#paint1_linear)"/>
<path d="M377.654 316.606H248.14V322.268H377.654V316.606Z" fill="url(#paint2_linear)"/>
<path opacity="0.18" d="M311.726 332.877H243.458V419.242H311.726V332.877Z" fill="#CDB693"/>
<path opacity="0.18" d="M385.109 332.877H316.84V419.242H385.109V332.877Z" fill="#CDB693"/>
<path d="M312.474 162.421V154.302C308.136 154.32 303.881 153.124 300.188 150.849L302.064 145.453C305.502 147.639 309.495 148.791 313.569 148.773C319.314 148.773 323.116 145.453 323.099 140.871C323.082 136.289 319.945 133.748 313.984 131.358C305.783 128.187 300.703 124.517 300.703 117.544C300.703 110.904 305.368 105.807 312.756 104.561V96.4761H317.737V104.246C321.395 104.265 324.988 105.213 328.179 107.002L326.237 112.398C323.178 110.588 319.68 109.657 316.126 109.708C309.95 109.708 307.642 113.46 307.659 116.648C307.659 120.815 310.664 122.89 317.62 125.746C325.921 129.067 330.089 133.217 330.138 140.356C330.138 146.682 325.772 152.658 317.537 154.07V162.371L312.474 162.421Z" fill="#CDB693"/>
<path d="M398.341 284.082C397.793 284.879 397.129 286.058 396.266 286.423C395.004 286.955 393.244 285.992 392.198 285.361C390.437 284.299 388.771 283.088 387.217 281.741C385.773 280.513 384.428 279.168 382.867 278.089C381.348 276.937 379.51 276.282 377.604 276.213C373.587 276.213 371.462 280.197 371.08 283.734C370.698 287.27 372.64 291.188 376.06 291.869C377.903 292.234 379.813 291.603 381.689 291.769C388.014 292.301 391.949 301.282 398.191 300.07C400.37 299.42 402.305 298.137 403.753 296.385L410.178 289.96C413.947 286.191 417.932 282.007 418.579 276.678C419.061 272.643 416.205 263.678 411.257 266.301C408.9 267.546 406.493 272.793 404.899 274.968C402.79 277.906 400.698 280.862 398.54 283.75C398.457 283.9 398.391 283.983 398.341 284.082Z" fill="#9C7248"/>
<path d="M358.611 277.209L388.379 285.112L398.789 323.181L369.901 318.466L358.611 277.209Z" fill="#CDB693"/>
<path d="M388.927 321.454L387.998 317.42C388.015 317.025 387.954 316.631 387.818 316.261C387.682 315.89 387.473 315.551 387.204 315.262C386.935 314.973 386.612 314.74 386.252 314.578C385.892 314.415 385.503 314.326 385.109 314.315C383.007 314.214 381 313.407 379.414 312.024C378.377 310.707 377.836 309.068 377.887 307.392C377.887 304.885 378.634 302.079 380.842 300.884L395.518 311.161L398.839 323.197L388.927 321.454Z" fill="url(#paint3_linear)"/>
<path d="M400.566 274.918C400.398 275.421 400.314 275.948 400.316 276.479C400.426 277.223 400.735 277.923 401.213 278.504C403.209 281.43 404.811 284.606 405.978 287.951C406.283 289.013 406.73 290.029 407.306 290.972C407.597 291.448 407.997 291.847 408.474 292.136C408.95 292.425 409.489 292.595 410.045 292.633C410.722 292.576 411.365 292.313 411.887 291.879C412.41 291.446 412.787 290.863 412.967 290.209C413.328 288.907 413.424 287.547 413.25 286.208C412.967 282.306 412.204 277.906 412.951 274.005C413.764 269.655 415.225 265.355 416.172 261.022C414.81 260.424 413.349 261.503 412.27 262.516C408.784 265.753 405.297 268.991 402.076 272.477C401.401 273.171 400.885 274.004 400.566 274.918V274.918Z" fill="#CDB693"/>
<path d="M435.762 442.352C396 441.771 363.957 428.191 364.19 411.954C364.19 410.144 362.845 399.95 363.625 398.323C369.901 384.709 401.246 383.115 436.676 383.597C471.441 384.111 500.644 383.597 507.152 397.045C508.115 398.954 508.265 411.987 508.232 413.996C507.966 430.233 475.525 442.917 435.762 442.352Z" fill="#9C7248"/>
<path d="M507.662 400.469C507.894 384.25 475.856 370.641 436.102 370.072C396.348 369.503 363.933 382.189 363.701 398.408C363.469 414.627 395.508 428.236 435.261 428.805C475.015 429.374 507.43 416.687 507.662 400.469Z" fill="#9C7248"/>
<path d="M497.004 400.316C497.202 386.499 469.907 374.906 436.04 374.421C402.172 373.937 374.557 384.744 374.359 398.561C374.161 412.377 401.456 423.971 435.324 424.456C469.191 424.94 496.807 414.133 497.004 400.316Z" fill="#644D1E"/>
<path d="M396.996 396.497L406.808 396.646C407 395.367 407.499 394.154 408.262 393.11C409.026 392.067 410.031 391.223 411.191 390.653L417.699 391.666C416.574 392.186 415.596 392.977 414.851 393.968C414.107 394.959 413.619 396.118 413.432 397.344C413.432 400.166 417.367 402.142 422.896 402.191C425.03 402.36 427.176 402.061 429.183 401.316C431.19 400.57 433.01 399.396 434.517 397.875C436.681 395.619 439.326 393.881 442.256 392.791C445.185 391.702 448.323 391.288 451.435 391.583C459.504 391.583 465.63 394.123 467.041 397.792L476.853 397.941V400.398L467.406 400.249C467.253 401.313 466.86 402.328 466.256 403.217C465.652 404.105 464.853 404.845 463.92 405.379L457.528 404.3C458.433 403.788 459.205 403.07 459.781 402.205C460.358 401.34 460.724 400.351 460.849 399.319C460.849 396.314 456.449 395.052 452.547 395.003C450.444 394.888 448.343 395.258 446.406 396.084C444.469 396.91 442.747 398.17 441.374 399.767C437.24 403.785 432.143 405.777 423.377 405.777C415.657 405.777 408.435 403.37 406.908 399.253L396.797 399.103L396.996 396.497Z" fill="#392B0A"/>
<path d="M469.249 428.523C429.487 427.958 397.444 414.361 397.677 398.124C397.677 396.331 396.332 386.12 397.112 384.51C403.388 370.879 434.75 369.286 470.162 369.767C504.944 370.282 534.131 369.767 540.656 383.215C541.602 385.141 541.752 398.157 541.735 400.166C541.453 416.403 509.012 429.087 469.249 428.523Z" fill="#9C7248"/>
<path d="M541.148 386.644C541.38 370.425 509.342 356.816 469.588 356.247C429.834 355.678 397.42 368.364 397.187 384.583C396.955 400.802 428.994 414.411 468.747 414.98C508.501 415.549 540.916 402.862 541.148 386.644Z" fill="#9C7248"/>
<path d="M530.49 386.491C530.688 372.675 503.393 361.081 469.526 360.596C435.658 360.112 408.043 370.919 407.845 384.736C407.647 398.552 434.942 410.146 468.81 410.631C502.677 411.115 530.293 400.308 530.49 386.491Z" fill="#644D1E"/>
<path d="M430.483 382.667L440.295 382.816C440.487 381.538 440.986 380.324 441.749 379.281C442.512 378.237 443.517 377.394 444.678 376.823L451.186 377.836C450.063 378.357 449.088 379.149 448.346 380.14C447.604 381.131 447.12 382.29 446.936 383.514C446.936 386.336 450.854 388.312 456.383 388.378C458.517 388.542 460.661 388.241 462.667 387.496C464.674 386.751 466.495 385.579 468.004 384.062C470.165 381.801 472.809 380.058 475.739 378.966C478.669 377.873 481.809 377.458 484.922 377.753C493.007 377.753 499.117 380.309 500.528 383.962L510.34 384.111V386.569L500.893 386.419C500.744 387.484 500.352 388.501 499.747 389.39C499.143 390.279 498.342 391.018 497.407 391.549L491.015 390.47C491.92 389.958 492.691 389.24 493.268 388.375C493.845 387.51 494.21 386.522 494.335 385.489C494.335 382.501 489.919 381.239 486.034 381.173C483.934 381.057 481.834 381.426 479.9 382.253C477.965 383.079 476.246 384.34 474.878 385.938C470.727 389.972 465.63 391.948 456.864 391.948C449.16 391.948 441.922 389.54 440.394 385.44L430.284 385.29L430.483 382.667Z" fill="#392B0A"/>
<path d="M443.067 392.247C403.305 391.715 371.262 378.085 371.428 361.831C371.428 360.038 370.084 349.828 370.864 348.217C377.14 334.587 408.485 332.993 443.914 333.474C478.679 333.989 507.883 333.474 514.391 346.922C515.354 348.848 515.503 361.864 515.47 363.873C515.271 380.094 482.83 392.828 443.067 392.247Z" fill="#9C7248"/>
<path d="M514.96 350.361C515.193 334.142 483.154 320.533 443.4 319.964C403.647 319.395 371.232 332.081 371 348.3C370.768 364.519 402.806 378.128 442.56 378.697C482.313 379.266 514.728 366.579 514.96 350.361Z" fill="#9C7248"/>
<path d="M504.303 350.208C504.501 336.391 477.206 324.798 443.338 324.313C409.471 323.828 381.855 334.636 381.657 348.453C381.46 362.269 408.754 373.863 442.622 374.348C476.49 374.832 504.105 364.025 504.303 350.208Z" fill="#644D1E"/>
<path d="M404.301 346.408L414.113 346.557C414.302 345.275 414.8 344.059 415.564 343.012C416.327 341.965 417.333 341.119 418.496 340.547L425.004 341.576C423.881 342.095 422.904 342.884 422.16 343.871C421.416 344.859 420.927 346.015 420.737 347.238C420.737 350.06 424.672 352.036 430.201 352.102C432.335 352.266 434.479 351.965 436.485 351.22C438.492 350.475 440.313 349.303 441.822 347.786C443.985 345.527 446.63 343.787 449.559 342.695C452.489 341.602 455.627 341.186 458.74 341.477C466.809 341.477 472.935 344.033 474.346 347.686L484.158 347.835V350.309L474.711 350.16C474.558 351.223 474.165 352.238 473.561 353.127C472.956 354.016 472.158 354.756 471.225 355.29L464.833 354.211C465.738 353.698 466.51 352.981 467.086 352.116C467.663 351.251 468.029 350.262 468.154 349.23C468.154 346.225 463.754 344.963 459.852 344.897C457.748 344.781 455.645 345.153 453.707 345.982C451.769 346.811 450.049 348.076 448.679 349.678C444.545 353.696 439.448 355.672 430.682 355.672C422.962 355.672 415.74 353.281 414.213 349.164L404.102 349.014L404.301 346.408Z" fill="#392B0A"/>
<path d="M388.28 400.598C388.911 402.623 389.475 405.03 388.28 406.757C387.702 407.508 386.925 408.083 386.038 408.417C385.019 408.913 383.88 409.112 382.753 408.992C381.626 408.872 380.555 408.437 379.663 407.737C378.723 406.692 378.056 405.432 377.721 404.067C376.129 399.07 374.979 393.942 374.284 388.743C374.159 388.27 374.159 387.772 374.284 387.299C374.548 386.796 374.976 386.398 375.496 386.17C378.235 384.693 382.486 383.514 384.013 386.784C386.005 390.952 386.918 396.132 388.28 400.598Z" fill="#9C7248"/>
<path d="M380.062 402.955C379.502 402.884 378.933 402.946 378.401 403.138C378.03 403.35 377.703 403.632 377.438 403.968L371.428 410.708C370.299 412.003 369.087 413.796 369.884 415.324C370.165 415.755 370.539 416.117 370.979 416.385C371.419 416.652 371.913 416.817 372.425 416.868C375.294 417.126 378.177 416.55 380.726 415.208C382.552 414.411 384.328 413.547 386.088 412.584C387.404 411.99 388.547 411.07 389.409 409.911C390.754 407.836 391.169 402.839 388.761 401.278C387.549 400.498 386.487 401.062 385.341 401.594C383.719 402.472 381.906 402.939 380.062 402.955V402.955Z" fill="#CDB693"/>
<path d="M355.573 423.492C355.519 423.872 355.559 424.26 355.689 424.621C355.887 424.991 356.187 425.296 356.553 425.501C357.67 426.287 358.99 426.736 360.355 426.796C361.038 426.816 361.716 426.676 362.335 426.387C362.955 426.099 363.499 425.671 363.924 425.136C364.544 424.129 364.925 422.993 365.036 421.815C365.535 419.25 365.779 416.642 365.767 414.029C365.795 413.658 365.682 413.291 365.452 413C365.252 412.853 365.017 412.762 364.771 412.734C362.629 412.286 358.412 411.074 357.333 413.796C356.233 416.914 355.639 420.187 355.573 423.492Z" fill="#9C7248"/>
<path d="M346.525 423.26C344.703 423.354 342.903 423.706 341.179 424.306C340.314 424.611 339.52 425.089 338.847 425.711C338.173 426.334 337.633 427.087 337.261 427.925C336.916 428.759 336.875 429.687 337.145 430.548C337.74 431.802 338.773 432.794 340.05 433.337C346.118 436.619 352.989 438.121 359.873 437.671C361.644 437.732 363.368 437.094 364.671 435.894C365.633 434.457 366.084 432.737 365.95 431.013L366.182 422.845C364.655 422.612 363.227 423.608 361.766 424.123C359.242 424.986 358.246 422.895 356.154 422.463C353.498 421.732 349.364 422.961 346.525 423.26Z" fill="#CDB693"/>
<path d="M380.062 402.955C379.502 402.884 378.933 402.946 378.401 403.138C378.03 403.35 377.703 403.632 377.438 403.968L371.428 410.708C370.299 412.003 369.087 413.796 369.884 415.324C370.165 415.755 370.539 416.117 370.979 416.385C371.419 416.652 371.913 416.817 372.425 416.868C375.294 417.126 378.177 416.55 380.726 415.208C382.552 414.411 384.328 413.547 386.088 412.584C387.404 411.99 388.547 411.07 389.409 409.911C390.754 407.836 391.169 402.839 388.761 401.278C387.549 400.498 386.487 401.062 385.341 401.594C383.719 402.472 381.906 402.939 380.062 402.955V402.955Z" fill="url(#paint4_linear)"/>
<path d="M346.525 423.26C344.703 423.354 342.903 423.706 341.179 424.306C340.314 424.611 339.52 425.089 338.847 425.711C338.173 426.334 337.633 427.087 337.261 427.925C336.916 428.759 336.875 429.687 337.145 430.548C337.74 431.802 338.773 432.794 340.05 433.337C346.118 436.619 352.989 438.121 359.873 437.671C361.644 437.732 363.368 437.094 364.671 435.894C365.633 434.457 366.084 432.737 365.95 431.013L366.182 422.845C364.655 422.612 363.227 423.608 361.766 424.123C359.242 424.986 358.246 422.895 356.154 422.463C353.498 421.732 349.364 422.961 346.525 423.26Z" fill="black"/>
<path d="M368.374 333.176C366.632 333.524 365.021 334.352 363.725 335.566C362.41 337.467 361.821 339.776 362.065 342.074C362.102 358.541 365.164 374.861 371.096 390.221C371.238 390.786 371.49 391.318 371.837 391.785C372.185 392.252 372.621 392.646 373.122 392.944C374.028 393.213 374.998 393.172 375.878 392.828C379.44 391.831 382.947 390.651 386.387 389.291L381.722 357.979C381.504 357.105 381.556 356.184 381.871 355.34C382.217 354.751 382.702 354.255 383.282 353.895C388.579 349.959 394.187 346.461 400.051 343.436C407.356 339.65 412.021 335.251 413.333 326.833C413.781 324.47 413.312 322.024 412.021 319.993C411.361 318.998 410.42 318.221 409.317 317.763C408.214 317.304 407 317.185 405.828 317.42C404.959 317.691 404.132 318.082 403.371 318.582C397.727 321.986 374.234 331.432 368.374 333.176Z" fill="#282328"/>
<path d="M371.711 355.024C369.505 357.858 367.762 361.025 366.547 364.405C359.819 380.915 355.454 398.291 353.581 416.021C359.094 416.707 364.67 416.707 370.183 416.021C370.615 403.484 372.521 391.04 375.861 378.948C376.452 376.356 377.462 373.878 378.85 371.61C381.307 368.024 385.325 365.932 389.176 363.989C398.03 359.59 407.302 356.086 416.852 353.53C420.887 352.401 424.954 351.372 428.922 350.01C432.324 348.982 435.509 347.339 438.319 345.162C443.3 340.995 447.118 331.881 440.461 327.464C437.489 325.472 433.737 325.09 430.167 324.742L419.094 323.696C417.989 323.516 416.86 323.561 415.773 323.828C414.846 324.181 413.986 324.693 413.233 325.339C404.932 331.698 396.631 337.359 387.898 343.12C382.535 346.673 375.994 349.977 371.711 355.024Z" fill="#473F47"/>
<path d="M418.828 332.561C415.935 331.426 413.123 330.095 410.411 328.577C400.134 322.816 408.551 319.993 412.071 313.053C414.511 308.073 413.515 302.245 412.254 296.899C410.012 287.519 407.024 277.823 409.182 268.426C409.458 266.903 410.052 265.455 410.925 264.176C411.561 263.397 412.285 262.695 413.084 262.084C415.248 260.192 417.741 258.712 420.438 257.718C425.635 256.058 431.396 257.253 436.26 259.743C456.183 269.854 456.017 302.162 454.141 321.172C453.71 325.555 453.045 330.154 450.372 333.657C446.454 338.804 442.802 336.977 437.821 336.081C431.197 334.952 425.22 335.052 418.828 332.561Z" fill="#CDB693"/>
<path d="M430.383 271.166C429.549 272.214 428.505 273.077 427.319 273.7C426.133 274.323 424.83 274.693 423.493 274.785C423.069 274.839 422.639 274.739 422.281 274.503C421.903 274.117 421.689 273.599 421.684 273.058C421.567 271.979 421.401 270.585 421.285 269.207C421.169 267.829 420.953 266.135 420.804 264.957C420.482 261.821 419.292 258.837 417.367 256.34C416.973 255.801 416.522 255.305 416.022 254.862C412.702 251.874 426.199 253.053 427.976 248.985C430.035 251.625 429.852 255.36 430.749 258.631C431.34 260.218 431.844 261.837 432.259 263.479C432.502 264.82 432.46 266.197 432.137 267.521C431.813 268.845 431.216 270.087 430.383 271.166V271.166Z" fill="#9C7248"/>
<path d="M410.245 251.459C410.023 253.174 410.342 254.915 411.158 256.44C411.58 257.082 412.115 257.645 412.735 258.1C416.985 261.304 423.377 260.657 427.677 257.336C429.728 255.573 431.381 253.395 432.526 250.944C433.671 248.494 434.282 245.829 434.318 243.124C434.624 240.307 433.827 237.48 432.093 235.238C431.048 234.223 429.765 233.485 428.361 233.094C426.957 232.702 425.478 232.669 424.058 232.997C420.17 233.9 416.629 235.913 413.864 238.791C411.125 241.796 410.444 247.591 410.245 251.459Z" fill="#9C7248"/>
<path d="M448.745 279.517C448.828 280.114 448.895 280.712 448.961 281.31C449.924 290.192 449.061 298.925 448.729 307.774C448.513 313.867 448.065 321.869 442.868 326.037C428.972 337.177 398.042 313.884 396.681 312.871C394.605 311.327 391.7 311.211 389.21 310.928C386.301 310.743 383.576 309.441 381.606 307.292C380.652 306.205 380.031 304.866 379.817 303.436C379.602 302.006 379.802 300.544 380.394 299.224C382.436 295.206 388.18 294.592 392.314 296.385C396.448 298.178 399.553 301.664 403.139 304.387C405.967 306.413 408.948 308.217 412.054 309.783C415.674 311.709 428.424 314.481 432.525 314.531C436.891 314.531 435.181 288.897 435.613 280.712C435.629 278.596 436.147 276.513 437.124 274.636C437.613 273.719 438.326 272.941 439.197 272.375C440.068 271.809 441.068 271.473 442.105 271.398C443.202 271.482 444.259 271.852 445.168 272.473C446.077 273.094 446.807 273.943 447.284 274.935C448.037 276.364 448.532 277.915 448.745 279.517Z" fill="#9C7248"/>
<path d="M426.332 246.993C426.332 247.258 426.249 247.524 426.216 247.79L425.768 252.588L424.821 262.367L441.274 264.674C441.988 259.445 443.499 254.331 444.147 249.085C444.794 243.838 444.528 238.243 441.905 233.661C439.78 229.926 434.7 227.684 430.915 225.958C429.963 225.529 428.974 225.19 427.959 224.945C424.054 223.905 419.923 224.109 416.138 225.526C415.232 225.832 414.389 226.299 413.648 226.904C413.169 227.507 412.736 228.145 412.353 228.813C410.885 230.719 409.637 232.786 408.634 234.973C408.105 236.007 407.784 237.135 407.688 238.293C407.646 238.417 407.646 238.551 407.688 238.675C407.769 238.784 407.878 238.87 408.003 238.924L412.42 241.298C412.515 241.356 412.623 241.39 412.735 241.398C412.903 241.378 413.058 241.295 413.167 241.165L416.255 238.476L415.408 240.352C415.364 240.442 415.341 240.542 415.341 240.642C415.341 240.743 415.364 240.842 415.408 240.933C415.482 241.028 415.579 241.102 415.69 241.149L420.106 243.324C420.194 243.346 420.285 243.346 420.372 243.324C420.521 243.324 420.621 243.208 420.721 243.108L422.862 240.85L422.232 243.639C422.189 243.774 422.189 243.919 422.232 244.054C422.304 244.172 422.416 244.26 422.547 244.303L424.904 245.515C424.987 245.515 425.071 245.598 425.137 245.515C425.209 245.497 425.273 245.456 425.32 245.399L426.897 243.623C426.791 244.758 426.603 245.885 426.332 246.993Z" fill="#473F47"/>
<path d="M451.302 279.052C453.278 284.033 451.485 288.748 451.385 293.645C451.389 294.137 451.334 294.628 451.219 295.106C451.011 295.778 450.64 296.388 450.14 296.883C449.157 297.798 447.998 298.502 446.733 298.953C445.469 299.404 444.125 299.593 442.785 299.506C440.107 299.302 437.473 298.709 434.965 297.746C434.144 297.582 433.414 297.114 432.923 296.435C432.71 295.961 432.619 295.442 432.658 294.924C432.525 287.436 430.599 275.35 437.888 270.369C443.665 266.401 449.459 274.171 451.302 279.052Z" fill="#CDB693"/>
<path d="M412.386 278.587C410.001 279.88 407.828 281.531 405.945 283.485C405.566 283.825 405.285 284.261 405.131 284.747C405.057 285.125 405.057 285.514 405.131 285.892C405.507 287.751 406.15 289.546 407.04 291.221C407.228 291.606 407.474 291.959 407.771 292.267C410.577 294.824 411.224 290.175 411.423 288.665C411.899 285.311 412.22 281.952 412.386 278.587Z" fill="url(#paint5_linear)"/>
<path d="M411.623 248.188C413.429 248.188 414.893 246.724 414.893 244.918C414.893 243.111 413.429 241.647 411.623 241.647C409.816 241.647 408.352 243.111 408.352 244.918C408.352 246.724 409.816 248.188 411.623 248.188Z" stroke="#473F47" stroke-width="0.331842" stroke-miterlimit="10"/>
<path d="M418.048 251.011C419.854 251.011 421.318 249.546 421.318 247.74C421.318 245.934 419.854 244.469 418.048 244.469C416.241 244.469 414.777 245.934 414.777 247.74C414.777 249.546 416.241 251.011 418.048 251.011Z" stroke="#473F47" stroke-width="0.331842" stroke-miterlimit="10"/>
<path d="M376.758 278.587L381.871 267.978C381.871 267.978 383.963 268.078 384.362 269.273L378.717 279.699C378.717 279.699 378.385 280.48 376.758 278.587Z" fill="#473F47"/>
</g>
<defs>
<linearGradient id="paint0_linear" x1="318.102" y1="267.115" x2="295.689" y2="655.709" gradientUnits="userSpaceOnUse">
<stop offset="0.01"/>
<stop offset="0.13" stop-opacity="0.69"/>
<stop offset="0.25" stop-opacity="0.32"/>
<stop offset="1" stop-opacity="0"/>
</linearGradient>
<linearGradient id="paint1_linear" x1="302.745" y1="232.316" x2="512.465" y2="380.957" gradientUnits="userSpaceOnUse">
<stop offset="0.01"/>
<stop offset="0.08" stop-opacity="0.69"/>
<stop offset="0.21" stop-opacity="0.32"/>
<stop offset="1" stop-opacity="0"/>
</linearGradient>
<linearGradient id="paint2_linear" x1="22516.9" y1="1283.91" x2="22515.9" y2="1744.98" gradientUnits="userSpaceOnUse">
<stop offset="0.01"/>
<stop offset="0.08" stop-opacity="0.69"/>
<stop offset="0.21" stop-opacity="0.32"/>
<stop offset="1" stop-opacity="0"/>
</linearGradient>
<linearGradient id="paint3_linear" x1="5480.09" y1="5081.11" x2="4969.51" y2="5576.75" gradientUnits="userSpaceOnUse">
<stop offset="0.01"/>
<stop offset="0.13" stop-opacity="0.69"/>
<stop offset="0.25" stop-opacity="0.32"/>
<stop offset="1" stop-opacity="0"/>
</linearGradient>
<linearGradient id="paint4_linear" x1="5037.69" y1="4868.45" x2="5401.45" y2="5103.23" gradientUnits="userSpaceOnUse">
<stop offset="0.01"/>
<stop offset="0.13" stop-opacity="0.69"/>
<stop offset="0.25" stop-opacity="0.32"/>
<stop offset="1" stop-opacity="0"/>
</linearGradient>
<linearGradient id="paint5_linear" x1="2270.53" y1="3251.34" x2="2112.65" y2="3264.83" gradientUnits="userSpaceOnUse">
<stop offset="0.01"/>
<stop offset="0.13" stop-opacity="0.69"/>
<stop offset="0.25" stop-opacity="0.32"/>
<stop offset="1" stop-opacity="0"/>
</linearGradient>
<clipPath id="clip0">
<rect width="650" height="489.901" fill="white"/>
</clipPath>
</defs>
</svg>
