<svg id="Layer_1" data-name="Layer 1" xmlns="http://www.w3.org/2000/svg" viewBox="0 0 400 300" width="406" height="306" class="illustration styles_illustrationTablet__1DWOa"><title>#31 map</title><circle cx="226.95" cy="113.02" r="75.81" fill="#e6e6e6"></circle><path d="M170.92,63.4s.67,10.93,8.17,7.65,17.62-6.83,16.53,5.19S200.54,89.91,209,86.9s4.38-3.82,4.92-14.76S200.27,60.66,202.45,53s19.27,1.47,13.33-15C215.78,38,185.86,40.5,170.92,63.4Z" fill="#c9c9c9"></path><path d="M234,91.89a11.05,11.05,0,0,0-4.61,1c-3,1.43-6.6,4.88-4.55,13.1,3.28,13.17,8.75,3.39,15.85,5S264,114.24,256,128.73s1.09,17.49,8.75,13.94,2.46-17.77,10.39-11.48-1.19,26.1,18.13,18.52c0,0,22.23-33.66,0-73.38,0,0-10.08-19.29-18-12.45s3,7.22,4.08,15.07-3.53,17.42-9.85,8.61-4.2-8-14.31-9.13c-8.08-.87-13.71.1-13.85,7a6.61,6.61,0,0,1-6.52,6.48Z" fill="#c9c9c9"></path><path d="M232,49.18s-7.87-2.19-7.76,7.38,5.3,9,11,6.56.82,5.47,11.75,3.28,11.76-4.75,9.3-8.52S249.8,39.61,232,49.18Z" fill="#c9c9c9"></path><path d="M151.14,113s9.25-15.12,19.35-4.9-9.77,8.58.43,18.42,17.31-13,23.05-4.32,17,14.6,3.81,22.26-5.3,18.28.78,16,16.88,13.14,0,22.66C198.56,183.17,149,165.1,151.14,113Z" fill="#c9c9c9"></path><path d="M230.4,130.37s-10.39,0-10.42,9.84,19.4.54,14.88,11.2,6.1,13.54,12,9.1-4.28-17.82-3.3-27.26S231.55,126,230.4,130.37Z" fill="#c9c9c9"></path><path d="M227,188.83s-6.7-7.07,7.91-8.71,14.93-9.3,19.69-12.58,14.84,8.3,14.84,8.3S250.68,192.62,227,188.83Z" fill="#c9c9c9"></path><path d="M206.4,100.39,217,98.65l-6.76,26.49-7,1.48a10.26,10.26,0,0,0-7.15,5.67c-3.62,7.63-11.92,23.17-23.87,33.63,0,0-18.22-16-20.74-41.7l11.75-21.91,9-.56Z" opacity="0.08"></path><ellipse cx="191.56" cy="262.89" rx="110.75" ry="14.81" fill="#e6e6e6" opacity="0.45"></ellipse><path d="M187.19,218.27s3.52,2.9,7,1.2,6.29,1,3.81,3.66-12.49,3.37-12.49,3.37l-2.63-4.93Z" fill="#cdb693"></path><path d="M165.88,226.5s1.06,4.43,4.87,5.18,4.4,4.62.83,5.22-12-4.84-12-4.84l.87-5.52Z" fill="#cdb693"></path><polygon points="139.36 128.23 159.01 103.75 163.25 107.47 146.51 135.45 139.36 128.23" fill="#cdb693"></polygon><polygon points="114.64 96.02 118.26 106.9 109.65 112.36 106.56 93.52 114.64 96.02" fill="#f4a28c"></polygon><path d="M103.6,83a6.77,6.77,0,0,1,11.2-1.88c3.67,3.91,8.08,10.13,3.09,13.51-7.65,5.18-14.66-4.5-14.66-4.5A12.35,12.35,0,0,1,103.6,83Z" fill="#f4a28c"></path><path d="M109.19,89.68s-2-1.64-2.84.68,2.57,3.46,3.6,2.28S109.19,89.68,109.19,89.68Z" fill="#f4a28c"></path><path d="M99.61,117.7a22,22,0,0,1,13.8-12c11.69-3.51,33.22.33,39.78,11.27,9,15-4.17,62.55-4.17,62.55l-39.29,3.05S88.11,143.53,99.61,117.7Z" fill="#cdb693"></path><path d="M116.8,104.63s-18.38,59.2,34.7,63.12L149,179.47l-39.29,3.05s-13.85-21.74-13.26-52.28c0,0,.33-15.1,11-21.78A24,24,0,0,1,116.8,104.63Z" opacity="0.08"></path><path d="M132.83,105.34a19.82,19.82,0,0,0,0,21c4.28,7.23,16.75,21.32,25.27,30.63a9,9,0,0,0,14.51-1.7L190.92,123l-6.21-4-16.78,24.6S156.44,105.82,132.83,105.34Z" fill="#cdb693"></path><path d="M132.83,105.34a19.82,19.82,0,0,0,0,21c4.28,7.23,16.75,21.32,25.27,30.63a9,9,0,0,0,14.51-1.7L190.92,123l-6.21-4-16.78,24.6S156.44,105.82,132.83,105.34Z" fill="#fff" opacity="0.2"></path><path d="M188.76,121.56s10.39-3.81,6.15-9.69-10.2,7.1-10.2,7.1Z" fill="#f4a28c"></path><path d="M107.12,97l-5.82-6a6.39,6.39,0,0,1-1.77-4.73c.14-3.07.8-8,3.33-11.63,4-5.75,9.29-7.93,10.6-3s1.59-.94,4.8,1.71,2.55,4.19,0,5.6-7.83,3.42-8.3,7.62S113.47,94.15,107.12,97Z" fill="#24285b"></path><path d="M134.92,197l10.21,4.24a18.42,18.42,0,0,1,11.05,13.71l2.39,13.16,8.2-.86-1.34-20.62a21.92,21.92,0,0,0-10.82-17.51l-6.79-4Z" fill="#24285b"></path><rect x="126.29" y="207.23" width="8.63" height="46.04" fill="#cdb693"></rect><rect x="126.29" y="207.23" width="8.63" height="46.04" fill="#fff" opacity="0.46"></rect><path d="M109.73,182.52s-.88,13.35,10.7,16.63c7.52,2.13,23.86.26,34.38-1.31a15.72,15.72,0,0,1,15.29,6.64l11.84,17.27,6.56-3.28-8.64-24.1a20.28,20.28,0,0,0-16.77-13.29L149,179.47Z" fill="#24285b"></path><rect x="112.41" y="195.5" width="36.7" height="17.49" fill="#cdb693"></rect><polygon points="126.29 245.89 112.41 258.19 149.11 258.19 134.92 245.89 126.29 245.89" fill="#cdb693"></polygon><polygon points="126.29 245.89 112.41 258.19 149.11 258.19 134.92 245.89 126.29 245.89" opacity="0.08"></polygon><polygon points="164.67 103.48 173.88 82.32 179.9 90 191.56 84.45 196.66 93.06 209.24 91.25 201.76 115.31 189.55 118.45 183.94 109.25 172.24 112.47 164.67 103.48" fill="#ffd200"></polygon><polygon points="174.47 87.56 167.8 102.38 173.38 109.35 185.41 105.34 190.32 115.95 199.62 113.31 205.64 94.32 194.84 96.17 190.32 87.56 179.4 93.11 174.47 87.56" fill="#fff" opacity="0.2"></polygon><polygon points="179.9 90 172.24 112.47 183.94 109.25 191.56 84.45 179.9 90" opacity="0.08"></polygon><polygon points="196.66 93.06 189.55 118.45 201.76 115.31 209.24 91.25 196.66 93.06" opacity="0.08"></polygon><path d="M159.75,104.39s1.16-5.29,3.5-6.66,7.12-.29,5.07,2.66-5.07,7.08-5.07,7.08Z" fill="#f4a28c"></path><ellipse cx="280.1" cy="88.67" rx="16.57" ry="5.38" fill="#24285b"></ellipse><path d="M304.44,43.05A24.35,24.35,0,1,0,259.3,55.71h0l20.8,34.07,20.68-33.9h0A24.2,24.2,0,0,0,304.44,43.05ZM280.1,56A11.91,11.91,0,1,1,292,44.06,11.91,11.91,0,0,1,280.1,56Z" fill="#ffd200"></path><rect x="254.7" y="159.1" width="64.49" height="39.42" fill="#f2f2f2"></rect><path d="M269.14,182.4s-1,5.51,3.41,4.76,2.32-3.08,1.69-6.1Z" fill="#a5a5a5"></path><path d="M268.62,179.85l5.11-1.17s.21-4.1,0-8.2-4.28-7.48-7-4.71S265.1,174.13,268.62,179.85Z" fill="#a5a5a5"></path><path d="M278.29,187.46s-2.9,4.09,1,5.16,3.05-1.63,3.69-4.32Z" fill="#a5a5a5"></path><path d="M278.84,185.2l4.59,1s1.73-3.25,3.08-6.67-.63-7.7-3.86-6.47S278.15,179.21,278.84,185.2Z" fill="#a5a5a5"></path><rect x="295.77" y="173.49" width="15.56" height="4.33" fill="#c9c9c9" opacity="0.67"></rect><rect x="295.77" y="181.19" width="15.56" height="4.33" fill="#c9c9c9" opacity="0.31"></rect><path d="M254.7,164.76H243.07v23.88a62.49,62.49,0,0,0,11.63-3.79Z" opacity="0.08"></path></svg>