<svg id="Capa_1" enable-background="new 0 0 512 512" height="512" viewBox="0 0 512 512" width="512" xmlns="http://www.w3.org/2000/svg"><g><g><path d="m196.829 124.679c0-4.142-3.358-7.5-7.5-7.5h-32.325c-4.142 0-7.5 3.358-7.5 7.5v60.61c0 4.142 3.358 7.5 7.5 7.5h32.325c4.142 0 7.5-3.358 7.5-7.5zm-15 53.11h-17.325v-45.61h17.325z"/><path d="m504.5 239.929c4.142 0 7.5-3.358 7.5-7.5v-47.14c0-4.142-3.358-7.5-7.5-7.5h-109.679v-13.182c0-4.142-3.358-7.5-7.5-7.5s-7.5 3.358-7.5 7.5v332.393h-75.915v-73.313c0-4.142-3.358-7.5-7.5-7.5h-80.813c-4.142 0-7.5 3.358-7.5 7.5v73.313h-75.915v-45.593c0-4.142-3.358-7.5-7.5-7.5s-7.5 3.358-7.5 7.5v5.187h-69.853v-45.609h69.854v5.187c0 4.142 3.358 7.5 7.5 7.5s7.5-3.358 7.5-7.5v-316.318h247.643v29.557c0 4.142 3.358 7.5 7.5 7.5s7.5-3.358 7.5-7.5v-37.057c0-4.142-3.358-7.5-7.5-7.5h-12.704v-24.826c0-4.142-3.358-7.5-7.5-7.5h-22.805v-24.825c0-4.142-3.358-7.5-7.5-7.5h-12.703v-12.703c0-4.142-3.358-7.5-7.5-7.5s-7.5 3.358-7.5 7.5v12.703h-15.305v-12.703c0-4.142-3.358-7.5-7.5-7.5s-7.5 3.358-7.5 7.5v12.703h-15.305v-12.703c0-4.142-3.358-7.5-7.5-7.5s-7.5 3.358-7.5 7.5v12.703h-15.305v-12.703c0-4.142-3.358-7.5-7.5-7.5s-7.5 3.358-7.5 7.5v12.703h-15.305v-12.703c0-4.142-3.358-7.5-7.5-7.5s-7.5 3.358-7.5 7.5v12.703h-12.703c-4.142 0-7.5 3.358-7.5 7.5v24.825h-22.805c-4.142 0-7.5 3.358-7.5 7.5v24.825h-12.704c-4.142 0-7.5 3.358-7.5 7.5v85.435h-109.678c-4.142 0-7.5 3.358-7.5 7.5v319.212c0 4.142 3.358 7.5 7.5 7.5h497c4.142 0 7.5-3.358 7.5-7.5v-236.862c0-4.142-3.358-7.5-7.5-7.5s-7.5 3.358-7.5 7.5v229.362h-102.179v-25.407h77.354c4.142 0 7.5-3.358 7.5-7.5v-60.609c0-4.142-3.358-7.5-7.5-7.5h-77.354v-17.325h77.354c4.142 0 7.5-3.358 7.5-7.5v-60.61c0-4.142-3.358-7.5-7.5-7.5h-77.354v-17.325h77.354c4.142 0 7.5-3.358 7.5-7.5v-60.61c0-4.142-3.358-7.5-7.5-7.5h-77.354v-17.325h102.179v39.64c0 4.142 3.358 7.5 7.5 7.5zm-321.813-204.726h146.626v17.325h-146.626zm-30.305 32.325h207.235v17.325h-207.235zm-35.203 203.196h-69.854v-45.61h69.854zm0 92.935h-69.854v-45.61h69.854zm-102.179-170.87h102.179v17.325h-77.354c-4.142 0-7.5 3.358-7.5 7.5v60.61c0 4.142 3.358 7.5 7.5 7.5h77.354v17.325h-77.354c-4.142 0-7.5 3.358-7.5 7.5v60.61c0 4.142 3.358 7.5 7.5 7.5h77.354v17.325h-77.354c-4.142 0-7.5 3.358-7.5 7.5v60.609c0 4.142 3.358 7.5 7.5 7.5h77.354v25.407h-102.179zm208.093 238.398h25.407v65.813h-25.407zm40.407 65.813v-65.813h25.407v65.813zm201.175-86.016v45.609h-69.854v-45.609zm0-92.935v45.61h-69.854v-45.61zm0-92.935v45.61h-69.854v-45.61z"/><path d="m279.663 124.679c0-4.142-3.358-7.5-7.5-7.5h-32.325c-4.142 0-7.5 3.358-7.5 7.5v60.61c0 4.142 3.358 7.5 7.5 7.5h32.325c4.142 0 7.5-3.358 7.5-7.5zm-15 53.11h-17.325v-45.61h17.325z"/><path d="m362.496 124.679c0-4.142-3.358-7.5-7.5-7.5h-32.325c-4.142 0-7.5 3.358-7.5 7.5v60.61c0 4.142 3.358 7.5 7.5 7.5h32.325c4.142 0 7.5-3.358 7.5-7.5zm-15 53.11h-17.325v-45.61h17.325z"/><path d="m196.829 217.614c0-4.142-3.358-7.5-7.5-7.5h-32.325c-4.142 0-7.5 3.358-7.5 7.5v60.61c0 4.142 3.358 7.5 7.5 7.5h32.325c4.142 0 7.5-3.358 7.5-7.5zm-15 53.11h-17.325v-45.61h17.325z"/><path d="m279.663 217.614c0-4.142-3.358-7.5-7.5-7.5h-32.325c-4.142 0-7.5 3.358-7.5 7.5v60.61c0 4.142 3.358 7.5 7.5 7.5h32.325c4.142 0 7.5-3.358 7.5-7.5zm-15 53.11h-17.325v-45.61h17.325z"/><path d="m362.496 217.614c0-4.142-3.358-7.5-7.5-7.5h-32.325c-4.142 0-7.5 3.358-7.5 7.5v60.61c0 4.142 3.358 7.5 7.5 7.5h32.325c4.142 0 7.5-3.358 7.5-7.5zm-15 53.11h-17.325v-45.61h17.325z"/><path d="m189.329 303.049h-32.325c-4.142 0-7.5 3.358-7.5 7.5v60.61c0 4.142 3.358 7.5 7.5 7.5h32.325c4.142 0 7.5-3.358 7.5-7.5v-60.61c0-4.142-3.358-7.5-7.5-7.5zm-7.5 60.61h-17.325v-45.61h17.325z"/><path d="m272.163 303.049h-32.325c-4.142 0-7.5 3.358-7.5 7.5v60.61c0 4.142 3.358 7.5 7.5 7.5h32.325c4.142 0 7.5-3.358 7.5-7.5v-60.61c0-4.142-3.358-7.5-7.5-7.5zm-7.5 60.61h-17.325v-45.61h17.325z"/><path d="m354.996 303.049h-32.325c-4.142 0-7.5 3.358-7.5 7.5v60.61c0 4.142 3.358 7.5 7.5 7.5h32.325c4.142 0 7.5-3.358 7.5-7.5v-60.61c0-4.142-3.358-7.5-7.5-7.5zm-7.5 60.61h-17.325v-45.61h17.325z"/></g></g></svg>