<?xml version="1.0" standalone="no"?>
<!DOCTYPE svg PUBLIC "-//W3C//DTD SVG 20010904//EN"
 "http://www.w3.org/TR/2001/REC-SVG-20010904/DTD/svg10.dtd">
<svg version="1.0" xmlns="http://www.w3.org/2000/svg"
 width="300.000000pt" height="200.000000pt" viewBox="0 0 300.000000 200.000000"
 preserveAspectRatio="xMidYMid meet">
<metadata>
Created by potrace 1.10, written by Peter Selinger 2001-2011
</metadata>
<g transform="translate(0.000000,200.000000) scale(0.100000,-0.100000)"
fill="#000000" stroke="none">
<path d="M1945 1690 c-16 -4 -59 -8 -95 -9 -36 -1 -83 -8 -105 -16 -22 -8 -67
-15 -101 -15 -34 0 -82 -3 -108 -6 -43 -6 -46 -9 -46 -37 0 -16 -8 -36 -17
-44 -17 -14 -17 -14 -1 -9 10 3 20 1 23 -4 4 -6 11 -10 18 -10 6 0 2 6 -8 14
-16 12 -12 14 41 18 65 6 84 -3 84 -38 0 -19 -5 -23 -25 -22 -19 2 -25 8 -25
25 0 13 -5 23 -10 23 -6 0 -8 -11 -4 -26 5 -20 4 -25 -5 -19 -7 4 -70 7 -139
6 -156 -2 -168 -10 -137 -96 6 -20 6 -20 -9 -1 -12 15 -18 16 -29 7 -11 -9
-17 -8 -27 4 -17 21 -5 49 19 42 13 -3 21 1 24 14 5 17 -1 19 -53 19 -63 0
-78 -12 -54 -45 8 -10 14 -26 14 -34 -1 -10 -6 -7 -15 9 -17 29 -19 22 -5 -14
9 -25 13 -26 83 -26 l74 0 7 -162 c8 -169 17 -209 50 -214 67 -9 243 -14 254
-6 30 20 39 82 34 223 -5 137 -4 139 17 139 20 0 21 -4 21 -114 0 -140 13
-214 43 -243 20 -20 34 -22 176 -25 l153 -3 22 28 c20 27 21 39 19 203 -1 96
2 174 6 174 9 0 21 -155 21 -265 0 -54 -6 -82 -22 -115 l-23 -45 -168 2 c-161
1 -170 2 -193 24 -35 33 -44 78 -44 232 0 75 -4 137 -8 137 -4 0 -6 -71 -4
-157 3 -147 2 -160 -18 -192 l-22 -34 -120 6 c-68 3 -126 11 -134 18 -10 8
-14 8 -14 0 0 -7 -26 -11 -73 -11 -81 0 -99 -10 -112 -62 -8 -31 -1 -35 21
-13 11 11 27 13 61 8 34 -4 44 -3 39 5 -4 7 -28 12 -54 12 -29 0 -43 3 -36 10
12 12 66 16 82 6 7 -4 12 -2 12 5 0 7 3 9 7 6 3 -4 12 -2 20 4 10 9 13 5 13
-18 0 -28 3 -30 57 -39 39 -6 59 -15 67 -29 6 -10 17 -26 25 -34 11 -12 11
-17 -4 -27 -14 -11 -17 -26 -13 -87 l3 -75 -72 -7 c-73 -7 -108 0 -82 16 10 6
7 8 -9 6 -12 0 -22 -5 -22 -10 0 -13 -27 -37 -42 -37 -10 0 -10 -2 1 -9 9 -6
12 -19 9 -36 -4 -18 -2 -23 4 -17 6 6 18 8 27 5 13 -5 14 -3 4 8 -17 18 -16
44 2 59 12 10 19 10 27 2 9 -9 8 -12 -5 -12 -29 0 -19 -16 18 -27 29 -9 36 -8
47 8 13 20 56 29 208 45 71 8 73 9 30 14 -25 3 -64 2 -87 -1 l-41 -6 -4 66
c-3 44 0 70 8 77 7 5 14 26 16 45 2 22 8 33 16 31 8 -1 11 2 7 8 -4 6 16 10
54 10 60 0 61 0 60 28 -2 23 -2 24 -6 5 -4 -21 -10 -23 -58 -23 -30 0 -57 -5
-60 -10 -12 -19 -26 -10 -20 13 13 43 39 55 118 54 l72 -2 5 -35 5 -35 64 -6
c46 -5 68 -12 79 -25 9 -12 13 -14 10 -4 -7 22 -48 40 -94 40 -37 0 -42 3 -47
28 -3 15 -4 29 -2 31 2 2 29 0 60 -4 62 -7 90 -29 100 -77 4 -16 5 -31 2 -34
-2 -2 -28 -7 -58 -9 -126 -12 -128 -14 -107 -60 11 -25 13 -26 78 -19 l67 6 6
-88 c4 -48 4 -90 1 -93 -2 -3 -18 11 -34 31 -19 23 -36 35 -47 32 -41 -11
-243 -30 -243 -23 0 4 41 10 90 14 50 4 92 11 95 15 5 9 -69 3 -165 -12 -36
-5 -82 -10 -103 -11 -27 -2 -36 -6 -32 -16 4 -11 2 -11 -9 -2 -11 9 -15 8 -19
-3 -6 -15 20 -26 64 -26 18 0 28 6 32 20 6 23 32 27 40 6 4 -10 1 -13 -9 -9
-7 3 -14 0 -14 -6 0 -6 7 -11 15 -11 8 0 15 -4 15 -8 0 -10 107 1 117 12 4 5
-19 6 -52 2 -41 -4 -55 -3 -45 4 8 5 31 10 51 10 20 0 39 3 43 7 4 4 38 8 77
10 64 2 72 0 99 -25 19 -19 30 -40 33 -67 4 -39 4 -39 5 8 2 40 5 47 22 47 18
0 20 -7 20 -84 0 -65 -3 -85 -15 -90 -12 -4 -15 3 -15 34 0 22 -4 40 -9 40 -4
0 -6 -18 -4 -40 4 -35 2 -40 -16 -40 -12 0 -21 6 -21 14 0 15 -21 26 -52 26
-16 0 -19 -5 -16 -25 6 -29 -7 -32 -34 -8 -16 14 -19 12 -18 -12 1 -3 -6 -12
-14 -21 -8 -8 -13 -21 -10 -29 4 -8 2 -15 -4 -15 -6 0 -19 -3 -29 -6 -15 -5
-16 -4 -3 5 12 9 8 11 -18 7 -18 -2 -30 0 -26 5 3 5 -9 9 -26 9 -17 0 -33 6
-36 14 -4 9 -15 13 -32 10 -18 -3 -23 -2 -14 4 8 5 12 18 10 28 -4 16 -7 15
-18 -8 -11 -24 -19 -28 -56 -28 -24 0 -47 6 -51 13 -9 14 -87 38 -148 45 -39
4 -40 4 -22 -15 11 -13 43 -24 90 -33 101 -18 126 -30 57 -28 -106 4 -200 -2
-200 -12 0 -7 65 -9 194 -5 112 3 197 1 201 -4 4 -8 127 -41 149 -41 4 0 6 18
6 40 0 31 4 40 18 42 9 0 28 2 42 4 14 1 102 5 197 8 184 6 237 13 210 28 -9
5 -55 4 -110 -3 -52 -7 -106 -9 -120 -5 -25 6 -26 7 -29 114 -2 59 -1 130 2
157 6 57 29 74 31 22 l1 -32 8 30 7 30 5 -30 5 -30 2 28 c1 24 3 26 21 17 10
-6 38 -8 60 -5 23 3 51 0 62 -6 12 -6 18 -7 14 -1 -12 20 25 34 104 39 l80 6
1 -154 c1 -85 5 -181 9 -214 l7 -60 2 49 c1 32 7 53 17 61 14 10 16 33 15 165
-1 84 -4 157 -6 160 -3 4 -47 6 -100 5 -94 -2 -95 -2 -95 21 0 26 11 28 115
26 27 -1 55 4 62 10 19 16 16 55 -7 78 -11 11 -20 22 -20 24 0 7 101 18 107
12 3 -3 -5 -10 -18 -15 -16 -7 28 -9 139 -6 l162 4 16 -25 c21 -30 24 -93 12
-203 -12 -113 -29 -140 -25 -41 2 41 0 89 -4 105 -4 17 -7 -64 -8 -180 -1
-140 -5 -205 -11 -195 -5 8 -10 101 -10 209 0 107 -2 192 -5 189 -3 -2 -6
-113 -7 -246 l-3 -242 -25 -23 c-36 -33 -86 -53 -160 -65 -120 -20 -197 -24
-231 -14 -97 30 -154 43 -201 49 -65 8 -41 20 47 24 l60 3 -75 5 c-59 5 -74 9
-72 21 2 8 -3 19 -10 25 -7 5 -14 21 -16 34 -3 28 -9 37 -18 28 -4 -4 -1 -13
6 -22 9 -10 9 -15 1 -15 -8 0 -8 -5 1 -19 7 -11 16 -17 20 -15 4 3 8 1 8 -5 0
-5 -6 -12 -12 -14 -10 -4 -10 -8 1 -15 17 -12 5 -18 -44 -21 -22 -1 -67 -6
-100 -11 -96 -16 -91 -20 -89 65 0 41 -3 75 -8 75 -4 0 -8 -34 -8 -76 0 -56
-3 -75 -12 -72 -7 3 -14 14 -16 26 -2 12 -7 22 -11 22 -5 0 -6 -11 -3 -25 7
-38 50 -45 168 -29 99 14 99 14 234 -17 140 -33 206 -57 115 -42 -94 15 -372
6 -354 -11 11 -12 384 -13 444 -3 22 4 90 15 150 23 61 9 117 22 125 29 8 7
24 15 36 19 11 3 33 19 48 35 23 24 32 51 56 168 40 198 63 389 50 412 -5 11
-10 29 -10 40 0 11 -14 34 -31 51 -29 28 -37 31 -93 31 -33 0 -92 1 -131 3
l-70 5 60 -8 c33 -4 69 -13 80 -20 18 -11 18 -12 -5 -5 -14 4 -58 9 -99 11
-49 3 -70 8 -60 14 9 6 -6 9 -46 9 l-60 1 53 18 c29 10 59 27 67 37 19 26 50
194 90 497 3 21 1 37 -5 37 -5 0 -10 7 -10 16 0 8 4 13 9 10 18 -11 -1 32 -29
65 l-27 33 -134 7 c-174 9 -336 9 -374 -1z m124 -10 c31 -16 51 -83 51 -168 0
-45 4 -72 9 -64 12 19 13 142 1 181 -5 19 -8 37 -5 39 2 3 75 -1 162 -7 110
-9 163 -17 174 -27 26 -24 34 -214 8 -198 -5 3 -9 25 -9 49 0 57 -8 75 -32 75
-20 0 -20 -4 -15 -235 6 -267 3 -281 -63 -315 -49 -25 -58 -40 -35 -57 23 -16
12 -17 -18 -1 -12 6 -42 11 -67 10 -34 -1 -40 1 -25 8 13 5 2 6 -32 3 -59 -6
-61 -4 -37 53 14 33 16 65 11 201 -5 154 -13 199 -33 191 -5 -1 -11 35 -14 82
-3 47 -11 96 -19 109 -12 22 -17 23 -87 19 l-74 -5 0 29 c0 29 14 38 24 16 3
-9 8 -8 16 5 12 19 79 24 109 7z m-228 -37 c1 -28 1 -28 8 -4 4 14 13 26 21
29 13 3 13 2 0 -7 -8 -6 -10 -11 -4 -11 5 0 15 5 22 12 9 9 12 8 13 -7 1 -11
0 -26 -1 -34 -1 -11 12 -13 73 -7 60 5 78 4 90 -8 18 -19 26 -110 28 -336 2
-226 3 -217 -24 -244 -22 -22 -28 -23 -157 -19 -74 2 -145 9 -156 15 -38 18
-47 56 -52 211 l-4 147 56 0 c42 0 58 -4 62 -15 4 -10 13 -13 25 -10 14 5 20
0 25 -22 7 -25 8 -25 15 -8 6 16 8 17 8 3 1 -20 41 -21 41 0 0 7 -4 10 -10 7
-5 -3 -10 -1 -10 6 0 6 -8 9 -20 6 -19 -5 -30 16 -12 26 4 2 1 2 -5 1 -7 -2
-13 1 -13 6 0 6 21 9 48 8 65 -2 149 11 161 26 6 7 6 17 1 26 -8 13 -10 13
-10 -1 0 -14 -15 -18 -70 -24 -86 -9 -130 5 -130 41 0 22 4 24 55 24 35 0 70
-7 93 -19 30 -15 39 -16 49 -6 10 10 9 14 -3 19 -10 4 -13 1 -9 -7 4 -6 -1 -3
-9 7 -9 11 -16 14 -16 7 0 -7 -5 -9 -11 -6 -6 4 -8 12 -6 19 3 6 -3 12 -12 12
-9 1 -20 2 -26 4 -5 1 -50 1 -100 0 -49 -2 -77 -5 -62 -7 25 -4 28 -8 25 -36
-4 -43 -19 -51 -35 -20 -16 31 -10 41 13 22 15 -12 17 -12 12 1 -3 9 -17 15
-34 15 -23 0 -28 -4 -26 -20 3 -20 35 -49 56 -51 6 0 29 -2 51 -4 23 -2 -1 -6
-55 -10 -87 -5 -97 -4 -113 14 -10 11 -21 33 -24 48 -6 29 -6 29 -62 23 -59
-7 -91 -30 -91 -65 0 -41 9 -47 65 -42 l55 4 0 -161 c0 -208 4 -202 -147 -194
-98 4 -110 7 -130 30 -17 17 -23 37 -24 71 0 26 -4 98 -7 160 l-7 114 53 -4
c28 -2 52 0 52 5 0 4 16 7 35 7 26 0 35 -4 35 -16 0 -14 -3 -14 -15 -4 -9 8
-15 9 -15 2 0 -6 5 -14 10 -17 6 -4 8 -16 4 -27 -4 -14 -2 -18 5 -14 6 4 11 2
11 -5 0 -6 -8 -9 -20 -6 -12 3 -20 0 -20 -8 0 -7 11 -12 24 -12 17 0 25 6 29
23 2 14 -1 24 -7 25 -8 0 -8 2 0 5 7 3 10 21 7 47 -4 33 0 48 17 70 20 25 27
27 91 27 l69 0 0 -28 c0 -16 9 -37 20 -47 23 -21 25 -11 5 25 -20 35 -19 38
13 43 25 4 25 4 -5 6 -37 1 -42 18 -20 61 10 21 24 27 82 36 47 8 58 12 35 13
-19 0 -52 -2 -74 -6 -33 -5 -41 -12 -56 -47 -16 -35 -19 -37 -19 -16 -1 38 31
95 54 96 11 1 32 2 47 3 20 1 26 5 22 16 -5 11 1 15 20 15 21 0 26 -5 27 -27z
m-201 -35 c21 -35 27 -88 10 -88 -5 0 -10 8 -10 18 0 36 -35 55 -85 48 -40 -7
-45 -5 -45 13 0 17 6 19 49 17 26 -2 55 -7 62 -11 8 -5 5 1 -5 13 -11 13 -14
22 -7 22 6 0 20 -15 31 -32z m798 -290 c-2 -259 -6 -240 -10 45 -2 103 0 187
5 187 4 0 6 -105 5 -232z m-1113 162 c-3 -10 -1 -29 5 -41 10 -17 9 -20 -2
-17 -14 5 -23 41 -14 64 8 21 18 17 11 -6z m63 -6 c4 -32 -12 -48 -37 -35 -22
12 -28 36 -11 46 6 3 10 -3 10 -14 0 -11 5 -23 11 -27 8 -5 10 3 7 25 -3 20
-1 30 6 28 6 -2 12 -12 14 -23z m120 18 c-3 -4 -10 -22 -17 -39 -12 -29 -17
-33 -52 -33 -41 0 -43 4 -24 65 1 6 24 11 50 12 25 1 45 -1 43 -5z m85 -62
c-19 -32 -33 -39 -33 -16 0 28 12 46 32 46 19 0 19 -1 1 -30z m54 -5 c-9 -21
-36 -30 -50 -16 -8 8 -5 11 11 11 16 0 22 6 22 22 0 16 3 19 11 11 7 -7 9 -19
6 -28z m-110 -17 c-3 -8 -6 -5 -6 6 -1 11 2 17 5 13 3 -3 4 -12 1 -19z m930
-35 c-3 -10 -5 -4 -5 12 0 17 2 24 5 18 2 -7 2 -21 0 -30z m-617 7 c0 -5 -7
-10 -16 -10 -8 0 -12 5 -9 10 3 6 10 10 16 10 5 0 9 -4 9 -10z m-160 -370 c0
-5 -4 -10 -10 -10 -5 0 -10 5 -10 10 0 6 5 10 10 10 6 0 10 -4 10 -10z m-257
-30 c28 0 40 -12 55 -57 12 -37 2 -44 -19 -13 -10 15 -30 22 -66 27 -40 4 -53
10 -53 22 0 27 20 42 41 31 10 -6 29 -10 42 -10z m462 -39 c3 -5 1 -12 -5 -16
-5 -3 -10 1 -10 9 0 18 6 21 15 7z m175 -22 l0 -30 -63 2 c-68 2 -87 -4 -87
-27 0 -8 -4 -14 -10 -14 -18 0 -11 46 11 74 18 23 27 26 85 26 l64 0 0 -31z
m68 -6 l-3 -38 68 -7 c74 -7 97 -13 97 -25 0 -13 -147 -16 -155 -4 -3 6 -15
11 -26 11 -10 0 -19 5 -19 11 0 7 -4 8 -12 2 -7 -5 -26 -8 -43 -7 -16 1 -49 2
-73 3 -72 2 -37 21 39 21 l69 0 0 35 c0 32 2 35 30 35 29 0 31 -2 28 -37z
m152 17 c21 -11 63 -87 51 -94 -5 -4 -23 5 -39 19 -25 21 -40 25 -91 25 l-61
0 0 35 0 35 63 -7 c34 -3 69 -9 77 -13z m331 3 c13 -16 12 -17 -3 -4 -10 7
-18 15 -18 17 0 8 8 3 21 -13z m-721 -100 c0 -3 -7 -15 -17 -25 -12 -14 -31
-18 -79 -18 -61 0 -90 12 -58 24 9 3 34 6 57 7 23 0 51 4 62 9 25 11 35 12 35
3z m245 -49 l1 -42 -69 -7 c-41 -4 -73 -2 -80 4 -7 5 -30 11 -52 13 -36 3 -40
5 -37 28 5 31 1 29 39 23 21 -3 33 -12 38 -27 7 -20 7 -20 14 4 6 23 4 25 -28
29 -68 6 -2 20 89 18 l84 -2 1 -41z m-249 -31 c7 -10 13 -31 14 -48 0 -23 -3
-26 -10 -15 -6 10 -10 11 -10 3 0 -7 -4 -13 -10 -13 -5 0 -10 20 -10 45 0 49
6 55 26 28z m457 -150 c1 -95 -2 -154 -8 -157 -6 -2 -11 55 -13 156 -2 110 0
159 7 157 7 -3 12 -59 14 -156z m-449 5 c-9 -14 -23 2 -17 18 4 12 8 13 14 3
4 -7 5 -17 3 -21z m-97 -184 c-3 -3 -12 -4 -19 -1 -8 3 -5 6 6 6 11 1 17 -2
13 -5z"/>
<path d="M1986 1672 c-3 -6 11 -12 34 -14 42 -4 42 6 -1 17 -15 4 -30 2 -33
-3z"/>
<path d="M2410 1585 c0 -8 4 -15 10 -15 5 0 7 7 4 15 -4 8 -8 15 -10 15 -2 0
-4 -7 -4 -15z"/>
<path d="M2393 1525 c0 -27 2 -38 4 -22 2 15 2 37 0 50 -2 12 -4 0 -4 -28z"/>
<path d="M2393 1405 c0 -38 2 -53 4 -32 2 20 2 52 0 70 -2 17 -4 1 -4 -38z"/>
<path d="M2402 1140 c0 -14 2 -19 5 -12 2 6 2 18 0 25 -3 6 -5 1 -5 -13z"/>
<path d="M2198 1073 c7 -3 16 -2 19 1 4 3 -2 6 -13 5 -11 0 -14 -3 -6 -6z"/>
<path d="M2338 1073 c7 -3 16 -2 19 1 4 3 -2 6 -13 5 -11 0 -14 -3 -6 -6z"/>
<path d="M1810 1651 c0 -5 5 -13 10 -16 6 -3 10 -2 10 4 0 5 -4 13 -10 16 -5
3 -10 2 -10 -4z"/>
<path d="M1863 1624 c0 -7 4 -11 9 -8 4 3 8 -2 8 -11 0 -9 4 -14 10 -10 5 3 7
12 4 20 -8 19 -31 26 -31 9z"/>
<path d="M1994 1584 c3 -9 6 -22 6 -30 0 -8 3 -14 8 -14 4 0 7 14 7 30 0 19
-5 30 -14 30 -8 0 -11 -6 -7 -16z"/>
<path d="M1801 1574 c6 -7 8 -23 4 -36 -6 -22 -5 -22 9 2 13 21 20 21 18 -1
-1 -3 6 -6 14 -6 8 0 14 4 14 9 0 4 -4 8 -10 8 -5 0 -10 7 -10 15 0 9 -6 12
-17 8 -10 -4 -14 -2 -10 4 3 5 0 10 -8 10 -11 0 -12 -4 -4 -13z"/>
<path d="M1741 1554 c-1 -19 4 -31 12 -31 8 0 14 13 14 31 2 25 0 27 -6 11 -8
-20 -8 -20 -13 0 -4 14 -6 11 -7 -11z"/>
<path d="M2040 1570 c-9 -6 -10 -10 -3 -10 6 0 15 5 18 10 8 12 4 12 -15 0z"/>
<path d="M1886 1545 c4 -8 7 -15 9 -15 2 0 5 7 9 15 3 9 0 15 -9 15 -9 0 -12
-6 -9 -15z"/>
<path d="M1975 1540 c-3 -5 -1 -10 4 -10 6 0 11 5 11 10 0 6 -2 10 -4 10 -3 0
-8 -4 -11 -10z"/>
<path d="M2046 1541 c-3 -5 2 -15 12 -22 15 -12 16 -12 5 2 -7 9 -10 19 -6 22
3 4 4 7 0 7 -3 0 -8 -4 -11 -9z"/>
<path d="M1450 1377 c0 -8 7 -14 15 -14 11 0 12 4 4 14 -6 7 -13 13 -15 13 -2
0 -4 -6 -4 -13z"/>
<path d="M1376 1367 c3 -10 9 -15 12 -12 3 3 0 11 -7 18 -10 9 -11 8 -5 -6z"/>
<path d="M1908 1368 c5 -5 16 -8 23 -6 8 3 3 7 -10 11 -17 4 -21 3 -13 -5z"/>
<path d="M1980 1359 c0 -5 5 -7 10 -4 6 3 10 8 10 11 0 2 -4 4 -10 4 -5 0 -10
-5 -10 -11z"/>
<path d="M1425 1349 c-4 -5 -11 -7 -16 -4 -5 4 -9 1 -9 -5 0 -6 10 -8 28 -4
34 9 36 10 18 17 -9 4 -18 2 -21 -4z"/>
<path d="M1979 1313 c-3 -18 -2 -30 3 -27 4 3 8 0 8 -7 0 -7 2 -10 4 -8 3 2 1
20 -3 39 l-7 35 -5 -32z"/>
<path d="M2007 1333 c-2 -5 0 -21 4 -38 7 -29 7 -29 8 8 1 35 -3 46 -12 30z"/>
<path d="M1822 1316 c7 -8 15 -12 17 -11 5 6 -10 25 -20 25 -5 0 -4 -6 3 -14z"/>
<path d="M1361 1304 c0 -11 3 -14 6 -6 3 7 2 16 -1 19 -3 4 -6 -2 -5 -13z"/>
<path d="M1555 1310 c-3 -5 -1 -11 5 -15 6 -4 8 -11 5 -16 -9 -14 4 -11 20 4
11 11 10 15 -6 25 -10 7 -20 8 -24 2z"/>
<path d="M1791 1313 c-1 -17 16 -25 25 -12 4 7 3 9 -4 5 -5 -3 -13 0 -15 6 -4
9 -6 10 -6 1z"/>
<path d="M2030 1309 c0 -5 5 -7 10 -4 6 3 10 8 10 11 0 2 -4 4 -10 4 -5 0 -10
-5 -10 -11z"/>
<path d="M1424 1299 c1 -7 10 -13 19 -15 9 -1 15 2 11 7 -3 5 -9 7 -14 4 -4
-3 -11 0 -13 5 -3 6 -4 5 -3 -1z"/>
<path d="M1731 1287 c-8 -10 -7 -14 2 -14 8 0 14 6 14 14 0 7 -1 13 -2 13 -2
0 -8 -6 -14 -13z"/>
<path d="M1766 1287 c3 -10 9 -15 12 -12 3 3 0 11 -7 18 -10 9 -11 8 -5 -6z"/>
<path d="M1857 1284 c7 -3 9 -12 6 -20 -3 -8 0 -14 7 -14 6 0 8 5 4 11 -4 8 1
9 17 5 24 -7 24 -7 -1 8 -14 9 -29 15 -35 15 -5 0 -5 -3 2 -5z"/>
<path d="M1805 1270 c-3 -5 -2 -10 4 -10 5 0 8 -9 6 -20 -2 -12 2 -20 9 -20 7
0 12 10 10 23 -1 12 -3 25 -3 30 -1 10 -19 9 -26 -3z"/>
<path d="M1418 1264 c5 -3 7 -16 4 -31 -3 -16 -1 -24 5 -20 14 9 11 50 -5 53
-7 1 -9 0 -4 -2z"/>
<path d="M1466 1255 c-6 -17 2 -45 14 -45 12 0 18 22 12 43 -5 21 -18 22 -26
2z"/>
<path d="M1976 1253 c-10 -10 -7 -25 3 -18 6 3 8 -4 6 -15 -2 -11 0 -20 6 -20
11 0 12 47 0 54 -4 3 -11 3 -15 -1z"/>
<path d="M2012 1230 c0 -19 2 -27 5 -17 2 9 2 25 0 35 -3 9 -5 1 -5 -18z"/>
<path d="M1562 1219 c1 -28 3 -30 13 -15 7 9 17 16 23 16 6 0 14 4 17 10 4 6
-3 6 -21 0 -22 -9 -25 -8 -20 5 3 8 1 15 -4 15 -5 0 -8 -14 -8 -31z"/>
<path d="M1726 1235 c-3 -8 -1 -15 4 -15 6 0 10 7 10 15 0 8 -2 15 -4 15 -2 0
-6 -7 -10 -15z"/>
<path d="M2030 1229 c0 -5 5 -7 10 -4 6 3 10 8 10 11 0 2 -4 4 -10 4 -5 0 -10
-5 -10 -11z"/>
<path d="M1880 1165 c0 -37 4 -65 10 -65 6 0 10 28 10 65 0 37 -4 65 -10 65
-6 0 -10 -28 -10 -65z"/>
<path d="M1721 1194 c0 -11 3 -14 6 -6 3 7 2 16 -1 19 -3 4 -6 -2 -5 -13z"/>
<path d="M1427 1193 c-11 -10 -8 -43 4 -43 5 0 7 5 4 10 -4 6 -1 17 5 25 12
15 0 22 -13 8z"/>
<path d="M1822 1188 c-15 -15 -15 -45 0 -54 6 -4 8 -3 4 4 -9 15 13 27 27 13
8 -8 8 -11 -1 -11 -7 0 -12 -5 -12 -12 0 -8 6 -6 16 4 18 18 12 54 -8 42 -8
-5 -9 -2 -5 9 7 20 -4 22 -21 5z"/>
<path d="M1451 1168 c0 -9 -4 -25 -7 -35 -5 -14 -4 -15 5 -7 7 7 11 22 8 35
-2 13 -5 16 -6 7z"/>
<path d="M2036 1171 c-4 -5 -2 -12 3 -15 5 -4 12 -2 15 3 4 5 2 12 -3 15 -5 4
-12 2 -15 -3z"/>
<path d="M1915 1160 c3 -5 8 -10 11 -10 2 0 4 5 4 10 0 6 -5 10 -11 10 -5 0
-7 -4 -4 -10z"/>
<path d="M1945 1162 c3 -3 19 -7 36 -8 17 -2 28 0 25 3 -3 3 -19 7 -36 8 -17
1 -28 0 -25 -3z"/>
<path d="M1360 1120 c0 -23 4 -27 30 -28 25 -1 30 3 30 23 0 18 -7 24 -30 27
-27 4 -30 2 -30 -22z"/>
<path d="M1550 1115 c0 -22 5 -25 33 -25 28 0 32 3 32 25 0 22 -4 25 -32 25
-28 0 -33 -3 -33 -25z"/>
<path d="M1740 1111 c0 -29 3 -31 36 -31 33 0 35 2 32 28 -2 22 -8 28 -35 30
-31 3 -33 1 -33 -27z"/>
<path d="M1980 1112 c0 -28 3 -30 40 -34 38 -3 40 -2 40 24 0 25 -4 28 -28 26
-15 -1 -33 1 -40 6 -8 5 -12 -2 -12 -22z"/>
<path d="M1915 1070 c-4 -6 -10 -8 -15 -5 -4 3 -10 -2 -14 -10 -3 -8 0 -17 6
-21 7 -5 8 -2 3 6 -6 10 -4 12 11 6 10 -4 15 -4 11 0 -4 4 -2 13 4 21 6 7 9
13 6 13 -3 0 -9 -5 -12 -10z"/>
<path d="M1523 1055 c0 -8 4 -12 9 -9 5 3 6 10 3 15 -9 13 -12 11 -12 -6z"/>
<path d="M1823 1053 c9 -2 25 -2 35 0 9 3 1 5 -18 5 -19 0 -27 -2 -17 -5z"/>
<path d="M1980 1030 c0 -4 7 -7 15 -6 23 3 26 12 5 13 -11 1 -20 -2 -20 -7z"/>
<path d="M2150 851 c0 -5 9 -7 20 -4 11 3 20 7 20 9 0 2 -9 4 -20 4 -11 0 -20
-4 -20 -9z"/>
<path d="M2257 919 c7 -7 15 -10 18 -7 3 3 -2 9 -12 12 -14 6 -15 5 -6 -5z"/>
<path d="M1354 1615 c-23 -16 -51 -72 -40 -82 3 -3 14 1 24 10 12 11 36 17 63
17 38 0 45 3 46 20 2 23 -12 27 -20 6 -3 -8 -24 -16 -46 -18 -32 -3 -40 0 -36
10 3 8 5 16 5 18 0 2 18 4 40 4 22 0 40 5 40 10 0 6 11 8 25 6 14 -3 25 0 25
5 0 15 -103 10 -126 -6z"/>
<path d="M1200 899 c0 -7 -34 -10 -102 -8 -85 2 -103 0 -112 -13 -8 -13 -5
-22 9 -38 16 -18 28 -20 91 -18 69 3 73 4 78 29 5 29 26 38 91 40 22 1 54 5
70 9 22 6 9 8 -47 9 -50 1 -78 -3 -78 -10z m-187 -35 c-5 -13 -1 -15 15 -10
17 6 21 4 16 -7 -6 -15 -40 -12 -50 5 -8 13 4 40 15 33 6 -3 7 -13 4 -21z
m121 -6 c-3 -4 -22 -8 -42 -7 -33 1 -34 2 -12 9 32 9 60 8 54 -2z"/>
<path d="M1584 893 c-16 -3 -20 -10 -16 -29 2 -13 9 -24 14 -24 5 0 6 10 3 22
-6 16 -4 20 7 15 9 -3 15 1 15 9 0 8 -1 13 -1 13 -1 -1 -10 -4 -22 -6z"/>
<path d="M1280 879 c-36 -5 -73 -9 -82 -9 -11 -1 -18 -9 -18 -22 0 -15 5 -19
20 -15 12 3 20 0 20 -8 0 -18 -27 -38 -40 -30 -8 5 -11 -29 -9 -117 l1 -123
-66 -5 c-71 -5 -106 -25 -106 -60 0 -26 46 -74 64 -67 7 3 38 8 69 12 32 4 57
11 57 15 0 9 109 24 117 16 3 -3 -5 -10 -18 -16 -22 -10 -21 -10 6 -4 17 3 35
7 42 8 20 3 28 16 9 16 -9 0 -28 8 -42 17 -20 13 -46 16 -107 15 -71 -2 -78 0
-61 12 10 8 22 12 26 10 5 -3 8 -1 8 5 0 9 42 12 213 13 42 1 77 5 77 10 0 4
5 8 10 8 15 0 12 -98 -5 -130 -11 -21 -24 -30 -47 -33 -27 -4 -25 -4 7 -3 38
1 41 3 55 44 8 23 19 41 25 38 7 -2 10 7 7 24 -4 31 12 47 32 31 10 -9 15 -8
19 3 3 8 14 16 24 19 10 2 -3 2 -28 0 -32 -3 -51 0 -60 10 -10 10 -24 12 -54
6 -29 -5 -44 -3 -56 7 -8 8 -26 14 -40 13 l-24 -1 25 -8 c34 -11 41 -9 -123
-24 -30 -3 -45 -1 -41 5 3 6 6 58 6 115 0 101 1 106 23 114 19 7 152 18 233
20 6 0 12 5 12 11 0 9 -28 10 -97 6 -54 -3 -104 -7 -112 -9 -7 -1 -15 2 -18 9
-8 21 37 35 130 38 109 4 107 4 82 15 -24 10 -77 10 -165 -1z m-173 -346 c-23
-4 -27 -8 -21 -25 6 -20 6 -20 -15 1 -12 12 -21 23 -21 24 0 2 19 4 43 4 26 0
32 -2 14 -4z m-72 -34 c-7 -22 -7 -22 106 -15 63 4 111 5 108 2 -6 -6 -132
-27 -187 -31 -35 -3 -57 20 -46 49 9 24 26 19 19 -5z m462 -1 c-3 -8 -6 -5 -6
6 -1 11 2 17 5 13 3 -3 4 -12 1 -19z"/>
<path d="M1706 879 c4 -7 44 0 44 7 0 2 -11 3 -24 2 -14 -1 -23 -5 -20 -9z"/>
<path d="M2631 863 c1 -16 5 -39 10 -53 6 -18 7 -11 3 24 -4 37 -3 46 7 41 8
-5 10 -4 5 3 -13 21 -26 13 -25 -15z"/>
<path d="M1520 859 c0 -5 5 -7 10 -4 14 9 13 -8 -2 -23 -9 -9 -8 -12 7 -12 10
0 15 3 12 6 -3 4 -2 15 4 25 8 16 6 19 -11 19 -11 0 -20 -5 -20 -11z"/>
<path d="M1640 849 c0 -6 -10 -8 -22 -5 -13 3 -17 3 -10 0 20 -9 14 -23 -9
-19 -21 4 -21 3 -4 -15 9 -10 14 -24 10 -30 -3 -6 -3 -10 2 -9 24 4 43 -3 43
-16 0 -8 7 -15 15 -15 8 0 15 5 15 10 0 6 5 10 11 10 5 0 8 -4 5 -8 -2 -4 -1
-14 4 -22 7 -11 9 -6 7 15 -2 27 -6 30 -40 33 -32 3 -37 7 -37 28 0 20 5 24
33 24 17 0 39 5 47 11 13 9 13 10 0 6 -8 -2 -27 0 -42 4 -17 5 -28 4 -28 -2z"/>
<path d="M2662 840 c0 -14 2 -19 5 -12 2 6 2 18 0 25 -3 6 -5 1 -5 -13z"/>
<path d="M1408 755 c2 -19 8 -35 13 -35 10 0 12 31 3 54 -11 28 -20 17 -16
-19z"/>
<path d="M1221 763 c-1 -16 3 -21 14 -17 8 4 15 14 15 23 0 13 -2 13 -9 2 -7
-11 -9 -11 -14 0 -3 8 -6 5 -6 -8z"/>
<path d="M1280 739 c0 -15 4 -31 10 -34 5 -3 7 0 4 8 -3 10 1 14 11 14 10 -1
21 7 25 18 6 17 3 20 -21 21 -25 2 -29 -2 -29 -27z m37 -1 c-3 -8 -6 -5 -6 6
-1 11 2 17 5 13 3 -3 4 -12 1 -19z"/>
<path d="M1350 754 c0 -11 -4 -24 -10 -30 -6 -6 -3 -10 10 -11 17 -2 19 3 14
25 -9 35 -14 41 -14 16z"/>
<path d="M1570 726 c0 -14 5 -26 10 -26 6 0 10 7 10 15 0 8 0 18 1 22 0 4 -4
9 -10 11 -6 2 -11 -8 -11 -22z"/>
<path d="M1784 734 c-7 -3 -9 -14 -6 -26 3 -14 -1 -26 -13 -34 -11 -8 -14 -14
-9 -14 17 0 34 23 34 46 0 12 6 25 13 27 6 3 8 5 2 5 -5 0 -15 -2 -21 -4z"/>
<path d="M1662 713 c-10 -4 -7 -9 8 -20 25 -18 35 -13 17 9 -6 9 -18 13 -25
11z"/>
<path d="M1720 710 c-8 -5 -10 -10 -5 -10 6 0 17 5 25 10 8 5 11 10 5 10 -5 0
-17 -5 -25 -10z"/>
<path d="M1345 689 c-4 -6 -5 -12 -2 -15 2 -3 7 2 10 11 7 17 1 20 -8 4z"/>
<path d="M1821 684 c0 -11 3 -14 6 -6 3 7 2 16 -1 19 -3 4 -6 -2 -5 -13z"/>
<path d="M2262 665 c0 -16 2 -22 5 -12 2 9 2 23 0 30 -3 6 -5 -1 -5 -18z"/>
<path d="M2051 652 c-1 -8 -9 -10 -25 -6 -24 6 -45 -19 -25 -31 5 -4 8 -1 7 6
-2 6 3 14 11 17 8 3 11 0 7 -7 -5 -7 -1 -9 10 -4 10 4 15 2 11 -3 -3 -5 5 -11
19 -12 13 -1 24 2 24 7 0 5 2 16 5 24 4 8 0 14 -8 14 -9 0 -12 -7 -9 -19 6
-26 -7 -22 -18 5 -5 12 -9 16 -9 9z"/>
<path d="M2108 637 c-3 -15 -1 -30 4 -33 15 -10 18 0 9 32 l-8 29 -5 -28z"/>
<path d="M2140 623 c0 -13 5 -23 10 -23 6 0 10 7 10 16 0 8 4 13 8 10 5 -3 9
0 9 7 0 7 -9 13 -19 13 -12 0 -18 -8 -18 -23z"/>
<path d="M1206 624 c-6 -17 9 -44 25 -44 14 0 10 36 -5 49 -11 9 -15 8 -20 -5z"/>
<path d="M2190 626 c0 -8 -5 -16 -12 -18 -7 -3 -6 -7 5 -11 13 -5 17 -1 17 18
0 14 -2 25 -5 25 -3 0 -5 -6 -5 -14z"/>
<path d="M1950 615 c0 -2 9 -9 20 -15 16 -9 18 -8 14 5 -5 13 -34 22 -34 10z"/>
<path d="M1721 589 c-69 -12 -83 -24 -17 -15 27 3 65 6 85 6 27 0 32 3 21 10
-17 11 -15 11 -89 -1z"/>
<path d="M2010 579 c0 -5 5 -7 10 -4 6 3 10 8 10 11 0 2 -4 4 -10 4 -5 0 -10
-5 -10 -11z"/>
<path d="M2070 563 c0 -15 5 -23 13 -20 6 2 24 0 40 -4 25 -7 27 -5 26 19 0
24 -1 25 -8 7 -8 -19 -8 -19 -12 -1 -3 12 -14 20 -31 22 -24 2 -28 -1 -28 -23z
m25 8 c3 -5 1 -12 -5 -16 -5 -3 -10 1 -10 9 0 18 6 21 15 7z m22 -13 c-3 -8
-6 -5 -6 6 -1 11 2 17 5 13 3 -3 4 -12 1 -19z"/>
<path d="M1628 563 c7 -3 16 -2 19 1 4 3 -2 6 -13 5 -11 0 -14 -3 -6 -6z"/>
<path d="M1805 560 c3 -5 8 -10 11 -10 2 0 4 5 4 10 0 6 -5 10 -11 10 -5 0 -7
-4 -4 -10z"/>
<path d="M1667 554 c-3 -4 -2 -16 4 -26 13 -24 35 -9 26 16 -7 17 -19 21 -30
10z"/>
<path d="M1633 535 c0 -8 4 -15 9 -15 4 0 8 7 8 15 0 8 -4 15 -8 15 -5 0 -9
-7 -9 -15z"/>
<path d="M1893 500 c0 -30 2 -43 4 -27 2 15 2 39 0 55 -2 15 -4 2 -4 -28z"/>
<path d="M1409 512 c30 -9 38 -29 14 -34 -15 -3 -14 -5 5 -10 20 -6 23 -3 20
20 -2 22 -9 27 -33 29 -27 2 -28 1 -6 -5z"/>
<path d="M1545 470 c2 -24 3 -26 38 -34 24 -6 27 -4 27 18 0 24 -16 36 -49 36
-11 0 -17 -7 -16 -20z m45 -10 c0 -5 -7 -7 -15 -4 -8 4 -15 8 -15 10 0 2 7 4
15 4 8 0 15 -4 15 -10z"/>
<path d="M1710 479 c0 -5 5 -7 10 -4 6 3 10 8 10 11 0 2 -4 4 -10 4 -5 0 -10
-5 -10 -11z"/>
<path d="M2110 474 c0 -7 -6 -15 -12 -17 -9 -4 -9 -6 -2 -6 12 -1 73 28 64 30
-33 6 -50 4 -50 -7z"/>
<path d="M1685 451 c0 -16 3 -27 8 -24 4 2 7 15 7 29 0 13 -3 24 -7 24 -5 0
-8 -13 -8 -29z"/>
<path d="M1745 469 c-4 -6 -4 -13 -1 -16 3 -4 6 -1 6 6 0 7 5 9 12 5 7 -4 8
-3 4 4 -9 15 -13 15 -21 1z"/>
<path d="M2046 465 c4 -10 0 -15 -15 -15 -12 0 -21 -4 -21 -9 0 -4 11 -6 25
-3 16 3 25 11 25 23 0 11 -4 19 -10 19 -5 0 -7 -7 -4 -15z"/>
<path d="M2253 455 c-3 -9 -3 -19 1 -22 3 -4 6 2 6 11 0 12 5 16 16 12 8 -3
12 -2 9 4 -9 15 -25 12 -32 -5z"/>
<path d="M1651 427 c-13 -21 -12 -21 5 -5 10 10 16 20 13 22 -3 3 -11 -5 -18
-17z"/>
<path d="M1599 401 c11 -7 11 -9 0 -14 -8 -3 -9 -6 -3 -6 6 -1 16 5 22 12 8
10 6 13 -11 14 -15 2 -18 0 -8 -6z"/>
<path d="M2280 391 c0 -5 5 -13 10 -16 6 -3 10 -2 10 4 0 5 -4 13 -10 16 -5 3
-10 2 -10 -4z"/>
<path d="M2242 357 c29 -8 38 -16 41 -36 4 -23 4 -22 6 5 1 33 -17 45 -64 43
-11 -1 -4 -6 17 -12z"/>
<path d="M870 350 c0 -5 5 -10 11 -10 5 0 7 5 4 10 -3 6 -8 10 -11 10 -2 0 -4
-4 -4 -10z"/>
<path d="M1086 351 c-35 -13 -2 -18 34 -5 30 11 31 13 10 13 -14 0 -34 -4 -44
-8z"/>
<path d="M138 333 c7 -3 16 -2 19 1 4 3 -2 6 -13 5 -11 0 -14 -3 -6 -6z"/>
<path d="M2317 274 c-9 -25 -12 -42 -7 -39 10 6 34 74 28 80 -2 2 -11 -16 -21
-41z"/>
<path d="M935 300 c3 -5 8 -10 11 -10 2 0 4 5 4 10 0 6 -5 10 -11 10 -5 0 -7
-4 -4 -10z"/>
<path d="M818 293 c7 -3 16 -2 19 1 4 3 -2 6 -13 5 -11 0 -14 -3 -6 -6z"/>
<path d="M868 293 c12 -2 30 -2 40 0 9 3 -1 5 -23 4 -22 0 -30 -2 -17 -4z"/>
<path d="M518 283 c7 -3 16 -2 19 1 4 3 -2 6 -13 5 -11 0 -14 -3 -6 -6z"/>
<path d="M1455 280 c-3 -6 1 -7 9 -4 18 7 21 14 7 14 -6 0 -13 -4 -16 -10z"/>
<path d="M1485 270 c-16 -7 -17 -9 -3 -9 9 -1 20 4 23 9 7 11 7 11 -20 0z"/>
<path d="M1771 264 c0 -11 3 -14 6 -6 3 7 2 16 -1 19 -3 4 -6 -2 -5 -13z"/>
<path d="M2350 265 c0 -8 2 -15 4 -15 2 0 6 7 10 15 3 8 1 15 -4 15 -6 0 -10
-7 -10 -15z"/>
<path d="M341 261 c-8 -5 -9 -11 -3 -15 5 -3 12 1 16 9 6 17 6 18 -13 6z"/>
<path d="M661 237 c-13 -21 -12 -21 5 -5 10 10 16 20 13 22 -3 3 -11 -5 -18
-17z"/>
<path d="M1180 246 c0 -2 8 -10 18 -17 15 -13 16 -12 3 4 -13 16 -21 21 -21
13z"/>
<path d="M2105 240 c17 -4 39 -8 50 -8 16 0 15 2 -5 8 -14 4 -36 8 -50 8 -22
0 -22 -1 5 -8z"/>
<path d="M890 229 c0 -5 5 -7 10 -4 6 3 10 8 10 11 0 2 -4 4 -10 4 -5 0 -10
-5 -10 -11z"/>
<path d="M2188 223 c6 -2 18 -2 25 0 6 3 1 5 -13 5 -14 0 -19 -2 -12 -5z"/>
<path d="M1485 210 c-3 -6 1 -7 9 -4 18 7 21 14 7 14 -6 0 -13 -4 -16 -10z"/>
<path d="M2248 213 c7 -3 16 -2 19 1 4 3 -2 6 -13 5 -11 0 -14 -3 -6 -6z"/>
<path d="M2660 211 c0 -5 -8 -12 -17 -14 -14 -4 -13 -5 4 -6 12 0 24 5 26 12
4 9 6 9 6 -1 1 -7 6 -10 11 -7 17 10 11 25 -10 25 -11 0 -20 -4 -20 -9z"/>
<path d="M1910 201 c0 -5 9 -7 20 -4 11 3 20 7 20 9 0 2 -9 4 -20 4 -11 0 -20
-4 -20 -9z"/>
<path d="M1828 193 c7 -3 16 -2 19 1 4 3 -2 6 -13 5 -11 0 -14 -3 -6 -6z"/>
<path d="M1868 193 c7 -3 16 -2 19 1 4 3 -2 6 -13 5 -11 0 -14 -3 -6 -6z"/>
<path d="M2600 189 c0 -5 5 -7 10 -4 6 3 10 8 10 11 0 2 -4 4 -10 4 -5 0 -10
-5 -10 -11z"/>
<path d="M1477 169 c7 -7 15 -10 18 -7 3 3 -2 9 -12 12 -14 6 -15 5 -6 -5z"/>
<path d="M28 163 c7 -3 16 -2 19 1 4 3 -2 6 -13 5 -11 0 -14 -3 -6 -6z"/>
<path d="M2545 160 l-80 -5 55 -7 c71 -10 467 -15 475 -6 3 3 -14 8 -39 10
-25 2 -46 -1 -46 -5 0 -5 -5 -5 -12 -1 -6 4 -56 7 -110 7 -54 0 -98 3 -98 7 0
7 -28 7 -145 0z"/>
<path d="M1632 123 c6 -8 16 -9 27 -4 9 5 23 11 31 14 8 3 -4 5 -27 4 -31 -2
-39 -5 -31 -14z"/>
</g>
</svg>
