<svg viewBox="0 0 600 108" xmlns="http://www.w3.org/2000/svg"><path d="M414.71 51.95c0-5.024-3.057-9.73-10.384-9.73-12.702 0-21.687 16.746-21.687 29.566 0 8.524 3.61 16.688 14 16.688 4.28.084 8.5-1.08 12.14-3.35l-1.21-3.147a19.397 19.397 0 0 1-10.28 2.972c-4.73 0-8.16-2.52-9.73-7.54-.8-3.66-.93-7.42-.37-11.12 14.53.11 27.51-3.03 27.51-14.35l.011.011zm-11.12-6.213c4.186 0 6.95 2.227 6.95 6.305v.092c0 8.81-11.12 10.75-22.71 10.66 2.764-9.64 8.902-17.057 15.76-17.057zm47.827-2.597h-4.723l-9.21 11.59c-2.136 2.596-3.15 4.187-5.025 6.858h-.19c-1.02-2.32-1.85-4.64-2.87-7.226l-4.64-11.22h-4.26l9.21 21.77-18.42 22.708h4.73l10.05-12.61a78.19 78.19 0 0 0 4.82-6.95h.18c1.11 3.148 1.75 4.915 3.05 7.88l4.73 11.68h4.35l-9.41-22.69 17.61-21.79h.018zm24.19-.92c-5.928 0-11.496 3.8-15.516 9.914h-.18l1.39-8.993h-3.8c-.55 4.08-1.39 9.46-2.51 15.3l-8.85 47.37h3.99l3.53-19.19h.19c2.76 1.39 5.82 2.07 8.9 1.95 14.19 0 24.48-16.87 24.48-31.88-.01-7.32-3.16-14.46-11.6-14.46l-.024-.011zm-12.51 42.82c-3.616 0-6.58-.928-8.615-2.51l2.864-15.324c2.512-13.44 10.75-21.502 17.056-21.502 6.58 0 8.624 5.937 8.624 11.22 0 11.437-8.155 28.117-19.928 28.117l-.001-.001zm50.148-42.82c-12.702 0-21.687 16.746-21.687 29.566 0 8.524 3.617 16.688 14 16.688a22.105 22.105 0 0 0 12.14-3.35l-1.205-3.147a19.382 19.382 0 0 1-10.29 2.964c-4.732 0-8.157-2.51-9.73-7.53-.8-3.64-.928-7.4-.378-11.08 14.553.09 27.53-3.05 27.53-14.37-.006-5-3.062-9.73-10.38-9.73v-.011zm6.205 9.914c0 8.81-11.12 10.75-22.708 10.66 2.78-9.64 8.9-17.057 15.758-17.057 4.187 0 6.95 2.227 6.95 6.305v.092zm16.78.746h-.185c.553-3.895.93-6.86 1.206-9.73h-3.61c-.37 3.893-1.02 8.9-2.13 14.552l-5.65 29.943h3.99l4.26-22.608c1.85-9.73 8.38-18.538 14.19-18.538.5-.03.99 0 1.48.09l.84-4.26c-.46 0-1.11-.1-1.67-.1-5.56-.02-10 4.7-12.69 10.64l-.031.011zm26.693 32.07c-2.78 0-3.986-1.575-3.986-4.188a41.08 41.08 0 0 1 .93-7.695l4.89-26.493h10.474l.75-3.433h-10.46l1.95-9.73-4.44 1.76-1.48 7.97h-6.49l-.64 3.44h6.4l-5.02 26.51c-.64 2.67-.98 5.41-1.02 8.16 0 3.71 2.05 7.23 7.33 7.23 1.48 0 2.94-.22 4.36-.64l-.274-3.24c-1.05.3-2.14.43-3.236.37l-.038-.021zm29.29-39.213a12.69 12.69 0 0 1 6.305 1.85L600 44.154c-1.298-1.022-4.262-1.943-7.327-1.943-7.88 0-13.53 5.66-13.53 12.61 0 4.19 2.41 8.16 6.857 11.03 4.187 2.69 6.03 5.38 6.03 9.82 0 5.1-3.987 9.27-9.823 9.27-2.792-.01-5.51-.89-7.787-2.51l-1.574 3.35c1.482 1.21 5.024 2.69 8.993 2.69 7.69 0 14.23-4.91 14.23-13.91 0-4.54-2.6-8.61-6.86-11.49-3.62-2.51-6.03-4.82-6.03-8.99.03-4.53 3.65-8.33 9.03-8.33l.004-.014z"/><path d="M80.335 21.066c-.075-.526-.523-.827-.897-.827s-7.78-.15-7.78-.15-6.208-6.01-6.806-6.687c-.599-.601-1.796-.45-2.244-.3 0 0-1.197.375-3.142.976-.3-1.052-.823-2.329-1.496-3.682-2.17-4.207-5.46-6.461-9.35-6.461-.3 0-.524 0-.823.075-.15-.15-.224-.3-.374-.376-1.72-1.803-3.89-2.705-6.507-2.63-5.012.15-10.024 3.832-14.138 10.294-2.842 4.583-5.011 10.294-5.684 14.727-5.76 1.803-9.8 3.08-9.949 3.08-2.917.902-2.992.977-3.366 3.758C7.63 34.966 0 94.25 0 94.25l64.029 11.12 27.75-6.912c-.074 0-11.369-76.866-11.444-77.392zM56.25 15.13c-1.496.451-3.142.977-4.937 1.578 0-2.555-.374-6.161-1.496-9.167 3.815.601 5.685 4.96 6.433 7.59zm-8.303 2.555a2467.413 2467.413 0 0 1-10.697 3.306c1.048-3.982 2.992-7.89 5.386-10.52.898-.976 2.17-2.028 3.59-2.63 1.496 2.931 1.796 7.064 1.72 9.844zm-6.882-13.3c1.197 0 2.17.226 2.992.827-1.346.676-2.693 1.728-3.89 3.08-3.216 3.457-5.684 8.792-6.657 13.976-3.066.977-6.058 1.879-8.751 2.705 1.795-8.19 8.602-20.362 16.306-20.588z" fill="#95BF47"/><path d="M79.438 20.24c-.374 0-7.78-.15-7.78-.15s-6.207-6.012-6.806-6.688c-.224-.225-.523-.376-.823-.376v92.344l27.751-6.912S80.485 21.592 80.41 21.066c-.15-.526-.598-.826-.972-.826z" fill="#5E8E3E"/><path d="m48.62 34.59-3.216 12.098s-3.59-1.653-7.854-1.353c-6.283.376-6.283 4.358-6.283 5.335.374 5.41 14.51 6.612 15.334 19.31.598 9.994-5.236 16.831-13.763 17.357-10.173.526-15.783-5.485-15.783-5.485l2.169-9.242s5.685 4.283 10.173 3.982c2.917-.15 4.039-2.63 3.89-4.282-.45-7.063-11.969-6.612-12.717-18.259-.598-9.768 5.76-19.61 19.822-20.512 5.46-.376 8.228 1.052 8.228 1.052z" fill="#fff"/><path d="M129.329 60.363c-3.216-1.728-4.862-3.231-4.862-5.26 0-2.554 2.319-4.207 5.909-4.207 4.189 0 7.929 1.728 7.929 1.728l2.917-9.017s-2.693-2.104-10.621-2.104c-11.071 0-18.775 6.387-18.775 15.328 0 5.11 3.59 8.942 8.377 11.722 3.89 2.179 5.236 3.757 5.236 6.086 0 2.404-1.944 4.358-5.535 4.358-5.311 0-10.397-2.78-10.397-2.78l-3.142 9.016s4.638 3.156 12.492 3.156c11.37 0 19.598-5.635 19.598-15.779-.075-5.485-4.189-9.392-9.126-12.247zm45.329-19.01c-5.61 0-10.023 2.705-13.389 6.763l-.15-.075 4.862-25.547H153.34l-12.342 65.069h12.641l4.189-22.24c1.645-8.416 5.984-13.6 10.023-13.6 2.842 0 3.964 1.953 3.964 4.733 0 1.728-.149 3.907-.523 5.635l-4.787 25.472h12.641l4.937-26.298c.523-2.78.897-6.086.897-8.34.075-7.214-3.665-11.572-10.322-11.572zm39.046 0c-15.26 0-25.358 13.825-25.358 29.229 0 9.843 6.059 17.807 17.429 17.807 14.96 0 25.058-13.45 25.058-29.228.075-9.092-5.236-17.808-17.129-17.808zm-6.209 37.343c-4.338 0-6.133-3.681-6.133-8.34 0-7.288 3.74-19.16 10.621-19.16 4.488 0 5.984 3.907 5.984 7.664 0 7.814-3.815 19.836-10.472 19.836zm55.801-37.343c-8.527 0-13.389 7.589-13.389 7.589h-.15l.748-6.838h-11.22c-.523 4.584-1.571 11.647-2.543 16.906l-8.826 46.586h12.641l3.515-18.86h.3s2.618 1.653 7.405 1.653c14.885 0 24.609-15.328 24.609-30.806 0-8.566-3.815-16.23-13.09-16.23zm-12.118 37.494c-3.291 0-5.236-1.879-5.236-1.879l2.095-11.872c1.496-7.964 5.61-13.224 10.023-13.224 3.89 0 5.086 3.607 5.086 6.988 0 8.265-4.862 19.987-11.968 19.987zm43.31-55.752c-4.04 0-7.256 3.23-7.256 7.363 0 3.757 2.394 6.387 5.984 6.387h.15c3.964 0 7.33-2.705 7.405-7.363 0-3.682-2.469-6.387-6.283-6.387zM276.76 87.487h12.641l8.602-45.082h-12.716l-8.527 45.082zm53.482-45.157h-8.826l.448-2.104c.748-4.358 3.292-8.19 7.555-8.19 2.244 0 4.039.676 4.039.676l2.469-9.993s-2.169-1.127-6.882-1.127c-4.488 0-8.976 1.277-12.417 4.208-4.338 3.681-6.358 9.016-7.33 14.426l-.374 2.104h-5.909l-1.87 9.617h5.909l-6.732 35.616h12.641l6.732-35.615h8.752l1.795-9.618zm30.518.075s-7.929 20.062-11.444 31.032h-.15c-.224-3.532-3.141-31.032-3.141-31.032H332.71l7.63 41.4c.149.902.075 1.503-.299 2.105-1.496 2.855-3.965 5.635-6.882 7.664-2.394 1.728-5.086 2.855-7.181 3.606l3.516 10.82c2.543-.526 7.929-2.705 12.417-6.913 5.759-5.41 11.145-13.825 16.605-25.246L374 42.405h-13.24z"/></svg>