<svg id="Layer_1" data-name="Layer 1" xmlns="http://www.w3.org/2000/svg" viewBox="0 0 400 300" width="406" height="306" class="illustration styles_illustrationTablet__1DWOa"><polygon points="162.47 227.46 232.68 243.08 217.7 265.1 151.42 265.1 162.47 227.46" fill="#24285b"></polygon><path d="M169.53,190.23l-22.72-36.1-10,4.76s8.46,43.35,22.8,44S169.53,190.23,169.53,190.23Z" fill="#cdb693"></path><path d="M169.53,190.23l-22.72-36.1-10,4.76s8.46,43.35,22.8,44S169.53,190.23,169.53,190.23Z" fill="#fff" opacity="0.46"></path><path d="M219.61,136.4s-59-20.16-54.69,49.51Z" fill="#cdb693"></path><path d="M164.92,185.91l54.69-49.51s-59-20.16-54.69,49.51" fill="#fff" opacity="0.46"></path><path d="M236,108s-5,6.07-6.82,11.1a3.94,3.94,0,0,0,2.36,5.06c2.55.89,6.26,1.36,9.31-1.57l5.81-4.33a7,7,0,0,0,1.68-8C246.51,105.22,238.86,104.19,236,108Z" fill="#f4a28c"></path><polygon points="244.76 116.33 240.18 141.62 226.42 138.1 235.28 121.11 244.76 116.33" fill="#f4a28c"></polygon><path d="M237.44,109.41a31.57,31.57,0,0,0,6.28,3.62,6.52,6.52,0,0,0-4.05,5.92,5.33,5.33,0,0,0,4.11,5.39l5.58-8.39a8,8,0,0,0,.68-8.17,30.32,30.32,0,0,0-1.85-3.25c-1.74-2.6-6.34-3.4-7.38-6.49a1.89,1.89,0,0,0-3.17-.67c-2.11,2.28-4.38,6.57-1.9,10.29A7.43,7.43,0,0,0,237.44,109.41Z" fill="#ffd200"></path><path d="M239.11,118.29s1.75-2.46,3.49-1-.77,5-3.54,3.64Z" fill="#f4a28c"></path><path d="M233.08,112l-3.51,1.26a1.26,1.26,0,0,0-.46,2.07l2.15,2.16Z" fill="#f4a28c"></path><path d="M233.18,124.75a9.33,9.33,0,0,0,5.24-1.07s-1.75,4.37-8.15,7Z" fill="#ce8172" opacity="0.31"></path><path d="M276.24,175.46c-1.06-16.81-26.91-31.89-43.23-36.06l-6.1-1.56S184.52,125.29,170,163s-5.92,73.43-5.92,73.43l69.93,8.05S278.62,213.15,276.24,175.46Z" fill="#cdb693"></path><path d="M246.06,144.44s2.43-6.86-5.84-10.18-16.58-6.53-20.61,2.14C219.61,136.4,226.41,143.34,246.06,144.44Z" fill="#cdb693"></path><path d="M246.06,144.44s2.43-6.86-5.84-10.18-16.58-6.53-20.61,2.14C219.61,136.4,226.41,143.34,246.06,144.44Z" fill="#fff" opacity="0.46"></path><path d="M300.08,103.05s49.33,89.12,4.49,107.35C269,224.87,241.62,199,243.62,170.05a15,15,0,0,1,27-8.07,44.84,44.84,0,0,1,8.22,18.49c5.16,25.68,22.05,5.89,19.86-13.78S300.08,103.05,300.08,103.05Z" fill="#cdb693"></path><path d="M300.08,103.05s49.33,89.12,4.49,107.35C269,224.87,241.62,199,243.62,170.05a15,15,0,0,1,27-8.07,44.84,44.84,0,0,1,8.22,18.49c5.16,25.68,22.05,5.89,19.86-13.78S300.08,103.05,300.08,103.05Z" fill="#fff" opacity="0.46"></path><path d="M84.84,48.37l8.44,201.87,212.58-8.89L297.42,39.48ZM291.3,172.88,101.76,180.8,98.22,96.11l189.53-7.93Z" fill="#e6e6e6"></path><circle cx="113.38" cy="71.67" r="12.34" fill="#c1c1c1"></circle><rect x="134.69" y="61.67" width="28.21" height="6" rx="3" transform="matrix(1, -0.04, 0.04, 1, -2.57, 6.27)" fill="#c1c1c1"></rect><rect x="135.12" y="71.71" width="42.26" height="6" rx="3" transform="translate(-2.99 6.59) rotate(-2.39)" fill="#c1c1c1" opacity="0.46"></rect><path d="M300.48,112.73s6.34-16.76-3.12-19S295.15,108.82,300.48,112.73Z" fill="#f4a28c"></path><path d="M146.81,154.13a43.62,43.62,0,0,1-9-13.93c-2.84-7.81-6.65-1.26-4.18,3s-8.65.87-6.8,8.46,9.93,7.25,9.93,7.25Z" fill="#f4a28c"></path><rect x="115.05" y="107.18" width="72.71" height="7.13" transform="translate(-4.5 6.42) rotate(-2.39)" fill="#e6e6e6" opacity="0.45"></rect><circle cx="119.52" cy="200.9" r="13.08" fill="#ffd200"></circle><circle cx="157.29" cy="199.32" r="13.08" fill="#24285b"></circle><rect x="107.81" y="218.16" width="182.81" height="27.63" transform="translate(-9.52 8.53) rotate(-2.39)" fill="#c1c1c1" opacity="0.46"></rect><path d="M160.18,193.63a3.3,3.3,0,0,0-2,.86,4.6,4.6,0,0,0-1.08,1.53,4.68,4.68,0,0,0-1.31-1.34,3.35,3.35,0,0,0-2.1-.55,3.76,3.76,0,0,0-3.35,4.27c.19,2.45,2.29,4,5.46,6.27l1.79,1.31a.5.5,0,0,0,.29.09.52.52,0,0,0,.28-.13c.55-.57,1.09-1.1,1.56-1.57,2.78-2.77,4.61-4.6,4.42-7.05A3.76,3.76,0,0,0,160.18,193.63Z" fill="#fff"></path><rect x="112.74" y="198.95" width="5.19" height="7.83" transform="translate(-8.38 5) rotate(-2.39)" fill="#fff" opacity="0.49"></rect><path d="M117.79,199.44s3.31-1.71,4.2-4.7a1.17,1.17,0,0,1,2.16-.13,3.17,3.17,0,0,1,.17,2.09c-.64,3,2.51,1.09,3.33,2.33s3.5,8.2-9.59,7Z" fill="#fff"></path><circle cx="259.19" cy="196.9" r="3.7" fill="#bfbfbf" opacity="0.6"></circle><circle cx="270.58" cy="196.4" r="3.7" fill="#bfbfbf" opacity="0.6"></circle><circle cx="282.29" cy="195.88" r="3.7" fill="#bfbfbf" opacity="0.6"></circle></svg>