<svg id="Layer_1" data-name="Layer 1" xmlns="http://www.w3.org/2000/svg" xmlns:xlink="http://www.w3.org/1999/xlink" viewBox="0 0 352.84 312.49" width="406" height="306" class="illustration styles_illustrationTablet__1DWOa"><defs><linearGradient id="linear-gradient" x1="196.52" y1="172.47" x2="196.52" y2="79.39" gradientTransform="matrix(1, 0, 0, -1, -33.54, 338.13)" gradientUnits="userSpaceOnUse"><stop offset="0.01"></stop><stop offset="0.08" stop-opacity="0.69"></stop><stop offset="0.21" stop-opacity="0.32"></stop><stop offset="1" stop-opacity="0"></stop></linearGradient><linearGradient id="linear-gradient-2" x1="133.22" y1="225.37" x2="129.56" y2="168.22" gradientTransform="matrix(1, 0, 0, -1, 0, 352)" xlink:href="#linear-gradient"></linearGradient><linearGradient id="linear-gradient-3" x1="119.94" y1="226.14" x2="125.85" y2="201.37" gradientTransform="matrix(1, 0, 0, -1, 0, 352)" xlink:href="#linear-gradient"></linearGradient><linearGradient id="linear-gradient-4" x1="262.59" y1="232.2" x2="263.16" y2="210.24" gradientTransform="matrix(1, 0, 0, -1, 0, 352)" xlink:href="#linear-gradient"></linearGradient><linearGradient id="linear-gradient-5" x1="168.62" y1="225.13" x2="169.7" y2="215.6" gradientTransform="matrix(1, 0, 0, -1, 0, 352)" xlink:href="#linear-gradient"></linearGradient><linearGradient id="linear-gradient-6" x1="212.17" y1="293.99" x2="220.05" y2="237.96" gradientTransform="matrix(1, 0, 0, -1, 0, 352)" xlink:href="#linear-gradient"></linearGradient><linearGradient id="linear-gradient-7" x1="242.59" y1="199.94" x2="290.3" y2="171.71" gradientTransform="matrix(1, 0, 0, -1, 0, 352)" xlink:href="#linear-gradient"></linearGradient><linearGradient id="linear-gradient-8" x1="224.2" y1="170.09" x2="132.13" y2="234.28" gradientTransform="matrix(1, 0, 0, -1, 0, 352)" xlink:href="#linear-gradient"></linearGradient></defs><title>13</title><path d="M383.57,220.07a172.65,172.65,0,0,1-10.07,29.35c-6.48,14.87-14.44,29.64-26.9,40C322,310,286.66,308.76,254.9,313.2c-26.08,3.64-51.55,11.76-77.85,13-15.22.7-30.44-.93-45.56-2.81-27.88-3.48-58.15-9.19-76.36-30.57-12.43-14.59-17.06-34.17-19.78-53.13a159,159,0,0,1-1.79-19.6c-.2-9.25.82-18.41,4.21-27,5.94-15,18.5-26.45,31.72-35.76s27.56-17.14,39.56-28c19.72-17.83,31.67-42.41,46.21-64.66s34-43.82,60-49.33c11.44-2.42,23.34-1.52,34.89.33,15.16,2.42,30.34,6.56,43.27,14.85C309.85,41,321.66,57.64,329.6,75.46a210.53,210.53,0,0,1,10.68,31.19c2.24,8.27,2.87,17,8.67,23.47,12.93,14.49,27.37,25.65,33.9,45C387.76,189.61,387.1,205,383.57,220.07Z" transform="translate(-33.54 -13.87)" fill="#4e3505" opacity="0.18" style="isolation: isolate;"></path><path d="M383.57,220.07a172.65,172.65,0,0,1-10.07,29.35c-6.48,14.87-14.44,29.64-26.9,40C322,310,286.66,308.76,254.9,313.2c-26.08,3.64-51.55,11.76-77.85,13-15.22.7-30.44-.93-45.56-2.81-27.88-3.48-58.15-9.19-76.36-30.57-12.43-14.59-17.06-34.17-19.78-53.13a159,159,0,0,1-1.79-19.6Z" transform="translate(-33.54 -13.87)" fill="#4e3505" opacity="0.18" style="isolation: isolate;"></path><ellipse cx="162.98" cy="237.95" rx="119.6" ry="12.08" fill="url(#linear-gradient)"></ellipse><path d="M119.61,209.79c-4.71,11.63-5.3,24.55-9.5,36.38a1.52,1.52,0,0,1-.62.9,1.48,1.48,0,0,1-.93,0l-4.8-.94c4.1-12.56,2.32-26.44,6.29-39a1.79,1.79,0,0,1,.51-.93,1.91,1.91,0,0,1,1.23-.28,35.33,35.33,0,0,1,6.81.51C120.65,206.86,120.32,208,119.61,209.79Z" transform="translate(-33.54 -13.87)" fill="#fdb9a9"></path><path d="M134.67,245.54a3.2,3.2,0,0,1-3.56-1.55,9.48,9.48,0,0,1-1.08-4l-.88-7.94c-.28-2.43-.55-4.87-.66-7.32-.28-6.33.52-12.66,1.32-19a3.76,3.76,0,0,1,.93-2.39c1.29-1.11,6.68-1.74,8.15-.63,2,1.5-.08,6.63-.45,8.68-1.32,7.29-2.5,14.62-3.17,22C135.16,234.57,135.12,245.37,134.67,245.54Z" transform="translate(-33.54 -13.87)" fill="#fdb9a9"></path><path d="M142.07,200.46c-.16,1.81-.4,3.59-.67,5.33a3.43,3.43,0,0,1-.67,1.82,3.5,3.5,0,0,1-1.32.79,46.11,46.11,0,0,1-10.88,2.88,54.73,54.73,0,0,1-2.25-8.81,14.6,14.6,0,0,0-3.51,7.78,2.23,2.23,0,0,1-.51,1.42,2.11,2.11,0,0,1-1.81.27l-7.14-1.11c-1.48-.23-3.17-.6-3.9-1.92a5.08,5.08,0,0,1-.07-3.46l3-13.76a3.14,3.14,0,0,1,2.45-2.91c6.11-2.45,12.17-5.09,18.35-7.36,4.9-1.81,6.7-.32,8,4.63A42.09,42.09,0,0,1,142.07,200.46Z" transform="translate(-33.54 -13.87)" fill="#505365"></path><path d="M138.24,147.47a19.68,19.68,0,0,1,2.93,4.61,20.65,20.65,0,0,1,1,3.7l1,5.16a.38.38,0,0,1-.3.57,14.84,14.84,0,0,0-2.41.81,1.94,1.94,0,0,0-1.3,2.2c.22,1.33.28,2.69.43,4a75.87,75.87,0,0,0,1.33,8.21,12.49,12.49,0,0,1,.47,3.6c-.2,2.85-2.57,5.2-5.28,6.09a10.75,10.75,0,0,1-1.24.32,16.06,16.06,0,0,1-7.19-.56,10,10,0,0,0-3.59-.61,10.76,10.76,0,0,0-4.13,1.8,20.9,20.9,0,0,1-5.81,2.22c-.68.15-1.59.14-1.83-.51a1.61,1.61,0,0,1,.12-1.06c1.31-3.86,1-8.45.82-12.48-.06-1.12.48-4.14-.43-4.91s-3.82-.17-4.88,0a.58.58,0,0,1-.45,0,.63.63,0,0,1-.19-.41,37.31,37.31,0,0,1,0-9.79,31.2,31.2,0,0,1,1.35-7.42c2-5.73,7.07-7.88,12.69-8.87a14,14,0,0,0,4.8-1.8c1.5-.91,3.13-.2,4.59.28,1.77.59,3.63.85,5.12,2.08a16.91,16.91,0,0,1,2.32,2.68Z" transform="translate(-33.54 -13.87)" fill="#4e3505"></path><path d="M126.57,162.64a2.54,2.54,0,0,1,1.44,1.15l7,9.06a15.62,15.62,0,0,1,2,3.14c.92,2.09.89,4.51,1.85,6.58,1.06-2.09.95-4.55.82-6.88l-.52-9.09a2.73,2.73,0,0,0-.29-1.28,3,3,0,0,0-1.67-1,15.38,15.38,0,0,1-8.54-7.87,1.82,1.82,0,0,0-.65-.89c-.56-.32-1.24.07-1.72.49-2.39,2.07-7.07,9.89-5,12.94C122.6,167.7,124.29,162.24,126.57,162.64Z" transform="translate(-33.54 -13.87)" fill="url(#linear-gradient-2)"></path><path d="M142.71,162.57a12.75,12.75,0,0,1,.91,4.44,4.26,4.26,0,0,1-.37,2.11,3.48,3.48,0,0,1-4.08,1.34,9.84,9.84,0,0,1-3.78-2.65,30.6,30.6,0,0,1-3.27-3.56,24.84,24.84,0,0,0-2.3-3,12.83,12.83,0,0,1-1.81-1.8,10.79,10.79,0,0,1-1-3.24c-.49-1.75-1.51-3.3-2.14-5a1.61,1.61,0,0,1,0-1.45,1.42,1.42,0,0,1,.91-.51,4.36,4.36,0,0,1,3.56.81,7.86,7.86,0,0,1,1.63,2,8.77,8.77,0,0,1,1.25,2.75,6.72,6.72,0,0,0,.7,2.71,3.93,3.93,0,0,0,1,.86,27.67,27.67,0,0,0,6.39,3.19,4.52,4.52,0,0,1,2.75,1.71" transform="translate(-33.54 -13.87)" fill="#fdb9a9"></path><path d="M124.78,148a6,6,0,0,1-3,.13A5.31,5.31,0,0,1,119.9,147a3.8,3.8,0,0,1-1.39-1.75,5.21,5.21,0,0,1,.15-2.29,8.19,8.19,0,0,0-.63-4.71s2.26.13,2.46.17a9.51,9.51,0,0,1,2.49.9,7.8,7.8,0,0,1,2.81,2.19,8.26,8.26,0,0,1,.95,3.07C127.07,146.4,126.73,147.57,124.78,148Z" transform="translate(-33.54 -13.87)" fill="#fdb9a9"></path><path d="M126.57,146.44a2.19,2.19,0,0,0,.09-1.34l-.49-3.62a.49.49,0,0,0-.18-.37.61.61,0,0,0-.27,0c-1.54.12-5.36-.43-4.09,2C121.92,143.65,126.28,147,126.57,146.44Z" transform="translate(-33.54 -13.87)" fill="url(#linear-gradient-3)"></path><path d="M129.05,138.77a5.3,5.3,0,0,1-.53,2.51c-1,1.89-3.68,2.25-5.77,1.72-5.6-1.44-7.34-6.5-8.33-11.53a5.06,5.06,0,0,1,.53-3.69,4.66,4.66,0,0,1,.82-1,6.67,6.67,0,0,1,6-1.54C127.16,126.58,129.16,134,129.05,138.77Z" transform="translate(-33.54 -13.87)" fill="#fdb9a9"></path><path d="M135,231.48a.64.64,0,0,1,.25.15c.28.33.14,1.27.13,1.66q-.1,7.89.35,15.79a.45.45,0,0,1-.08.37.5.5,0,0,1-.37.13,13.4,13.4,0,0,1-2.61-.05.44.44,0,0,1-.22-.07.39.39,0,0,1-.14-.17l-1.52-2.87a7.45,7.45,0,0,1-.61-1.35,11,11,0,0,1-.28-1.7c-.33-2.39-1.42-4.67-1.56-7.08a18,18,0,0,1,.76-5.3.29.29,0,0,1,.11-.19.34.34,0,0,1,.2,0,31.76,31.76,0,0,0,4.13.55A7.93,7.93,0,0,1,135,231.48Z" transform="translate(-33.54 -13.87)" fill="#fefeff"></path><path d="M113.35,235.1q-2.32,9.06-5.18,18a2.56,2.56,0,0,1-.54,1.08c-.79.79-2.67-.25-3.48-.61a.6.6,0,0,1-.21-.14.5.5,0,0,1-.09-.24l-.68-3.58A8.46,8.46,0,0,1,103,248a11.25,11.25,0,0,1,.26-1.91c.44-2.67,0-5.49.68-8.12a14,14,0,0,1,1.08-2.8c.32-.64,1-2.39,1.57-2.74s2,.33,2.62.52l3.39,1a1.18,1.18,0,0,1,.81.52A1.13,1.13,0,0,1,113.35,235.1Z" transform="translate(-33.54 -13.87)" fill="#fefeff"></path><path d="M131.13,247.5a.86.86,0,0,1,.58-.19c.28,0,.47.29.68.47a3.14,3.14,0,0,0,2.87.24,1.43,1.43,0,0,1,.74,0,1.08,1.08,0,0,1,.43.3,25.53,25.53,0,0,1,1.69,2.42,30.17,30.17,0,0,1,2.47,2.71.83.83,0,0,1,.12.82.86.86,0,0,1-.72.31c-2.26.17-4.45-.73-6.54-1.6a9,9,0,0,1-2-1.07,2.72,2.72,0,0,1-.88-3.75A2.63,2.63,0,0,1,131.13,247.5Z" transform="translate(-33.54 -13.87)" fill="#505365"></path><path d="M102.84,251.82a.78.78,0,0,1,.53-.29,1.47,1.47,0,0,1,.75.34,3.11,3.11,0,0,0,2.87-.27,1.29,1.29,0,0,1,.67-.18,1.05,1.05,0,0,1,.47.21,25.88,25.88,0,0,1,2.1,2.09,33,33,0,0,1,2.91,2.23.82.82,0,0,1,.26.78c-.09.26-.39.37-.65.44-2.2.56-4.51.07-6.72-.42a9.3,9.3,0,0,1-2.19-.69,2.71,2.71,0,0,1-1.42-3.56A2.77,2.77,0,0,1,102.84,251.82Z" transform="translate(-33.54 -13.87)" fill="#505365"></path><path d="M277.94,149.92a5.77,5.77,0,0,0-.78,4.73c.79,3.71,3.6,6.64,5.12,10.12a31.33,31.33,0,0,1,1.93,9.07l.63,5.88a13.24,13.24,0,0,1,0,4.26c-.36,1.54-1.29,3-1,4.59a3,3,0,0,0,5.21,1.36c1.21-1.42.85-3.54.62-5.4-.62-4.84.09-9.75.82-14.58a13,13,0,0,0,.2-3.79,13.64,13.64,0,0,0-.89-2.87l-4.3-10.94C284.42,149.59,280.4,146.72,277.94,149.92Z" transform="translate(-33.54 -13.87)" fill="#fdb9a9"></path><path d="M249.83,130.77a5.81,5.81,0,0,0-.18-4.79c-1.51-3.48-4.85-5.79-7-8.9a30.68,30.68,0,0,1-3.69-8.51l-1.8-5.63a12.63,12.63,0,0,1-.83-4.17c0-1.59.65-3.24,0-4.7a3,3,0,0,0-5.37-.29c-.91,1.63-.13,3.64.47,5.41,1.57,4.62,1.85,9.57,2.1,14.45a9.75,9.75,0,0,0,2,6.39l6.4,9.87C243.54,132.39,248.05,134.4,249.83,130.77Z" transform="translate(-33.54 -13.87)" fill="#fdb9a9"></path><path d="M268,205.4c5.14,12.7,5.78,26.82,10.37,39.73a1.6,1.6,0,0,0,.68,1,1.56,1.56,0,0,0,1,0l5.24-1c-4.47-13.72-2.53-28.88-6.87-42.64a1.94,1.94,0,0,0-.55-1,2,2,0,0,0-1.35-.3,37.74,37.74,0,0,0-7.43.56C266.9,202.2,267.26,203.47,268,205.4Z" transform="translate(-33.54 -13.87)" fill="#fdb9a9"></path><path d="M242.94,244.32a3.52,3.52,0,0,0,4.13-1,10.3,10.3,0,0,0,1.93-4.11l2.49-8.37c.76-2.56,1.53-5.13,2.12-7.74,1.53-6.76,1.89-13.72,2.24-20.63a3.91,3.91,0,0,0-.54-2.75c-1.17-1.45-6.84-3.16-8.63-2.26-2.44,1.22-1.19,7.14-1.19,9.42,0,8.09-.15,16.2-.85,24.27C244.53,232.44,242.49,244.06,242.94,244.32Z" transform="translate(-33.54 -13.87)" fill="#fdb9a9"></path><path d="M241.77,195.37a1.85,1.85,0,0,0,.22,1.26,2,2,0,0,0,1.41.55c5.71.76,10.34,5.47,16.06,6.06l1.71-8.44,1.1,5.19a3.42,3.42,0,0,0,.59,1.53,3.36,3.36,0,0,0,1.88.93,69,69,0,0,0,11.87,1.93c.94.07,2.09,0,2.51-.84a2.32,2.32,0,0,0,.12-1.33A69.36,69.36,0,0,0,274.76,184a2.68,2.68,0,0,0-.45-.83,3,3,0,0,0-1.79-.68c-7.17-1-13.49-5.07-20-8.21-5.52-2.65-6.77.42-8,5.2A88.21,88.21,0,0,0,241.77,195.37Z" transform="translate(-33.54 -13.87)" fill="#505365"></path><path d="M287.48,154.42a1.77,1.77,0,0,1-.51,1.08,11.27,11.27,0,0,1-6.25,3.81l-.5.07c-1.59.18-2.59-1.53-3.83-.08-1.69,2-1.24,6.32-1.38,8.75-.27,4.89-.24,9.82-1.24,14.63a1.8,1.8,0,0,1-.45,1,1.88,1.88,0,0,1-1.53.27c-1.4-.17-2.8-.39-4.19-.66a61.09,61.09,0,0,1-22.1-8.9c2.78-7.64,2.11-15.85,1.63-23.81-.14-2.4,0-4.86,0-7.27,0-1.14,0-2.27-.07-3.37-.19-3.05-4-5.72-6.18-7.47a1,1,0,0,1-.48-.67,1,1,0,0,1,.36-.75q3.59-4.1,7.42-8a1.08,1.08,0,0,1,1.86.07q2.18,2.11,4.3,4.27c1.08,1.1,2.09,2.79,3.66,2.92a7,7,0,0,1,2.93,1.32,15.33,15.33,0,0,0,8.43,2.18c2.38-.1,3.52,3,4.89,4.59,2.08,2.43,4.75,4,7.08,6.12a12.55,12.55,0,0,1,1.91,2.38c1.42,2.13,2.74,4.33,3.94,6.59A1.75,1.75,0,0,1,287.48,154.42Z" transform="translate(-33.54 -13.87)" fill="#4e3505"></path><path d="M262.38,137.92a6.75,6.75,0,0,0,3.34.15,6.13,6.13,0,0,0,2-1.25,4.15,4.15,0,0,0,1.51-1.92,5.72,5.72,0,0,0-.16-2.5,9,9,0,0,1,.69-5.14s-2.47.14-2.69.18a10.59,10.59,0,0,0-2.72,1,8.51,8.51,0,0,0-3.06,2.39,8.61,8.61,0,0,0-1,3.36C259.89,136.18,260.25,137.45,262.38,137.92Z" transform="translate(-33.54 -13.87)" fill="#fdb9a9"></path><path d="M260.3,133.07a1.83,1.83,0,0,0,0,1.45,1.24,1.24,0,0,0,1.32.51,3,3,0,0,0,1.3-.74,10.51,10.51,0,0,0,2-2.21,3.33,3.33,0,0,0,.73-2.12,18.59,18.59,0,0,0-4.22.31c-.61.21-.4.19-.49.86A14.68,14.68,0,0,1,260.3,133.07Z" transform="translate(-33.54 -13.87)" fill="url(#linear-gradient-4)"></path><path d="M257.48,125.38a5.85,5.85,0,0,0-.11,2.79c.6,2.29,3.29,3.38,5.65,3.37a11.57,11.57,0,0,0,10-6.09,5.48,5.48,0,0,0,.72-2.65,5.78,5.78,0,0,0-1-2.8c-1.7-2.75-5.72-6.84-9.25-4.67C260.41,117.21,258.23,122.07,257.48,125.38Z" transform="translate(-33.54 -13.87)" fill="#fdb9a9"></path><path d="M263.63,111.55a1.43,1.43,0,0,0-.65,0,1.18,1.18,0,0,0-.68.65c-.61,1.33.46,2.8,1.54,3.78a21.7,21.7,0,0,0,3.23,2.41,1.36,1.36,0,0,1,.5.42,2.11,2.11,0,0,1,.22.92,2.43,2.43,0,0,0,1.25,1.76c.32.16.7.27.87.58a1.24,1.24,0,0,1,.1.71,8.55,8.55,0,0,1-.83,3.14l1.42-.06a.65.65,0,0,1,.08.92.6.6,0,0,1-.08.08,3.49,3.49,0,0,1-1,.55c-.88.45-1.43,1.75-.69,2.39,1.78-.05,3.33-1.19,4.66-2.38a8.64,8.64,0,0,0,2.52-3.28,3.53,3.53,0,0,0-.78-3.85c-.43-.36-1-.61-1.21-1.12a3.3,3.3,0,0,1-.13-1.08,4.75,4.75,0,0,0-2.28-3.55,15.83,15.83,0,0,0-4.08-1.63A30.59,30.59,0,0,0,263.63,111.55Z" transform="translate(-33.54 -13.87)" fill="#505365"></path><path d="M245.33,229.16a.63.63,0,0,0-.3.1c-.36.3-.4,1.34-.47,1.76q-1.4,8.5-3.42,16.91a.58.58,0,0,0,0,.41.63.63,0,0,0,.38.21,13.48,13.48,0,0,0,2.82.45.53.53,0,0,0,.25,0,.46.46,0,0,0,.17-.17L247,246a8.08,8.08,0,0,0,.92-1.33,11,11,0,0,0,.63-1.77c.81-2.5,2.43-4.75,3-7.31a19.38,19.38,0,0,0,.21-5.84.29.29,0,0,0-.08-.23.41.41,0,0,0-.22,0,36.22,36.22,0,0,1-4.54-.2A7.73,7.73,0,0,0,245.33,229.16Z" transform="translate(-33.54 -13.87)" fill="#fefeff"></path><path d="M274.87,233.05q2.53,9.88,5.66,19.6a2.76,2.76,0,0,0,.59,1.17c.85.87,2.91-.26,3.79-.66a.56.56,0,0,0,.24-.16.45.45,0,0,0,.09-.25l.74-3.91a9.35,9.35,0,0,0,.23-1.82,13.18,13.18,0,0,0-.29-2.08c-.48-2.92,0-6-.74-8.87A14.86,14.86,0,0,0,284,233c-.35-.7-1-2.61-1.72-3s-2.13.36-2.86.56l-3.7,1.06a1,1,0,0,0-.94,1.06,1.06,1.06,0,0,0,.09.35Z" transform="translate(-33.54 -13.87)" fill="#fefeff"></path><path d="M246.37,247.12a.92.92,0,0,0-.59-.32,1.58,1.58,0,0,0-.82.37,3.41,3.41,0,0,1-3.13-.29,1.43,1.43,0,0,0-.73-.2,1.11,1.11,0,0,0-.52.23c-.88.63-1.48,1.57-2.29,2.28-1,.89-2.3,1.43-3.18,2.44a.73.73,0,0,0,.43,1.33c2.4.61,4.92.08,7.34-.46a9.92,9.92,0,0,0,2.39-.75,3,3,0,0,0,1.51-4A3.25,3.25,0,0,0,246.37,247.12Z" transform="translate(-33.54 -13.87)" fill="#505365"></path><path d="M286.35,251.3a.94.94,0,0,0-.58-.32,1.68,1.68,0,0,0-.82.38,3.41,3.41,0,0,1-3.13-.29,1.47,1.47,0,0,0-.74-.2,1.08,1.08,0,0,0-.51.23,29,29,0,0,0-2.29,2.28c-1,.89-2.3,1.43-3.18,2.44a.91.91,0,0,0-.29.85,1,1,0,0,0,.72.48c2.39.61,4.92.07,7.33-.47a9.67,9.67,0,0,0,2.4-.74,3,3,0,0,0,1.51-4A3.13,3.13,0,0,0,286.35,251.3Z" transform="translate(-33.54 -13.87)" fill="#505365"></path><path d="M152.33,144.35a5.82,5.82,0,0,0-1.58-4.53c-2.46-2.88-6.34-4.11-9.34-6.44a30.9,30.9,0,0,1-6-7l-3.41-4.9a12.79,12.79,0,0,1-2-3.75c-.43-1.52-.33-3.28-1.34-4.5a3,3,0,0,0-4.23-.35,3,3,0,0,0-1,1.65c-.39,1.83.94,3.52,2,5,2.86,4,4.58,8.6,6.25,13.19a13.21,13.21,0,0,0,1.64,3.43,13.77,13.77,0,0,0,2.15,2.1l9,7.54C146.8,147.74,151.7,148.34,152.33,144.35Z" transform="translate(-33.54 -13.87)" fill="#fdb9a9"></path><path d="M182.06,130.77a5.81,5.81,0,0,1,.19-4.79c1.5-3.48,4.85-5.79,7-8.9a30.68,30.68,0,0,0,3.69-8.51l1.8-5.63a12.63,12.63,0,0,0,.83-4.17c0-1.59-.65-3.24,0-4.7a3,3,0,0,1,5.37-.29c.91,1.63.14,3.64-.47,5.41-1.57,4.62-1.85,9.57-2.1,14.45a12.91,12.91,0,0,1-.56,3.75,12.72,12.72,0,0,1-1.43,2.64L190,129.9C188.35,132.39,183.84,134.4,182.06,130.77Z" transform="translate(-33.54 -13.87)" fill="#fdb9a9"></path><path d="M163.86,205.4c-5.14,12.7-5.79,26.82-10.38,39.73a1.6,1.6,0,0,1-.68,1,1.56,1.56,0,0,1-1,0l-5.24-1c4.47-13.72,2.53-28.88,6.87-42.64a1.53,1.53,0,0,1,1.71-1.34.58.58,0,0,1,.19,0,37.74,37.74,0,0,1,7.43.56C165,202.2,164.63,203.47,163.86,205.4Z" transform="translate(-33.54 -13.87)" fill="#fdb9a9"></path><path d="M189,244.32a3.52,3.52,0,0,1-4.13-1,10.3,10.3,0,0,1-1.93-4.11l-2.49-8.37c-.76-2.56-1.52-5.13-2.11-7.74-1.53-6.76-1.89-13.72-2.25-20.63a4,4,0,0,1,.54-2.75c1.17-1.45,6.84-3.16,8.64-2.26,2.43,1.22,1.19,7.14,1.18,9.42,0,8.09.15,16.2.85,24.27C187.36,232.44,189.41,244.06,189,244.32Z" transform="translate(-33.54 -13.87)" fill="#fdb9a9"></path><path d="M188.39,195.22c-.18,2-.43,3.91-.73,5.81a3.74,3.74,0,0,1-.74,2,3.61,3.61,0,0,1-1.43.86A49.38,49.38,0,0,1,173.6,207a60.06,60.06,0,0,1-2.46-9.62,16,16,0,0,0-3.83,8.49,2.51,2.51,0,0,1-.55,1.56,2.36,2.36,0,0,1-2,.29l-7.8-1.21c-1.62-.26-3.46-.66-4.25-2.1a5.46,5.46,0,0,1-.09-3.78l3.32-15a3.43,3.43,0,0,1,2.69-3.18c6.66-2.68,13.28-5.56,20-8,5.35-2,7.32-.35,8.75,5.06A46.19,46.19,0,0,1,188.39,195.22Z" transform="translate(-33.54 -13.87)" fill="#505365"></path><path d="M191.48,131.82a1.08,1.08,0,0,1-.49.67c-2.16,1.75-6,4.42-6.18,7.47-.06,1.1-.07,2.23-.06,3.37.09,8.57.48,17.6,2.33,26a13.8,13.8,0,0,1,.51,3.94c-.22,3.11-2.81,5.68-5.77,6.65a12.15,12.15,0,0,1-1.35.35,17.4,17.4,0,0,1-7.85-.61,10.89,10.89,0,0,0-3.92-.67c-1.65.15-3.07,1.15-4.51,2a23.08,23.08,0,0,1-6.35,2.42c-.74.16-1.74.15-2-.56a1.75,1.75,0,0,1,.13-1.15c1.43-4.22,1.15-9.23.9-13.63-.14-2.57.35-5.49-.9-7.84a18.26,18.26,0,0,1-1.77-3.1,11.4,11.4,0,0,0-1.67-3.91c-1.7-2.06-4.68-2.38-7-3.63a3,3,0,0,1-1.39-1.29,3.43,3.43,0,0,1-.16-1.49c.08-2.34.21-4.81,1.45-6.8a13.67,13.67,0,0,1,3.16-3.19,2.25,2.25,0,0,1,.94-.53,2.37,2.37,0,0,1,1.12.15,15.38,15.38,0,0,0,6.22.47c2.09-.28,2.13-1,3.54-2.13,1.56-1.26,3.47-.77,5.34-1.1a15.47,15.47,0,0,0,5.24-2,6.92,6.92,0,0,1,2.92-1.32c1.57-.13,2.58-1.82,3.67-2.92,1.41-1.44,2.85-2.86,4.3-4.27a1.07,1.07,0,0,1,1.85-.07c1.71,1.71,3.37,3.46,5,5.25.81.89,1.62,1.79,2.42,2.7A1.17,1.17,0,0,1,191.48,131.82Z" transform="translate(-33.54 -13.87)" fill="#4e3505"></path><path d="M169.51,137.92a6.72,6.72,0,0,1-3.33.15,6.13,6.13,0,0,1-2-1.25,4.11,4.11,0,0,1-1.52-1.92,5.86,5.86,0,0,1,.16-2.5,8.83,8.83,0,0,0-.69-5.14s2.47.14,2.69.18a10.59,10.59,0,0,1,2.72,1,8.63,8.63,0,0,1,3.07,2.39,9,9,0,0,1,1,3.36C172,136.18,171.64,137.45,169.51,137.92Z" transform="translate(-33.54 -13.87)" fill="#fdb9a9"></path><path d="M168,133.05a4.72,4.72,0,0,0,2.06,1.55.61.61,0,0,0,.42,0,.44.44,0,0,0,.17-.16,3.92,3.92,0,0,0,.74-2.34,7.51,7.51,0,0,0-.44-2.44c-.63.19-1.26.36-1.9.5a6.38,6.38,0,0,0-1.88.35C166.33,131.11,167.54,132.48,168,133.05Z" transform="translate(-33.54 -13.87)" fill="url(#linear-gradient-5)"></path><path d="M174.42,125.38a5.86,5.86,0,0,1,.1,2.79c-.6,2.29-3.29,3.38-5.65,3.37a11.53,11.53,0,0,1-10-6.09,5.39,5.39,0,0,1-.73-2.65,5.88,5.88,0,0,1,1-2.8c1.71-2.75,5.73-6.84,9.26-4.67C171.48,117.21,173.66,122.07,174.42,125.38Z" transform="translate(-33.54 -13.87)" fill="#fdb9a9"></path><path d="M167.34,112.26c.14.19.28.39.4.59a3.52,3.52,0,0,1,.6,1.68c.07,1.84-2.2,3.06-3.52,3.86a1.36,1.36,0,0,0-.5.42,2.1,2.1,0,0,0-.21.92,2.44,2.44,0,0,1-1.26,1.76c-.32.16-.7.27-.87.58a1.24,1.24,0,0,0-.1.71,8.55,8.55,0,0,0,.83,3.14l-1.42-.06c-.32.2-.25.71,0,1a3.49,3.49,0,0,0,1,.55c.87.45,1.42,1.75.69,2.39-1.68-.05-2.72-1-4-1.86a8.62,8.62,0,0,0-1.68-.66c-.09,0-2-.59-1.9-.2a9.42,9.42,0,0,0-.69-1.6l-2,.45A16.49,16.49,0,0,1,154.4,122l-.56-.33,2.57-2.32a.56.56,0,0,0,.21-.33.6.6,0,0,0-.16-.33,5.46,5.46,0,0,1-.78-1.34.42.42,0,0,1,0-.27.41.41,0,0,1,.2-.14l1.08-.39a19.17,19.17,0,0,1-1.59-2.83,10.9,10.9,0,0,0,5.22-.54l-.82-.76a12.72,12.72,0,0,1,2.91-.82l-1.16-1.51a4.76,4.76,0,0,1,3.59.29A6.32,6.32,0,0,1,167.34,112.26Z" transform="translate(-33.54 -13.87)" fill="#505365"></path><path d="M186.56,229.16a.63.63,0,0,1,.3.1c.37.3.4,1.34.47,1.76q1.41,8.5,3.42,16.91a.49.49,0,0,1,0,.41.63.63,0,0,1-.37.21,13.48,13.48,0,0,1-2.82.45.53.53,0,0,1-.25,0,.49.49,0,0,1-.18-.17l-2.2-2.83a8.08,8.08,0,0,1-.92-1.33,13.79,13.79,0,0,1-.63-1.77c-.81-2.5-2.42-4.75-3-7.31a19.72,19.72,0,0,1-.21-5.84.32.32,0,0,1,.09-.23.37.37,0,0,1,.21,0,36.22,36.22,0,0,0,4.54-.2A7.35,7.35,0,0,1,186.56,229.16Z" transform="translate(-33.54 -13.87)" fill="#fefeff"></path><path d="M157,233.05q-2.53,9.88-5.65,19.6a2.9,2.9,0,0,1-.6,1.17c-.85.87-2.9-.26-3.79-.66a.56.56,0,0,1-.24-.16.58.58,0,0,1-.09-.25l-.74-3.91a9.35,9.35,0,0,1-.23-1.82,14.66,14.66,0,0,1,.29-2.08c.48-2.92,0-6,.74-8.87a15.13,15.13,0,0,1,1.18-3.06c.35-.7,1-2.61,1.72-3s2.13.36,2.86.56l3.7,1.06a1.26,1.26,0,0,1,.88.57A1.24,1.24,0,0,1,157,233.05Z" transform="translate(-33.54 -13.87)" fill="#fefeff"></path><path d="M185.53,247.12a.83.83,0,0,1,.58-.32,1.58,1.58,0,0,1,.82.37,3.41,3.41,0,0,0,3.13-.29,1.47,1.47,0,0,1,.74-.2,1.08,1.08,0,0,1,.51.23c.88.63,1.48,1.57,2.29,2.28,1,.89,2.3,1.43,3.18,2.44a.92.92,0,0,1,.29.86,1,1,0,0,1-.72.47c-2.4.61-4.92.08-7.33-.46a10.13,10.13,0,0,1-2.4-.75,3,3,0,0,1-1.5-4A3.18,3.18,0,0,1,185.53,247.12Z" transform="translate(-33.54 -13.87)" fill="#505365"></path><path d="M145.54,251.3a.92.92,0,0,1,.59-.32,1.72,1.72,0,0,1,.82.38,3.41,3.41,0,0,0,3.13-.29,1.43,1.43,0,0,1,.73-.2,1.08,1.08,0,0,1,.51.23,27.37,27.37,0,0,1,2.29,2.28c1,.89,2.3,1.43,3.18,2.44a.91.91,0,0,1,.29.85c-.1.28-.42.4-.71.48-2.4.61-4.93.07-7.34-.47a9.67,9.67,0,0,1-2.4-.74,3,3,0,0,1-1.51-4A3.13,3.13,0,0,1,145.54,251.3Z" transform="translate(-33.54 -13.87)" fill="#505365"></path><path d="M234.27,88.42a3,3,0,0,0-2.34-1.09l-4.16.56V82.23c-.67-2-7.1-2-12.21-2-1.22,0-2.53,0-3.82.08a25.38,25.38,0,0,0-7.35,1.06c-.59.24-1,.53-1,.88v5.64l-1.17-.16-2.74-.37h-.14A3,3,0,0,0,197,88.42a3,3,0,0,0-.68,2.48c.48,2.81,1.66,6.52,4.53,8.28a6.66,6.66,0,0,0,3.53,1,9.1,9.1,0,0,0,1.28-.13c.7-.1,1.4-.24,2.09-.41a11.43,11.43,0,0,0,6.34,4.51v2.76c0,1.07-2.73,1.88-3.49,2.45a2.08,2.08,0,0,0-1,1.3,1.7,1.7,0,0,0,.82,1.49,4.47,4.47,0,0,0,1.82.71c.36.07.72.12,1.08.16a16.09,16.09,0,0,0,7.29-.64,2.18,2.18,0,0,0,1.45-1.23,1.57,1.57,0,0,0-.52-1.55,4.94,4.94,0,0,0-1.47-.86c-.73-.31-2.64-.76-2.64-1.83V104a11.91,11.91,0,0,0,6-4.47,16.09,16.09,0,0,0,3.44.59,6.66,6.66,0,0,0,3.53-1c2.87-1.76,4-5.47,4.53-8.28A3,3,0,0,0,234.27,88.42ZM204.69,98a5.39,5.39,0,0,1-2.82-.54c-2.35-1.43-3.26-4.94-3.6-6.91a1,1,0,0,1,.23-.85,1,1,0,0,1,.77-.38l3,.41,1.26.17a21.8,21.8,0,0,0,2.95,7.9A12,12,0,0,1,204.69,98Zm24.69-.54a7.25,7.25,0,0,1-4.73.31,21.72,21.72,0,0,0,2.94-7.85l4.4-.6a1.08,1.08,0,0,1,.76.38,1,1,0,0,1,.23.85c-.34,2-1.25,5.45-3.6,6.92Z" transform="translate(-33.54 -13.87)" fill="#4e3505"></path><path d="M215.91,108.18a3.11,3.11,0,0,1-.25,1.2,3.78,3.78,0,0,1-.87,1l-2.53,2.4a4.47,4.47,0,0,1-1.82-.71,1.7,1.7,0,0,1-.82-1.49,2.08,2.08,0,0,1,1-1.3c.76-.57,3.49-1.38,3.49-2.45v-2.76a11.43,11.43,0,0,1-6.34-4.51c-.69.17-1.39.31-2.09.41-.35-.65-.66-1.32-1-2a12.22,12.22,0,0,0,1.81-.2,21.8,21.8,0,0,1-2.95-7.9l-1.26-.17a16.64,16.64,0,0,1-.09-2l1.17.16v-5a8,8,0,0,1,1-1.56,25.38,25.38,0,0,1,7.35-1.06c.44,1.31-.14,3.22-.3,4.38a22.71,22.71,0,0,0,.38,8.73C213.11,98.39,216.25,103,215.91,108.18Z" transform="translate(-33.54 -13.87)" fill="#fff" opacity="0.42" style="isolation: isolate;"></path><path d="M227.41,82.22c0,.34-.71.64-1.94.9a66.3,66.3,0,0,1-19.79,0c-1.23-.26-1.94-.56-1.94-.9s.71-.64,1.94-.9a67.66,67.66,0,0,1,19.79,0C226.7,81.58,227.41,81.89,227.41,82.22Z" transform="translate(-33.54 -13.87)" fill="url(#linear-gradient-6)"></path><polygon points="180.41 75.46 184.25 73.07 184.25 82.79 185.45 82.79 185.45 84.14 179.96 84.14 179.96 82.79 182.28 82.79 182.28 75.19 180.41 75.46" fill="#fff"></polygon><polygon points="177.09 81.64 176.42 81.64 177.91 76.83 178.59 76.83 177.09 81.64" fill="#fff"></polygon><polygon points="178.86 81.64 178.19 81.64 179.68 76.83 180.36 76.83 178.86 81.64" fill="#fff"></polygon><rect x="176.11" y="78.07" width="4.65" height="0.4" fill="#fff"></rect><rect x="176.11" y="79.4" width="4.65" height="0.4" fill="#fff"></rect><path d="M206.5,97.81a12.22,12.22,0,0,1-1.81.2,5.39,5.39,0,0,1-2.82-.54c-2.35-1.43-3.26-4.94-3.6-6.91a1,1,0,0,1,.23-.85,1,1,0,0,1,.77-.38l3,.41,1.26.17A22,22,0,0,0,206.5,97.81Z" transform="translate(-33.54 -13.87)" fill="none"></path><path d="M280.72,159.31l-.5.07c-1.59.18-2.59-1.53-3.83-.08-1.69,2-1.24,6.32-1.38,8.75-.27,4.89-.24,9.82-1.24,14.63a1.8,1.8,0,0,1-.45,1,1.88,1.88,0,0,1-1.53.27c-1.4-.17-2.8-.39-4.19-.66a24.48,24.48,0,0,1,2.24-5.84,18.21,18.21,0,0,0,1.88-3.9,13.83,13.83,0,0,0,.33-2.22,78.61,78.61,0,0,0,.53-10.74,53.57,53.57,0,0,1-.17-5.94c0-.3.1-.66.39-.76a.84.84,0,0,1,.58.12,44.45,44.45,0,0,1,4,2.23c1,.6,2.71,1.36,3.18,2.48A1.79,1.79,0,0,1,280.72,159.31Z" transform="translate(-33.54 -13.87)" fill="url(#linear-gradient-7)"></path><path d="M191.48,131.82a1.08,1.08,0,0,1-.49.67c-2.16,1.75-6,4.42-6.18,7.47-.06,1.1-.07,2.23-.06,3.37.09,8.57.48,17.6,2.33,26a13.8,13.8,0,0,1,.51,3.94c-.22,3.11-2.81,5.68-5.77,6.65a12.15,12.15,0,0,1-1.35.35,28.16,28.16,0,0,0,.81-15.75c-.94-3.91-2.74-7.74-2.42-11.74.25-3.13,1.79-6.21,1.14-9.28a5.4,5.4,0,0,1-.29-2.36,4.28,4.28,0,0,1,1.51-2,23.33,23.33,0,0,0,4.37-5.33c.86-1.44,1.38-4.11,2.67-5.19a2.69,2.69,0,0,1,.44-.31c.81.89,1.62,1.79,2.42,2.7A1.17,1.17,0,0,1,191.48,131.82Z" transform="translate(-33.54 -13.87)" fill="url(#linear-gradient-8)"></path><path d="M109.08,171.52c-.76,2.41-.22,5.53,2.25,6.46,1.32.51,2.67-.57,3.68-1.56a28.8,28.8,0,0,0,5.5-6.65c1-1.88,1.56-4,2.46-5.9a19.81,19.81,0,0,1,2.53-4.54c1-1.14,2.24-2.35,2.56-3.89a7.58,7.58,0,0,1,.38-1.94c.44-.85,1.54-1.31,1.73-2.25a1.7,1.7,0,0,0-1.37-1.8,3.36,3.36,0,0,0-2.38.55,9.19,9.19,0,0,0-3.3,3.34c-.7,1.48-.76,3.19-1.51,4.66a17.11,17.11,0,0,1-3.49,4c-1.32,1.33-2.48,2.76-3.89,4s-3.18,2.29-4.32,3.81A5.77,5.77,0,0,0,109.08,171.52Z" transform="translate(-33.54 -13.87)" fill="#fdb9a9"></path><path d="M118,130.34a.61.61,0,0,0-.2.19.45.45,0,0,0,0,.28,12.06,12.06,0,0,0,1.23,5.5,9.16,9.16,0,0,0-1.13-.93.76.76,0,0,0-.52-.17c-.33.07-.4.51-.37.84a2,2,0,0,0,1.09,1.8,1.75,1.75,0,0,0,.07,1.59,2.57,2.57,0,0,1,.34,1.58.78.78,0,0,1-.57-.29,22.79,22.79,0,0,1-3.52-5.62,16.51,16.51,0,0,1-1.11-2.72A12.18,12.18,0,0,1,113,129a6.41,6.41,0,0,1,.15-1.38,7,7,0,0,1,.86-1.78,5.73,5.73,0,0,1,1.22-1.55,4.7,4.7,0,0,1,2.62-.82,16.71,16.71,0,0,1,3.24.05c1.27.14,3.85.73,4,2.35.08.65-1.15,1.18-1.64,1.49a27.84,27.84,0,0,1-2.57,1.41A26.85,26.85,0,0,0,118,130.34Z" transform="translate(-33.54 -13.87)" fill="#505365"></path><g opacity="0.51"><path d="M267.46,83.55a9.16,9.16,0,0,0,3.24.94,55.35,55.35,0,0,0-.09-5.76,7,7,0,0,0-.22-1.43c-.48-1.6-2.13-3.44-3.11-1.34C266.44,77.77,267.45,81.56,267.46,83.55Z" transform="translate(-33.54 -13.87)" fill="#4e3505"></path><path d="M249.56,63.81a37.32,37.32,0,0,1-5.82,2.4,1.55,1.55,0,0,0,1,1.85,3.21,3.21,0,0,0,2.28-.19,7.38,7.38,0,0,0,1.86-1.09,1.08,1.08,0,0,0,.45-.56,1.25,1.25,0,0,0-.14-.78l-1-2.46" transform="translate(-33.54 -13.87)" fill="#4e3505"></path><path d="M252,75.66l-3.48,2.2c-.19.12-.41.31-.34.52s.17.2.28.26l1.53.82,2.22-2a2,2,0,0,0,.66-.88,1,1,0,0,0-.77-1.19h0" transform="translate(-33.54 -13.87)" fill="#4e3505"></path><path d="M192,70.15a6.83,6.83,0,0,0,3.19,3.49,4.05,4.05,0,0,1-1.31,1.45.76.76,0,0,1-.52.17.75.75,0,0,1-.37-.2,18.7,18.7,0,0,1-2.2-2.16.66.66,0,0,1-.19-.37c0-.2.18-.34.34-.46a4.33,4.33,0,0,0,1.37-1.77" transform="translate(-33.54 -13.87)" fill="#4e3505"></path><path d="M177.23,83.21A23,23,0,0,1,180.34,82a27.58,27.58,0,0,1,1.2,3,1.14,1.14,0,0,1,.06.45c-.06.34-.46.49-.79.58l-3.76,1a1.16,1.16,0,0,1-.82,0,1,1,0,0,1-.37-.42,2.64,2.64,0,0,1,1.19-3.42" transform="translate(-33.54 -13.87)" fill="#4e3505"></path><path d="M160.72,74.1l3.62.38c.5.61-.11,1.59-.87,1.79a5.79,5.79,0,0,1-2.34-.18,5.68,5.68,0,0,1-1.23-.23,1.15,1.15,0,0,1-.77-.9c0-.42.39-.85.78-.7" transform="translate(-33.54 -13.87)" fill="#4e3505"></path><path d="M211,47.6c-1.11.28-2.22.57-3.33.88l.9,1.38a4.33,4.33,0,0,1,2.42-.45l.08-1.68" transform="translate(-33.54 -13.87)" fill="#4e3505"></path><path d="M220.65,57.29a6.85,6.85,0,0,1-1.79,2,6.44,6.44,0,0,0,2.58,2.1l.78-1.18a.56.56,0,0,0,.13-.35c0-.21-.22-.34-.4-.45a3.23,3.23,0,0,1-1.39-1.81" transform="translate(-33.54 -13.87)" fill="#4e3505"></path><path d="M253.93,35.79l2.35,4.35a2.72,2.72,0,0,0,.78,1,1,1,0,0,0,1.19,0,1.36,1.36,0,0,0,.26-.7,5.07,5.07,0,0,0-.92-4.14c-1-1.07-3-1.17-3.75.11" transform="translate(-33.54 -13.87)" fill="#4e3505"></path><path d="M270.94,56.61a1.35,1.35,0,0,0,0,1.56,1.38,1.38,0,0,0,2.36-.79,1.35,1.35,0,0,0-1.55-1.11,1.31,1.31,0,0,0-.83.48" transform="translate(-33.54 -13.87)" fill="#4e3505"></path><path d="M287.54,71.92a55.51,55.51,0,0,0-7.52,0,4.75,4.75,0,0,0,2.5,2l3.43-2.2" transform="translate(-33.54 -13.87)" fill="#4e3505"></path><path d="M287,84.22a24.14,24.14,0,0,0-7.92,2.7,7.1,7.1,0,0,1,2.12,1.69,12.27,12.27,0,0,1,3.92-1.23,1.73,1.73,0,0,0,1.09-.39,1.45,1.45,0,0,0,.1-1.45,5.27,5.27,0,0,0-1.85-2.49" transform="translate(-33.54 -13.87)" fill="#4e3505"></path><path d="M252.59,103.38l2.34.92a2.75,2.75,0,0,1-2.83,1.26,8.18,8.18,0,0,0-.64-1.92l2.56.25" transform="translate(-33.54 -13.87)" fill="#4e3505"></path><path d="M202.49,116a14.06,14.06,0,0,1-1.22,2,2,2,0,0,0-.11,2.2,1.57,1.57,0,0,0,2,.22,2.65,2.65,0,0,0,1.06-1.89c.19-1.43-.91-3.19-2.31-2.85" transform="translate(-33.54 -13.87)" fill="#4e3505"></path><path d="M226.22,124.66a9.18,9.18,0,0,0,4.64,3,7.73,7.73,0,0,1-4.07,1.72,14.19,14.19,0,0,0-2.88-3.16,2.17,2.17,0,0,0-.83-.45c-1.12-.22-1.84,1.31-3,1.5a14.42,14.42,0,0,1-.67-3.1c-.06-.6.18-1.45.77-1.34.41.07.6.62,1,.74s.81-.26,1.2-.48a1.82,1.82,0,0,1,2.54,1.88l-.49-.2" transform="translate(-33.54 -13.87)" fill="#4e3505"></path><path d="M171.52,104.17l-2,.29a5.58,5.58,0,0,0,.81,2.78,3,3,0,0,1,2.65-1.15c.74.17,1.46.38,2.18.62a1.87,1.87,0,0,0,2-.63,1.67,1.67,0,0,0-.95-2.16l-.05,0a6.17,6.17,0,0,0-2.7-.18,3.47,3.47,0,0,1-2.57-.65" transform="translate(-33.54 -13.87)" fill="#4e3505"></path><path d="M143.08,107.55a39.58,39.58,0,0,0,3.63-5l1.75,1.77a.53.53,0,0,1,.18.28c0,.27-.29.42-.55.51a5,5,0,0,0-3.36,4.6,5.71,5.71,0,0,1-3-3" transform="translate(-33.54 -13.87)" fill="#4e3505"></path><path d="M165.51,87a4.49,4.49,0,0,0,.55,1.89,1.59,1.59,0,0,0,1.67.77c.83-.23,1.12-1.24,1.21-2.09a23.12,23.12,0,0,1-3.88.48" transform="translate(-33.54 -13.87)" fill="#4e3505"></path><path d="M151.25,91.22l-1.41,1,2.22,1.52a1.73,1.73,0,0,0,.87.36c.86,0,1.14-1.34.54-2a3.41,3.41,0,0,0-2.44-.71" transform="translate(-33.54 -13.87)" fill="#4e3505"></path><path d="M215.44,120.23a1.31,1.31,0,0,0-1.17.29,3,3,0,0,0,2.27.83,1.15,1.15,0,0,0-.43-1.36,3.27,3.27,0,0,0-1.45-.5l1.35.45" transform="translate(-33.54 -13.87)" fill="#4e3505"></path><path d="M234.76,114.72a3.55,3.55,0,0,0-2.2-.83c-.8.08-1.51,1-1.06,1.69a1.16,1.16,0,0,0,1.47.26,2.79,2.79,0,0,0,1.07-1.21" transform="translate(-33.54 -13.87)" fill="#4e3505"></path><path d="M257.49,108.65a1.61,1.61,0,0,0,1.37,1.76,1.53,1.53,0,0,0,0-1.76" transform="translate(-33.54 -13.87)" fill="#4e3505"></path><path d="M288.7,113.36,286,112c-.5,1.61,2.6,2.33,2.6,4a2,2,0,0,0-.06-2.83l-.2-.17" transform="translate(-33.54 -13.87)" fill="#4e3505"></path><path d="M140.84,144.25a1.72,1.72,0,0,0-1.48,1.45,4.35,4.35,0,0,0,1.93.19,1.32,1.32,0,1,0-.22-2.63H141a4.37,4.37,0,0,0-2.12.78" transform="translate(-33.54 -13.87)" fill="#4e3505"></path><path d="M107.87,141.64a14.19,14.19,0,0,0-3.42-3,1.58,1.58,0,0,0-.58,1.37,4.16,4.16,0,0,1,3.36,2.14,1.82,1.82,0,0,0,1.18-1.34" transform="translate(-33.54 -13.87)" fill="#4e3505"></path></g></svg>