<svg width="158" height="159" viewBox="0 0 158 159" fill="none" xmlns="http://www.w3.org/2000/svg">
<path d="M156.93 149.593C156.405 146.527 155.866 143.358 155.206 140.259C148.891 110.63 142.643 86.4798 135.541 64.255C134.8 61.9361 134.044 59.6219 133.288 57.3076C131.952 53.2147 130.57 48.9833 129.298 44.7978C128.329 41.6093 127.488 40.5973 124.12 40.4588C122.847 40.4057 121.56 40.4418 120.317 40.4726C119.444 40.4956 118.569 40.5206 117.698 40.5127C117.148 40.4951 116.6 40.4407 116.058 40.3499L115.842 40.3191C115.762 39.5834 115.681 38.8672 115.602 38.1655C115.396 36.3403 115.201 34.616 115.066 32.8898C114.412 24.196 110.978 15.9434 105.273 9.35039C99.4451 2.48645 91.655 -0.47292 82.1138 0.555561C74.9906 1.32347 68.7429 4.3235 63.0534 7.45095C55.1484 11.7953 50.193 18.5352 47.905 28.0567C47.3867 30.5217 47.0743 33.0254 46.9711 35.5421C46.9055 36.52 46.8365 37.4973 46.7446 38.4687C46.6311 39.6711 46.5668 40.8769 46.4992 42.1542C46.4776 42.5552 46.4558 42.9647 46.4335 43.3848L45.688 43.3781C44.7862 43.3689 43.9335 43.3619 43.0934 43.396C41.8037 43.4492 40.5141 43.5153 39.225 43.5822C37.5186 43.6715 35.7524 43.7626 34.019 43.8171C33.0319 43.7747 32.0616 44.0825 31.2791 44.6857C30.4967 45.2888 29.9524 46.1489 29.7423 47.1142C28.7978 50.3093 27.829 53.4984 26.8603 56.6869C25.2247 62.0688 23.534 67.6311 21.9922 73.1411C18.5209 85.5458 15.083 98.1856 11.758 110.407C10.6491 114.482 9.53947 118.557 8.42894 122.632C7.62165 125.593 6.82183 128.556 6.0294 131.521C5.08646 135.034 4.13633 138.546 3.17895 142.056C2.85997 143.216 2.49504 144.392 2.14325 145.529C1.67987 147.021 1.2014 148.564 0.813507 150.112C-0.0397342 153.508 0.802342 155.24 3.91076 156.503C5.53288 157.167 7.26361 157.524 9.01577 157.558C12.157 157.585 15.3415 157.524 18.423 157.468C20.9716 157.421 23.6081 157.374 26.1954 157.373C30.0573 157.369 33.9691 157.415 37.7601 157.459C41.091 157.497 44.4226 157.535 47.7535 157.543C55.1977 157.563 62.6419 157.572 70.0858 157.572C80.1035 157.578 90.4624 157.584 100.651 157.627C102.481 157.635 104.273 157.639 106.027 157.639C124.362 157.639 138.886 157.213 152.542 156.288C154.518 156.157 155.778 155.66 156.507 154.734C157.236 153.807 157.426 152.463 157.09 150.511L156.93 149.593ZM54.1101 43.1695C54.2302 41.9631 54.328 40.796 54.4238 39.6599C54.6017 36.9029 54.933 34.1581 55.4162 31.4381C56.9652 23.6362 60.7798 17.8009 67.0771 13.5997C72.9133 9.7056 78.3418 7.86182 84.0336 7.86182C84.5364 7.86182 85.0424 7.876 85.5504 7.90442C90.6213 8.19189 94.5849 10.136 97.3317 13.6749C103.187 21.2268 106.31 30.1005 106.869 40.7864C95.6521 41.5267 84.6847 41.9473 73.0879 42.391C66.8973 42.6273 60.5055 42.8728 54.1101 43.1695ZM42.8001 69.9092C43.5149 71.4871 44.7326 72.784 46.2627 73.5959C47.7927 74.4078 49.5489 74.69 51.2564 74.3979C54.4724 73.9162 57.4915 70.9279 58.1295 67.593C58.7044 64.6021 57.2533 62.4231 53.1361 60.1403L53.904 50.2526L107.133 49.2569V59.6981C104.952 62.2473 103.96 64.4546 104.102 66.4385C104.215 68.0275 105.026 69.4505 106.58 70.7874C107.468 71.5514 108.499 72.131 109.612 72.4939C110.725 72.8569 111.899 72.9947 113.066 72.9008C113.986 72.8477 114.885 72.6114 115.712 72.2058C116.539 71.8002 117.276 71.2331 117.881 70.538C118.443 69.9112 118.872 69.1761 119.141 68.378C119.41 67.5799 119.513 66.7352 119.443 65.8957C119.246 63.7647 117.875 61.5638 115.476 59.5141V49.322H123.134C128.844 64.7807 148.496 136.836 148.568 148.464C121.297 149.238 93.5197 149.071 66.6492 148.911C55.3394 148.846 43.8004 148.775 32.2153 148.775C24.609 148.775 16.9824 148.805 9.38726 148.884C11.5821 140.897 13.8471 132.819 16.0406 124.998C22.9111 100.498 30.0133 75.1711 35.7589 49.7534C36.1645 49.7744 36.5671 49.796 36.9666 49.8187C38.3048 49.8923 39.569 49.9619 40.8639 49.9934C42.1589 50.0249 43.4755 50.017 44.8722 50.0104C45.3316 50.0104 45.8113 50.0053 46.3069 50.004L46.7664 59.9724C43.5569 62.4265 40.7235 65.2455 42.8001 69.9092Z" fill="#93aacd"/>
</svg>
