<svg width="183" height="141" viewBox="0 0 183 141" fill="none" xmlns="http://www.w3.org/2000/svg">
<g clip-path="url(#clip0_676_506)">
<path d="M182.164 88.5399C182.126 85.1611 182.087 81.6718 181.991 78.2385C181.954 76.9493 181.926 75.6582 181.901 74.3671C181.816 70.1586 181.726 65.8077 181.273 61.5541C180.822 57.3189 180.196 53.0369 179.593 48.896C178.968 44.6075 178.321 40.1792 177.869 35.8076C176.799 25.4762 169.317 14.8092 155.364 15.7631C150.499 15.9943 145.624 15.9179 140.768 15.5343C138.273 15.3901 135.692 15.241 133.153 15.1793C131.466 15.1383 130.301 14.4165 129.13 12.6881C127.666 10.5302 126.112 8.38815 124.609 6.31667C123.988 5.45984 123.368 4.60237 122.75 3.74424C121.093 1.4343 118.856 0.47305 115.527 0.61405C104.565 1.08968 94.6673 1.38937 85.2681 1.52842C80.4822 1.6038 75.599 1.2841 71.0318 0.933222C65.7371 0.532316 61.6823 2.29114 58.2994 6.48736C56.1695 8.99224 53.8594 11.3378 51.3876 13.5051C50.5641 14.2634 49.7419 15.0201 48.9346 15.7894C48.4867 16.1595 47.9885 16.4641 47.455 16.694L47.1954 16.824L47.0657 16.3691C46.8535 15.614 46.6763 14.9786 46.4816 14.3484C44.8158 8.87535 41.8618 6.72643 36.3634 6.88108C32.5704 6.99803 28.8397 7.33085 25.3731 7.67392C23.6711 7.77074 22.0423 8.4003 20.7169 9.47385C19.3915 10.5473 18.4363 12.0107 17.9862 13.657C17.5412 15.2361 17.198 16.8421 16.9589 18.4652C16.8492 19.1072 16.7383 19.7615 16.6124 20.4288L16.288 20.5589C15.7039 20.7909 15.0433 21.054 14.3956 21.3756C8.39231 24.36 4.86733 27.919 3.29885 32.5759C2.15283 35.9839 1.91788 39.7232 1.83352 43.2606C1.43182 60.1046 1.12359 77.2326 0.82573 93.7959L0.599888 106.271C0.379898 118.241 3.76867 126.869 11.2658 133.435C13.9913 135.818 16.4488 137.606 19.6007 138.577C25.4412 140.379 31.3536 140.668 37.1499 140.668C38.5237 140.668 39.891 140.651 41.2505 140.635C72.4997 140.264 99.8426 139.885 124.841 139.474C136.467 139.279 146.923 138.947 156.803 138.449C160.293 138.269 163.737 137.577 167.027 136.396C175.917 133.178 183.79 120.032 182.926 109.856C182.324 102.782 182.243 95.5425 182.164 88.5399ZM10.9154 39.2782C10.8557 33.9325 12.0705 30.766 18.8746 28.2968C22.9499 26.8167 27.4924 26.2827 31.8857 25.7707C33.1524 25.6219 34.4166 25.4736 35.6703 25.304C37.8501 25.0096 40.0987 24.8604 42.2733 24.7155C44.3453 24.5777 46.4875 24.4353 48.5881 24.1675C49.5686 24.0428 52.0333 23.5913 53.7445 22.1066C57.4453 18.9004 60.9759 15.5027 64.3222 11.9273C66.1446 9.97794 67.8098 9.17307 70.0512 9.17307H70.1375C80.7957 9.26989 90.7088 9.27171 100.443 9.17879C105.199 9.13396 109.89 8.78899 113.446 8.49855C114.321 8.37561 115.212 8.51005 116.012 8.88562C116.812 9.26112 117.485 9.86144 117.95 10.6135C120.389 14.1034 122.359 16.9742 124.152 19.6493C124.853 20.7803 125.83 21.7143 126.99 22.3639C128.151 23.0135 129.457 23.3573 130.787 23.3633C134.041 23.475 137.293 23.6108 140.546 23.7472C145.522 23.9551 150.67 24.1701 155.732 24.2891C163.436 24.469 167.833 28.0202 168.802 34.8427C169.22 37.7823 169.674 40.7655 170.113 43.6505C172.082 56.5809 174.118 69.9487 173.432 83.3703C173.087 90.1195 173.34 96.9967 173.584 103.649C173.677 106.191 173.773 108.821 173.834 111.401C174.018 119.129 168.902 126.822 162.428 128.55C159.242 129.303 155.979 129.679 152.706 129.668C139.389 129.951 126.027 130.088 113.104 130.221C108.68 130.266 104.182 130.253 99.8309 130.243C97.8205 130.238 95.8094 130.234 93.799 130.232C93.7108 130.232 93.6238 130.249 93.5427 130.282C93.4616 130.316 93.3876 130.365 93.326 130.427C93.3117 130.44 93.2987 130.455 93.2864 130.47C88.7588 130.522 84.2311 130.575 79.7035 130.631C66.4289 130.791 52.7023 130.956 39.2018 131.052C35.5666 131.035 31.9352 130.818 28.3238 130.402C20.2692 129.549 12.8791 122.529 11.8511 114.751C11.0942 108.493 10.6724 102.199 10.5877 95.8959C10.4144 88.5932 10.4819 81.1566 10.5474 73.9656L10.5773 70.6063C10.6091 66.8103 10.6785 62.949 10.746 59.2148C10.868 52.682 10.99 45.9253 10.9154 39.2782ZM23.9149 18.906C24.2166 15.5272 24.8947 14.9272 27.9895 14.6237C29.7916 14.4476 31.6411 14.3531 33.4296 14.2602C34.0292 14.2294 34.6285 14.1973 35.2278 14.1643C35.7028 14.1377 36.1136 14.1183 36.4705 14.1183C38.3394 14.1183 38.7346 14.6648 39.0662 17.6394L23.9149 18.906Z" fill="#100b01"/>
<path d="M72.0235 102.653C77.3765 105.001 83.1839 106.129 89.0256 105.954C89.6745 105.986 90.3254 106.001 90.9783 106.001C99.2593 106.001 107.542 103.453 116.228 98.2403C118.451 96.8459 120.425 95.089 122.068 93.0422C127.02 87.0897 129.589 79.5868 129.92 70.1053C130.335 60.9132 127.575 51.8588 122.105 44.4653C119.332 40.7899 115.858 37.7014 111.886 35.3787C107.913 33.0559 103.52 31.545 98.9602 30.9331C93.3034 30.1053 87.0437 31.2925 81.668 32.5667C66.6555 36.1249 57.6087 44.9889 54.7781 58.9134C53.8767 63.3436 52.987 68.5537 53.2245 73.6043C53.8884 87.6368 60.213 97.4106 72.0235 102.653ZM119.692 70.5608L119.776 70.5771C119.548 71.5998 119.346 72.6362 119.149 73.644C118.699 76.475 117.957 79.2528 116.937 81.9318C115.55 85.1923 113.342 88.0858 111.032 89.6718C101.418 96.2715 90.9367 98.3443 79.8762 95.8343C67.9034 93.1176 61.1409 83.4237 62.2252 70.5303C62.673 66.0384 63.43 61.5828 64.4907 57.1954C66.281 49.367 75.9353 40.3535 85.7563 40.3535C85.8108 40.3535 85.8679 40.3535 85.9224 40.3535L86.5064 40.3591C92.047 40.4131 97.2788 40.4647 102.352 42.5128C112.339 46.5453 117.828 54.1137 119.135 65.6499C119.219 66.6005 119.234 67.5556 119.181 68.5088C119.167 68.9741 119.152 69.44 119.152 69.9033C119.152 70.0585 119.206 70.2086 119.304 70.3289C119.402 70.4491 119.54 70.5309 119.692 70.5608Z" fill="#100b01"/>
<path d="M138.979 47.9086C140.679 48.0802 142.409 48.2043 144.08 48.3252C144.815 48.3781 145.551 48.4324 146.286 48.4883H146.322C146.459 48.483 146.592 48.4358 146.701 48.3531C147.034 48.3531 147.366 48.355 147.699 48.3588C148.678 48.366 149.69 48.3731 150.694 48.3459C155.502 48.2107 157.888 46.0899 158.427 41.4687C158.721 39.0093 158.832 36.5316 158.76 34.0557C158.591 28.7665 156.568 26.6074 151.778 26.6074H151.76C147.367 26.6126 142.934 27.3871 138.642 28.137L136.902 28.4396C134.584 28.8367 133.086 30.8654 133.086 33.6074C133.098 36.7308 133.298 39.8506 133.686 42.9497C134.031 45.7983 135.961 47.6045 138.979 47.9086ZM140.489 34.1984C141.067 33.5409 142.381 33.2888 145.011 33.3427C145.223 33.3509 145.434 33.3704 145.643 33.4012C145.866 33.4297 146.089 33.4577 146.313 33.4662C148.543 33.5643 149.889 33.6241 150.301 34.0887C150.713 34.5533 150.61 35.8924 150.441 38.112C150.337 39.4901 150.267 40.4014 149.997 40.6463C149.726 40.8913 148.79 40.8988 147.379 40.9001H140.552L140.44 40.1993C140.337 39.5573 140.27 39.1393 140.209 38.7195C139.835 36.1627 139.916 34.8518 140.489 34.2007V34.1984Z" fill="#100b01"/>
</g>
<defs>
<clipPath id="clip0_676_506">
<rect width="183" height="141" fill="white"/>
</clipPath>
</defs>
</svg>
