<svg width="146" height="46" viewBox="0 0 146 46" fill="none" xmlns="http://www.w3.org/2000/svg">
<g clip-path="url(#clip0_689_587)">
<path d="M2.09675 13.6636C3.49458 14.8992 5.17197 15.91 6.43002 17.2579C17.1933 29.2761 32.5695 35.229 49.623 38.4863C55.4939 39.6094 62.2035 39.4971 68.2141 38.4863C85.4074 35.7906 101.063 30.0623 114.622 21.0767C118.536 18.4934 121.891 15.2361 124.686 11.5296C123.149 11.9788 121.471 12.4281 119.934 12.9897C115.461 14.5622 110.988 16.247 106.375 17.5948C104.418 18.1564 102.042 18.1564 99.8051 18.0441C98.9664 18.0441 97.7084 17.0332 97.5686 16.3593C97.4288 15.6854 98.2675 14.4499 98.9664 14.3376C110.848 11.4172 121.192 5.80127 131.955 0.971533C135.729 -0.71326 138.106 -0.263982 139.783 2.76865C143.837 10.2941 145.654 18.2687 145.374 26.4681C145.374 26.6927 144.815 27.0297 143.977 27.7036C135.729 25.2325 138.245 18.0441 134.192 12.3158C133.213 13.6636 132.514 14.7868 131.676 15.6854C114.063 33.0949 90.7192 42.3051 63.6013 45.6747C59.5476 46.2363 55.0745 46.0117 50.881 45.4501C35.5049 43.316 21.8062 38.1493 10.4837 29.5007C6.84937 26.6927 4.19349 22.9862 1.53761 19.5043C0.419348 18.1564 0.419349 16.247 0 14.6745C0.698915 14.3376 1.39783 14.0006 2.09675 13.6636Z" fill="#A29E9E"/>
</g>
<defs>
<clipPath id="clip0_689_587">
<rect width="145.402" height="46" fill="white"/>
</clipPath>
</defs>
</svg>
