<svg width="185" height="171" viewBox="0 0 185 171" fill="none" xmlns="http://www.w3.org/2000/svg">
<g clip-path="url(#clip0_676_504)">
<path d="M184.919 74.2188C184.599 55.2226 176.882 39.0104 161.967 26.0344C150.007 15.6176 135.32 8.031 118.324 3.47659C111.747 1.71949 104.797 0.214102 97.5271 0.214102C93.7031 0.202117 89.8909 0.649697 86.1746 1.5472C69.1124 5.72476 56.5994 10.5515 45.6137 17.2153C29.185 27.1811 18.753 37.0811 11.7892 49.3214C2.37693 65.8443 -1.05048 82.8985 1.31038 101.46C2.70469 112.387 6.71362 123.169 13.9306 135.389C19.6201 145.017 26.917 151.926 36.2423 156.501C41.1445 158.915 45.9667 161.249 50.963 163.377C64.1895 169.013 77.7568 171.294 94.9592 170.77C96.0329 170.624 97.3467 170.465 98.841 170.286C102.83 169.808 108.293 169.159 113.609 168.197C128.463 165.519 140.63 160.977 150.803 154.313C154.2 152.128 157.302 149.521 160.034 146.555C165.096 140.901 169.414 134.631 172.887 127.896C181.317 111.788 185.252 94.2303 184.919 74.2188ZM31.5594 36.3977C44.386 24.7542 58.3138 16.6586 74.1347 11.6525L76.8766 10.7838L74.7955 12.7596C65.0703 22.0291 58.7668 33.5797 54.3579 42.604L54.1783 42.9822L53.751 42.9758C48.3146 42.9229 36.3623 39.939 31.6997 37.4721L30.8662 37.0282L31.5594 36.3977ZM7.87438 84.6646C9.41475 69.2088 15.1308 55.4904 25.3499 42.7332L25.6296 42.3878L51.1098 49.9138L50.8631 50.5772C46.8053 61.4626 43.9407 72.7514 42.3187 84.2471L42.2382 84.8111L7.80031 85.4073L7.87438 84.6646ZM20.314 133.281L20.0071 132.81C11.4958 119.595 7.43349 106.155 7.59383 91.7266L7.60032 91.0704H40.8576L41.6247 124.217L20.314 133.281ZM49.9627 155.401C40.5641 151.264 30.8461 146.987 23.8681 138.321L23.3747 137.71L24.0616 137.333C30.2983 133.838 36.735 131.803 42.2045 130.271L42.9314 130.072L43.045 130.808C44.6393 140.714 47.3669 148.339 51.6226 154.797L52.863 156.674L49.9627 155.401ZM84.9471 163.403L84.3538 163.449C83.2503 163.542 82.1592 163.589 81.0784 163.589C76.6053 163.497 72.1536 162.936 67.798 161.917C66.995 161.671 66.316 161.131 65.8973 160.406L64.9366 158.848C62.4052 154.73 59.8541 152.583 57.3329 146.216C54.8208 139.871 52.804 133.816 52.1503 128.261L52.0854 127.67L52.6657 127.541C63.4813 125.066 74.4969 123.552 85.5826 123.019L86.3096 122.979L84.9471 163.403ZM86.6147 116.371L51.27 121.437L51.1767 120.781C49.7155 110.61 49.9433 100.252 50.3561 91.4601L50.3827 90.8303H87.6754L86.6147 116.371ZM87.8818 84.0335H51.3161L51.3811 83.3108C52.3217 73.2857 54.7364 62.9085 58.7584 51.5837L58.9318 51.0991L87.8825 53.4003L87.8818 84.0335ZM88.0954 46.617L61.5152 45.0038L61.8956 44.1352C68.832 28.1967 77.6432 16.8101 89.6364 8.32202L90.7899 7.50645L88.0954 46.617ZM119.545 12.9468C130.41 16.1422 144.371 21.182 156.031 31.9182L156.731 32.5635L155.01 33.4384C149.5 36.2435 144.3 38.8891 138.015 39.8706L137.574 39.9436L137.341 39.5564C136.421 38.0574 135.524 36.539 134.626 35.0206C130.217 27.6076 125.661 19.9359 118.918 14.0812L116.617 12.0854L119.545 12.9468ZM96.9131 14.3193C96.9936 12.668 97.0734 11.0039 97.1467 9.33976L97.1935 8.37829L98.0808 8.75578C111.241 14.3852 120.639 24.3316 128.557 41.0076L128.923 41.7819L125.822 42.3588C116.037 44.196 106.792 45.9331 96.9358 46.2512L96.262 46.2712L96.249 45.6013C95.94 35.1026 96.4132 25.0065 96.9137 14.318L96.9131 14.3193ZM96.1341 53.6326L132.29 48.1818L132.49 48.6458C136.786 58.3005 138.814 69.1081 138.687 81.6841V82.3203L96.1315 83.9051L96.1341 53.6326ZM95.7271 90.5651L138.583 89.219L138.563 89.9288C138.269 99.4016 137.206 108.834 135.382 118.136L135.268 118.713L94.7073 115.821L95.7271 90.5651ZM111.616 161.367C107.213 162.077 102.798 162.674 98.1289 163.303C96.5346 163.522 94.9138 163.741 93.2527 163.967L92.4588 164.079L94.253 122.737L94.867 122.717C106.14 122.292 117.759 123.162 132.533 125.528L133.341 125.658L133.054 126.414C132.753 127.209 132.453 127.999 132.16 128.788C129.563 135.717 126.395 141.844 123.129 148.195C119.537 155.177 112.817 161.174 111.614 161.366L111.616 161.367ZM160.501 133.565C153.971 146.097 142.712 151.673 131.526 155.837L129.678 156.527L130.725 154.862C135.622 147.119 138.817 138.677 142.198 129.739L143.092 127.373L160.868 132.862L160.501 133.565ZM176.383 88.5821C175.202 102.719 171.774 114.561 165.604 125.847L165.357 126.304L145.246 121.066L148.695 88.7944L176.442 87.8401L176.383 88.5821ZM176.736 80.307L176.662 80.871L148.642 81.8531L148.561 81.2556C148.321 79.4488 148.107 77.622 147.895 75.8513C147.428 71.8467 146.94 67.7156 146.107 63.7506C145.28 59.8453 144.113 56.0859 142.872 52.1071C142.345 50.3964 141.791 48.6329 141.277 46.8623L141.111 46.2925L161.808 37.7587L162.115 37.9838C171.505 44.9187 178.609 65.4952 176.735 80.3057L176.736 80.307Z" fill="#4e3505"/>
</g>
<defs>
<clipPath id="clip0_676_504">
<rect width="185" height="171" fill="white"/>
</clipPath>
</defs>
</svg>
