<svg width="161" height="159" viewBox="0 0 161 159" fill="#93aacd" xmlns="http://www.w3.org/2000/svg">
<g clip-path="url(#clip0_676_510)">
<path d="M156.811 26.0871C154.476 6.9155 138.344 -0.780163 123.396 0.105234C114.526 0.62571 105.741 0.902818 95.2794 1.15945C85.8012 1.39179 76.0815 1.59133 67.5064 1.76723C55.2016 2.02057 42.4778 2.28302 29.8433 2.6322C15.3383 3.03387 3.64236 12.3774 1.39309 25.3545C0.489967 30.5632 0.463678 35.8191 0.519467 41.6559C0.682898 58.701 0.932306 75.9244 1.17581 92.581L1.20208 94.3846C1.29835 101.085 1.39279 107.786 1.48555 114.488C1.5013 115.616 1.54068 116.748 1.58137 117.88L1.58473 117.97C1.74977 120.774 1.72195 123.586 1.50141 126.386C0.721024 133.863 3.58331 141.836 9.15892 147.711C15.3567 154.243 24.1404 157.563 33.8988 157.066C44.5472 156.514 55.409 156.619 65.9128 156.72L66.6735 156.728C79.1387 156.847 91.8152 157.164 104.091 157.472L110.28 157.627C111.322 157.69 112.357 157.846 113.37 158.096C113.902 158.209 114.433 158.32 114.963 158.412C115.039 158.425 115.117 158.432 115.193 158.432H121.91C121.976 158.431 122.042 158.427 122.107 158.418C123.449 158.221 124.798 158.042 126.142 157.866L126.243 157.853C129.257 157.459 132.373 157.054 135.41 156.394C148.514 153.548 159.615 139.957 159.652 126.718C159.661 123.599 159.672 120.479 159.684 117.359L159.69 115.792C159.756 98.6908 159.828 81.0071 159.461 63.5942C159.192 50.9315 158.301 38.3095 156.811 26.0871ZM149.526 125.796C149.566 136.021 140.647 145.595 129.221 147.591C120.466 149.12 111.517 148.6 102.861 148.099C99.648 147.913 96.3256 147.72 93.0242 147.633C89.2765 147.534 85.4592 147.341 81.747 147.152L81.4188 147.135C79.8213 147.054 78.2225 146.974 76.6367 146.901H76.5632C72.5241 146.901 68.485 146.897 64.4454 146.886C59.7572 146.878 54.9941 146.871 50.2114 146.871C43.9204 146.871 38.7485 146.884 33.931 146.913H33.719C26.6529 146.913 20.824 144.817 16.8624 140.85C12.7432 136.726 10.5937 130.565 10.6481 123.033C10.7755 105.323 10.6986 87.3933 10.6238 70.0528C10.5818 60.1529 10.5385 49.9161 10.5333 39.8013C10.4346 33.976 11.7522 28.2138 14.3727 23.0102C17.3446 17.2948 22.6532 14.2619 31.078 13.4658C42.8999 12.35 52.4391 11.7421 61.0982 11.5538C86.0965 11.0064 105.335 10.8128 123.476 10.925C136.708 11.007 144.35 17.2318 146.841 29.9588C149.598 44.0635 149.559 58.5608 149.517 72.5883L149.513 73.7776C149.457 93.6711 149.461 110.199 149.524 125.796H149.526Z" fill="#93aacd"/>
<path d="M83.4699 41.874C75.1764 41.7191 67.7959 43.4047 61.5232 46.8623C53.9688 51.0235 45.9221 56.6417 43.514 66.7446C40.4174 79.7329 41.8259 92.2295 47.7001 103.887C51.9059 112.236 58.4988 117.373 66.7661 118.742C71.7129 119.606 76.7221 120.06 81.7437 120.099C83.3189 120.099 84.8817 120.044 86.3821 119.936C97.5129 119.133 106.354 114.67 112.661 106.671C122.427 94.2839 124.125 80.1017 117.71 64.5184C111.507 49.4482 99.6408 41.6148 83.4699 41.874ZM110.616 81.6953C110.664 98.6288 99.31 109.938 81.6886 110.499C77.2058 110.575 72.7276 110.184 68.3256 109.333C62.6915 108.322 58.4147 104.931 55.6115 99.2556C50.9364 89.7853 49.8023 79.9967 52.2393 70.1615C54.1171 62.5835 59.6506 57.0255 69.1552 53.1696C72.6869 51.7494 76.4615 51.0282 80.2683 51.0458C83.5657 51.0613 86.8448 51.5442 90.007 52.4799C102.486 56.1115 110.575 67.5788 110.616 81.6953Z" fill="#93aacd"/>
<path d="M126.187 25.3848H125.998C124.153 25.431 122.396 26.1832 121.09 27.4864C119.783 28.7896 119.026 30.5447 118.975 32.3894C118.93 33.2885 119.067 34.1874 119.378 35.0321C119.69 35.8768 120.169 36.6496 120.788 37.3039C121.433 37.9609 122.205 38.48 123.057 38.8297C123.91 39.1795 124.823 39.3526 125.745 39.3386C127.562 39.28 129.287 38.525 130.562 37.2299C131.838 35.9349 132.566 34.1989 132.598 32.3814C132.657 28.7545 129.661 25.4858 126.187 25.3848Z" fill="#93aacd"/>
</g>
<defs>
<clipPath id="clip0_676_510">
<rect width="160.146" height="158.834" fill="white"/>
</clipPath>
</defs>
</svg>
