<svg width="154" height="153" viewBox="0 0 154 153" fill="none" xmlns="http://www.w3.org/2000/svg">
<g clip-path="url(#clip0_670_512)">
<path d="M152.919 1.19172C150.663 -0.433827 148.241 0.0200398 146.107 0.417065C145.631 0.506154 145.158 0.595212 144.69 0.660414C124.836 3.41002 105.289 8.03013 86.3147 14.4582C74.6218 18.451 63.1433 22.2508 52.2009 25.7524C48.0422 27.0822 45.3611 29.5129 43.7568 33.4005C38.8184 45.3616 35.8606 55.6991 34.4389 65.9314C34.3466 66.5957 34.2725 67.2645 34.1978 67.9423C34.0409 69.8326 33.7147 71.7054 33.2231 73.5382C32.7682 73.0992 32.3238 72.6737 31.895 72.2593C30.5031 70.9152 29.1885 69.6467 27.8382 68.4588C25.2287 66.1645 23.4341 66.0056 20.4516 67.8132C19.4406 68.3871 18.4999 69.0753 17.6485 69.8642C12.4066 75.0184 7.17258 80.2243 2.09254 85.3379C1.24289 86.0796 0.61813 87.0422 0.288809 88.1177C-0.040512 89.1926 -0.0614346 90.3378 0.228208 91.4243C0.250837 91.5341 0.301214 91.6354 0.374475 91.7206C1.50381 93.0382 2.65254 94.4249 3.83061 95.8452C6.55969 99.1376 9.37783 102.535 12.4806 105.744C22.1624 115.764 32.862 126.577 46.1437 139.774C49.2731 142.885 52.6128 145.878 55.8429 148.773C57.3316 150.107 58.8203 151.443 60.2947 152.792C60.4186 152.906 60.5812 152.968 60.7496 152.968H64.7534C64.8855 152.968 65.0147 152.929 65.1245 152.856C65.2343 152.783 65.3201 152.68 65.3707 152.558C65.4292 152.416 65.4773 152.261 65.5241 152.107C65.5598 151.957 65.6144 151.812 65.6872 151.677C68.3929 149.314 71.1051 146.959 73.8238 144.611C77.1332 141.745 80.4381 138.872 83.7377 135.992C85.5149 134.434 87.3648 132.441 87.6072 129.468C87.6111 129.419 87.6098 129.371 87.6033 129.322C87.2322 126.676 85.4681 125.053 83.7617 123.481C82.4751 122.295 81.2529 121.17 80.5901 119.636L80.9085 119.475C81.4088 119.206 81.9254 118.969 82.4556 118.765C85.665 117.62 88.8788 116.487 92.0972 115.364C99.0259 112.933 106.19 110.42 113.174 107.771C117.267 106.218 121.16 104.011 124.922 101.877L125.122 101.763C128.155 100.042 130.06 97.1905 130.786 93.2893C131.371 90.1422 132.12 86.9085 133.012 83.6794C141.113 54.3564 147.347 31.9253 153.225 10.9508C154.276 7.20129 154.253 4.28208 153.153 1.48676C153.105 1.36817 153.024 1.26574 152.919 1.19172ZM89.435 76.0462C87.6812 76.5872 85.7839 76.4342 84.1412 75.6182C82.4979 74.8022 81.236 73.3864 80.6193 71.6679C79.1157 67.8759 80.5641 64.3962 84.3088 62.803C86.2576 61.9826 88.3284 61.4837 90.439 61.3258C90.7015 61.3065 90.9555 61.2969 91.2012 61.2969C92.5241 61.214 93.8289 61.6398 94.8445 62.486C95.8465 63.4124 96.3501 64.8785 96.3429 66.8436C96.328 70.8248 93.2291 74.9513 89.4344 76.0488L89.435 76.0462ZM132.033 16.9152C129.91 18.9694 127.905 20.9093 125.981 23.0003C123.967 25.1952 121.854 27.3728 119.812 29.4806C117.002 32.3818 114.094 35.3818 111.384 38.4696C108.148 42.1538 105.155 45.922 101.986 49.9116C100.696 51.5358 99.3937 53.1757 98.0623 54.8244L97.378 54.6197C96.5489 54.3711 95.6886 54.1129 94.8309 53.8882C90.1277 52.7151 85.1672 53.1038 80.7071 54.9948C73.6075 57.8108 69.8796 64.1464 70.9784 71.5298C71.3657 74.3606 72.4359 77.0565 74.0981 79.387C75.7602 81.7182 77.9656 83.6155 80.5251 84.917C82.9436 86.1042 85.6182 86.6839 88.3141 86.6051C91.0108 86.5264 93.6463 85.7917 95.9901 84.4651C99.6881 82.5581 102.693 79.5491 104.582 75.8596C107.526 70.0185 107.294 64.8914 103.871 60.1852C103.773 60.0503 103.669 59.9199 103.564 59.7895C103.218 59.4064 102.961 58.952 102.812 58.4589C102.779 58.3679 102.747 58.2782 102.71 58.1884C102.71 58.1504 102.71 58.1116 102.706 58.0735C102.698 57.9926 102.698 57.9112 102.706 57.8302C102.729 57.7296 102.776 57.6358 102.842 57.5564C115.881 44.6399 128.925 31.7297 142.479 18.3148C142.382 19.0155 142.237 19.7088 142.044 20.3897C140.232 26.2747 138.413 32.1573 136.586 38.0376C133.623 47.5881 130.56 57.4647 127.604 67.1967C125.895 72.8261 124.266 78.8576 122.763 85.1248C122.349 87.0874 121.481 88.9266 120.228 90.4986C118.974 92.0705 117.371 93.3313 115.543 94.1815C112.191 95.8426 109.056 97.3448 105.961 98.7689C102.972 100.147 99.8531 101.41 96.8407 102.632C89.3031 105.688 81.5147 108.846 74.8011 114.123L39.8704 79.5813C39.912 79.1146 39.9355 78.6724 39.9596 78.2508C39.9607 77.4019 40.0771 76.5568 40.3057 75.7389C44.0667 64.9321 47.9461 53.9451 51.6979 43.3203L54.7007 34.8143C60.0075 32.9848 65.3714 31.083 70.5613 29.2431C92.7613 21.371 115.697 13.2381 140.044 8.69584C137.388 11.7326 134.671 14.3613 132.032 16.9145L132.033 16.9152ZM76.6348 128.885L62.2888 142.61C53.2567 135.573 14.5151 97.8606 9.0673 90.802C12.4222 85.7833 19.2267 78.3063 23.3392 75.1146L23.4452 75.1792C23.7821 75.3683 24.0967 75.5943 24.3833 75.8525C39.6651 90.9634 54.9366 106.083 70.198 121.212L70.9921 121.994C73.0707 124.034 75.217 126.139 76.6342 128.885H76.6348Z" fill="#4E3505" fill-opacity="0.51"/>
</g>
<defs>
<clipPath id="clip0_670_512">
<rect width="154" height="153" fill="white"/>
</clipPath>
</defs>
</svg>
