<svg width="67" height="66" viewBox="0 0 67 66" fill="none" xmlns="http://www.w3.org/2000/svg">
<g clip-path="url(#clip0_690_728)">
<path d="M66.5306 0.513959C65.549 -0.187256 64.4951 0.00852974 63.5667 0.179795C63.3598 0.218226 63.154 0.256643 62.9504 0.284769C54.3122 1.47088 45.8083 3.46386 37.5532 6.23676C32.466 7.95916 27.4721 9.59827 22.7114 11.1088C20.9022 11.6824 19.7357 12.7309 19.0377 14.4079C16.8892 19.5676 15.6024 24.0269 14.9838 28.4409C14.9437 28.7274 14.9114 29.0159 14.8789 29.3083C14.8107 30.1237 14.6688 30.9316 14.4549 31.7222C14.257 31.5329 14.0636 31.3493 13.8771 31.1706C13.2715 30.5908 12.6996 30.0435 12.1121 29.5311C10.9768 28.5414 10.196 28.4729 8.89845 29.2527C8.45859 29.5002 8.04933 29.7971 7.6789 30.1374C5.39836 32.3608 3.12121 34.6064 0.911065 36.8123C0.541411 37.1323 0.269599 37.5475 0.126323 38.0114C-0.0169532 38.4751 -0.0260559 38.9691 0.0999576 39.4378C0.109802 39.4852 0.13172 39.5289 0.163593 39.5656C0.654927 40.134 1.1547 40.7322 1.66723 41.3449C2.85457 42.7651 4.08064 44.2308 5.43053 45.6151C9.64277 49.9371 14.2978 54.6017 20.0762 60.2947C21.4377 61.6364 22.8907 62.9277 24.296 64.1764C24.9436 64.752 25.5913 65.3282 26.2328 65.9102C26.2867 65.9592 26.3574 65.9862 26.4307 65.986H28.1726C28.2301 65.986 28.2863 65.9693 28.334 65.9378C28.3818 65.9063 28.4191 65.8618 28.4412 65.8094C28.4666 65.7481 28.4876 65.6813 28.5079 65.6145C28.5235 65.5499 28.5472 65.4875 28.5789 65.429C29.756 64.41 30.936 63.3939 32.1188 62.381C33.5586 61.1446 34.9964 59.9053 36.432 58.663C37.2052 57.9911 38.01 57.1314 38.1155 55.8487C38.1172 55.8278 38.1166 55.8069 38.1138 55.786C37.9524 54.6443 37.1848 53.9442 36.4425 53.2663C35.8827 52.7548 35.351 52.2691 35.0626 51.6077L35.2011 51.5381C35.4188 51.4222 35.6435 51.3198 35.8742 51.2318C37.2705 50.738 38.6687 50.249 40.0689 49.7647C43.0834 48.7162 46.2004 47.6321 49.2386 46.4895C51.0196 45.8195 52.713 44.8674 54.3498 43.9467L54.4369 43.8977C55.7566 43.1553 56.5854 41.9252 56.9012 40.2423C57.1556 38.8848 57.4813 37.4898 57.8695 36.0969C61.3942 23.4477 64.1064 13.7716 66.6634 4.72374C67.1208 3.10632 67.1109 1.84706 66.6323 0.641233C66.6114 0.590077 66.5761 0.54589 66.5306 0.513959ZM38.9107 32.8041C38.1477 33.0375 37.3222 32.9715 36.6076 32.6195C35.8926 32.2675 35.3436 31.6568 35.0753 30.9155C34.4212 29.2797 35.0513 27.7787 36.6805 27.0914C37.5283 26.7375 38.4293 26.5223 39.3475 26.4542C39.4617 26.4458 39.5722 26.4417 39.6791 26.4417C40.2547 26.4059 40.8223 26.5896 41.2642 26.9546C41.7001 27.3542 41.9192 27.9867 41.9161 28.8344C41.9096 30.5518 40.5614 32.3318 38.9104 32.8052L38.9107 32.8041ZM57.4434 7.29663C56.5201 8.18275 55.6477 9.01959 54.8106 9.92159C53.9343 10.8684 53.0152 11.8078 52.1267 12.717C50.9043 13.9685 49.6389 15.2626 48.4601 16.5946C47.0522 18.1839 45.7501 19.8094 44.3714 21.5304C43.8099 22.231 43.2434 22.9384 42.6641 23.6496L42.3664 23.5613C42.0057 23.4541 41.6314 23.3427 41.2583 23.2458C39.2121 22.7397 37.0539 22.9074 35.1135 23.7231C32.0247 24.9379 30.4028 27.6709 30.8809 30.8559C31.0494 32.077 31.515 33.2399 32.2381 34.2453C32.9613 35.2509 33.9208 36.0693 35.0343 36.6307C36.0865 37.1429 37.2501 37.3929 38.4231 37.359C39.5963 37.325 40.7429 37.0081 41.7626 36.4358C43.3714 35.6132 44.6787 34.3152 45.5005 32.7236C46.7817 30.2039 46.6807 27.9922 45.1912 25.9621C45.1485 25.9039 45.1033 25.8477 45.0578 25.7914C44.9071 25.6262 44.7954 25.4302 44.7307 25.2175C44.7163 25.1782 44.7024 25.1395 44.6863 25.1008C44.6863 25.0844 44.6863 25.0676 44.6843 25.0512C44.6809 25.0163 44.6809 24.9812 44.6843 24.9463C44.6945 24.9028 44.7148 24.8624 44.7437 24.8281C50.4163 19.2563 56.0916 13.6872 61.9884 7.90037C61.9463 8.20264 61.883 8.50172 61.799 8.79544C61.0108 11.3341 60.2193 13.8716 59.4243 16.4082C58.1352 20.5281 56.8025 24.7886 55.5168 28.9867C54.7733 31.4151 54.0646 34.0169 53.4107 36.7204C53.2303 37.567 52.8527 38.3604 52.3076 39.0385C51.7623 39.7166 51.0646 40.2605 50.2693 40.6272C48.8109 41.3437 47.4471 41.9918 46.1006 42.6061C44.8002 43.2004 43.4433 43.7454 42.1327 44.2725C38.8533 45.5909 35.4649 46.9532 32.544 49.2295L17.3469 34.3291C17.365 34.1277 17.3752 33.937 17.3857 33.7551C17.3862 33.3889 17.4368 33.0244 17.5363 32.6716C19.1725 28.0098 20.8603 23.2703 22.4926 18.6871L23.799 15.0178C26.1078 14.2286 28.4415 13.4082 30.6994 12.6146C40.3579 9.21876 50.3363 5.71043 60.9288 3.75103C59.7732 5.06101 58.5912 6.19496 57.4431 7.29635L57.4434 7.29663ZM33.3418 55.5972L27.1003 61.5177C23.1708 58.4823 6.31569 42.2143 3.94553 39.1694C5.40512 37.0045 8.36553 33.7791 10.1547 32.4023L10.2008 32.4301C10.3474 32.5117 10.4843 32.6092 10.609 32.7206C17.2576 39.239 23.9016 45.7613 30.5414 52.2875L30.8868 52.6247C31.7912 53.5047 32.7249 54.4129 33.3415 55.5972H33.3418Z" fill="white"/>
</g>
<defs>
<clipPath id="clip0_690_728">
<rect width="67" height="66" fill="white"/>
</clipPath>
</defs>
</svg>
