<svg width="71" height="57" viewBox="0 0 71 57" fill="none" xmlns="http://www.w3.org/2000/svg">
<path d="M15.2006 24.6103L25.0901 18.249C22.4784 15.1657 19.9263 12.1524 17.3738 9.13949C16.8687 8.5451 16.3683 7.94317 15.8519 7.35628C14.673 6.0167 14.672 4.6421 15.8641 3.34444C15.9695 3.22963 16.0891 3.12797 16.2033 3.02129C20.406 -0.90704 19.4606 -0.435899 24.1728 1.24186C28.4794 2.77477 32.7219 4.53823 36.857 6.48754C39.5722 7.76736 41.7392 8.06925 44.368 6.05112C47.8904 3.32521 52.0398 1.52485 56.4373 0.814492C60.0272 0.236365 63.5646 0.267662 67.1092 1.27344C71.9343 2.64211 71.7272 7.56902 69.4272 9.90437C68.1679 11.1463 66.788 12.2598 65.3081 13.2286C61.5954 15.7294 57.8462 18.1802 54.0416 20.5403C53.4882 20.852 53.0103 21.2816 52.6417 21.7986C52.2731 22.3156 52.0229 22.9074 51.9088 23.532C50.0745 31.6971 48.1567 39.845 46.2486 47.9938C46.0265 48.8487 45.7615 49.6918 45.4546 50.52C45.239 51.1654 44.8932 51.7598 44.4388 52.2664C43.9843 52.773 43.4307 53.1811 42.8123 53.4654C40.559 54.5456 38.2979 55.6115 36.0017 56.5938C33.626 57.6112 32.388 56.6933 32.5382 54.1117C32.9158 47.6174 33.296 41.1233 33.6786 34.6293C33.6996 34.2702 33.6814 33.9098 33.6814 33.3017C32.9885 33.6977 32.4246 34.018 31.8628 34.3421C26.4537 37.4643 21.1731 40.8548 15.2917 43.0463C12.9611 43.9222 10.5341 44.5162 8.06233 44.8157C5.65787 45.0951 3.79451 43.9085 2.74673 41.5622C1.66375 39.249 0.9915 36.7651 0.760062 34.2217C0.488414 30.6437 0.22209 27.0652 0.0105298 23.4835C-0.109333 21.4585 0.794804 20.1173 2.6882 19.1898C7.02956 17.0625 6.54479 17.3703 9.46438 19.9149C11.1522 21.3853 12.8866 22.8046 14.6047 24.2409C14.7951 24.3769 14.9941 24.5003 15.2006 24.6103V24.6103ZM35.9732 52.7477L36.3845 52.9355C37.4188 52.4615 38.4187 51.8755 39.4953 51.5383C41.3201 50.9671 41.8052 49.5674 42.2217 47.9291C44.4857 39.0204 46.7945 30.1231 49.1482 21.237C49.4015 20.2531 49.8511 19.3306 50.47 18.5248C51.0889 17.719 51.8643 17.0466 52.7497 16.5478C56.007 14.5985 59.1372 12.434 62.2855 10.307C63.7937 9.28838 65.2658 8.20409 66.6707 7.04784C67.8565 6.07209 67.6756 5.3272 66.2388 4.83917C63.1199 3.78177 59.9171 3.61722 56.6761 4.03267C52.4865 4.56919 48.8618 6.51256 45.3714 8.71995C35.6934 14.8414 26.0296 20.9851 16.3798 27.1512C14.6586 28.248 14.3938 28.2684 12.8644 26.8697C10.9431 25.1124 9.06661 23.3064 7.15225 21.5417C6.64588 21.0746 6.16956 20.285 5.31518 20.8816C4.4389 21.4938 3.00899 21.6396 3.16359 23.2079C3.65807 28.2221 3.95318 33.2669 4.72118 38.2392C5.32269 42.1328 6.59893 42.6615 10.4026 41.5284C14.5274 40.2996 18.3111 38.3374 21.9821 36.1454C25.8703 33.8241 29.7141 31.4287 33.5847 29.0777C35.2797 28.0481 36.5284 28.6228 36.8044 30.5555C36.9383 31.3249 37.0079 32.104 37.0126 32.8849C36.8893 37.7252 36.734 42.5642 36.5719 47.4032C36.5547 47.9172 36.4064 48.4259 36.3528 48.9405C36.2145 50.2088 36.0978 51.4789 35.9745 52.7481L35.9732 52.7477ZM28.2078 16.2835L37.4745 10.3736C32.3718 7.52831 27.0539 5.08714 21.5696 3.07257C21.1684 2.92804 20.5757 2.83826 20.2552 3.03003C19.2603 3.62756 18.3543 4.37245 17.7446 4.81824L22.8938 10.4621C24.5991 12.3301 26.3041 14.1975 28.2078 16.2838V16.2835Z" fill="white"/>
</svg>
