<svg width="157" height="134" viewBox="0 0 157 134" fill="none" xmlns="http://www.w3.org/2000/svg">
<g clip-path="url(#clip0_670_508)">
<path d="M5.94309 53.8336C4.45066 54.37 3.01188 55.047 1.64594 55.8558C1.21672 56.0702 0.844865 56.3851 0.561655 56.7741C0.278445 57.1632 0.092153 57.615 0.0184285 58.0916C-0.0500571 58.9633 0.40609 59.8357 1.37006 60.6832C2.17185 61.3426 3.03592 61.9213 3.94989 62.4109C4.65089 62.8142 5.36483 63.1954 6.07876 63.5759C7.10086 64.121 8.15787 64.6818 9.14251 65.3045C22.4953 73.7172 34.6463 81.1763 47.9726 87.2031C47.9441 87.6831 47.9125 88.1619 47.8802 88.6387C47.7897 89.9865 47.6967 91.3792 47.6947 92.7543C47.6917 94.8307 47.6836 96.9083 47.6702 98.9873C47.6359 105.579 47.6004 112.396 47.8207 119.099C47.9002 121.516 48.7621 123.244 50.2474 123.965C51.809 124.72 53.8164 124.28 55.9001 122.72C56.6515 122.157 57.4216 121.525 58.2538 120.786C61.9042 117.546 65.5495 114.299 69.2296 111.021L72.5648 108.05C72.59 108.069 72.6145 108.088 72.6371 108.108L75.7209 110.779C79.2318 113.817 82.8615 116.958 86.4047 120.081C87.4139 120.968 88.4289 121.851 89.4497 122.728C92.5613 125.418 95.7814 128.199 98.6733 131.18C100.206 132.757 101.696 133.499 103.486 133.499C104.258 133.488 105.025 133.373 105.767 133.159C108.38 132.443 110.065 130.836 111.233 127.955C115.633 117.097 120.136 106.069 124.491 95.405C128.066 86.645 131.638 77.8842 135.207 69.1222C142.896 50.3125 149.53 31.083 155.076 11.5241C155.748 9.2554 156.22 6.93154 156.487 4.57949C156.577 4.03452 156.544 3.47628 156.39 2.94597C156.237 2.41566 155.967 1.92687 155.6 1.51573C155.159 1.1146 154.634 0.818022 154.063 0.647833C153.493 0.477645 152.893 0.438191 152.305 0.53222C151.527 0.626206 150.76 0.800459 150.018 1.05248L149.918 1.08313C148.25 1.58401 146.577 2.07047 144.904 2.55768C141.018 3.68887 136.999 4.85855 133.1 6.19205C104.936 15.8297 76.3735 26.3219 48.2039 37.3776C40.0793 40.565 31.8067 43.7797 23.8062 46.8871C17.8484 49.1976 11.894 51.5131 5.94309 53.8336ZM59.5557 83.5447C61.1063 82.2405 62.5761 81.0078 64.0848 79.8493C69.9991 75.3024 75.9193 70.7627 81.8446 66.2314C93.4871 57.3157 105.527 48.0963 117.303 38.9413C120.903 36.1443 124.321 32.9998 127.626 29.9646C128.761 28.9239 129.895 27.8785 131.038 26.8475C131.95 26.0253 133.476 24.6495 132.63 21.9617C132.602 21.8739 132.557 21.7928 132.497 21.7235C132.437 21.6542 132.363 21.5983 132.28 21.5591C132.198 21.5203 132.108 21.4988 132.016 21.4961C131.925 21.4934 131.834 21.5095 131.749 21.5434C131.396 21.6871 131.055 21.8141 130.726 21.9337C130.041 22.1694 129.374 22.4544 128.73 22.7866C106.877 34.7341 87.8668 50.4009 69.4836 65.553C65.326 68.9791 61.4074 72.5132 57.2627 76.2508C55.5027 77.8387 53.725 79.433 51.9292 81.0345L10.9264 58.6706C11.1627 58.5239 11.4108 58.3972 11.6681 58.292C18.2625 55.792 24.8544 53.2829 31.4436 50.7646C47.5784 44.611 64.265 38.2473 80.7449 32.1939C95.4215 26.8026 110.441 21.5798 124.965 16.5288C129.794 14.8497 134.623 13.1673 139.45 11.4817C141.32 10.8273 143.208 10.3154 145.207 9.77416C145.737 9.63105 146.269 9.48606 146.803 9.33905C138.756 35.017 128.49 60.2032 118.557 84.5738C113.338 97.3793 107.945 110.611 102.902 123.836C89.1951 112.725 75.8999 100.979 63.0381 89.6144C61.301 88.078 59.5602 86.5409 57.8157 85.0031C58.4089 84.5055 58.9871 84.0202 59.5537 83.5447H59.5557ZM67.1738 103.132L55.4149 113.164L54.4826 91.3291L67.1738 103.132Z" fill="#93AACD"/>
</g>
<defs>
<clipPath id="clip0_670_508">
<rect width="157" height="134" fill="white"/>
</clipPath>
</defs>
</svg>
