<svg width="146" height="46" viewBox="0 0 146 46" fill="none" xmlns="http://www.w3.org/2000/svg">
<g clip-path="url(#clip0_689_585)">
<path d="M2.09675 32.3364C3.49458 31.1008 5.17197 30.09 6.43002 28.7421C17.1933 16.7239 32.5695 10.771 49.623 7.51375C55.4939 6.39055 62.2035 6.50287 68.2141 7.51375C85.4074 10.2094 101.063 15.9377 114.622 24.9233C118.536 27.5066 121.891 30.7639 124.686 34.4704C123.149 34.0212 121.471 33.5719 119.934 33.0103C115.461 31.4378 110.988 29.753 106.375 28.4052C104.418 27.8436 102.042 27.8436 99.8051 27.9559C98.9664 27.9559 97.7084 28.9668 97.5686 29.6407C97.4288 30.3146 98.2675 31.5501 98.9664 31.6624C110.848 34.5828 121.192 40.1987 131.955 45.0285C135.729 46.7133 138.106 46.264 139.783 43.2314C143.837 35.7059 145.654 27.7313 145.374 19.5319C145.374 19.3073 144.815 18.9703 143.977 18.2964C135.729 20.7675 138.245 27.9559 134.192 33.6842C133.213 32.3364 132.514 31.2132 131.676 30.3146C114.063 12.9051 90.7192 3.69488 63.6013 0.325298C59.5476 -0.236301 55.0745 -0.0116615 50.881 0.549938C35.5049 2.68401 21.8062 7.85071 10.4837 16.4993C6.84937 19.3073 4.19349 23.0138 1.53761 26.4957C0.419348 27.8436 0.419349 29.753 0 31.3255C0.698915 31.6624 1.39783 31.9994 2.09675 32.3364Z" fill="#A29E9E"/>
</g>
<defs>
<clipPath id="clip0_689_585">
<rect width="145.402" height="46" fill="white" transform="matrix(1 0 0 -1 0 46)"/>
</clipPath>
</defs>
</svg>
