<svg width="78" height="42" viewBox="0 0 78 42" fill="none" xmlns="http://www.w3.org/2000/svg">
<g clip-path="url(#clip0_690_726)">
<path d="M77.2883 11.9122C77.2481 11.2913 77.2086 10.6704 77.1693 10.0495C77.0941 8.52382 76.5473 7.05865 75.6036 5.85535C74.6875 4.69325 73.5221 4.24039 72.2339 4.54603L71.8872 4.6275C70.8507 4.87014 69.7786 5.12097 68.8486 5.6332C67.2109 6.53592 65.5985 7.54054 64.0394 8.51165C63.3562 8.93733 62.6729 9.363 61.9843 9.78243C61.9112 9.82597 61.8357 9.86538 61.7583 9.90052C61.6823 9.556 61.6103 9.21396 61.5385 8.87512C61.3222 7.8518 61.1178 6.88551 60.8325 5.91923C60.5507 4.90955 60.0246 3.98433 59.3004 3.22479C58.5762 2.46525 57.6758 1.8946 56.6786 1.56311C55.3794 1.09912 53.9973 0.641717 52.6403 0.585244C46.591 0.334096 41.0476 0.189331 35.6935 0.143358C28.879 0.0866009 21.9341 0.148769 15.9594 0.213472C13.2106 0.24185 9.96703 0.309673 6.75309 0.580119C3.86937 0.822187 2.01671 2.43296 1.39528 5.23843C1.36965 5.35478 1.33264 5.46883 1.2962 5.5832C1.25977 5.69756 1.22278 5.81394 1.19432 5.93115C0.283368 9.69412 0.00949255 13.8397 0.360491 18.6039C0.650287 22.5391 1.07218 26.5285 1.48125 30.387C1.57614 31.2846 1.67103 32.1825 1.76592 33.0809C1.95266 34.871 2.18156 36.4719 3.09649 37.9336C4.74758 40.5706 7.05342 41.9066 9.95707 41.9066C10.0109 41.9066 10.065 41.9066 10.119 41.9052C11.9358 41.8745 13.7819 41.8223 15.5674 41.7718C17.5154 41.7171 19.53 41.6603 21.5107 41.6299C25.9326 41.5644 30.3545 41.5071 34.7766 41.4574C39.1719 41.4046 43.5678 41.3476 47.9637 41.2871C49.8357 41.2587 51.8301 41.2139 53.8262 40.9945C55.8474 40.7723 57.9457 40.4173 59.4539 38.7583C60.5333 37.5704 61.8616 36.1086 62.2721 33.9797L62.669 34.1741C63.1335 34.4011 63.5392 34.5998 63.95 34.7902L64.4482 35.0215C66.2572 35.8612 68.1275 36.7298 70.18 37.0301C72.6478 37.3916 74.4364 37.0834 75.6483 36.0899C76.7796 35.1625 77.3816 33.642 77.4892 31.4418C77.6506 28.1418 77.7918 24.6052 77.7355 21.1022C77.6831 18.0351 77.4821 14.9226 77.2883 11.9122ZM73.6416 31.3839C73.6055 31.7449 73.5312 32.1008 73.4204 32.4461C73.3891 32.5596 73.3578 32.6697 73.3288 32.7815C71.574 33.0699 70.1199 32.4946 68.8082 31.8249C67.2966 31.053 65.8174 30.2042 64.3867 29.3844C63.8344 29.0677 63.2884 28.7547 62.7492 28.4507L62.2226 13.5237C65.6924 11.3505 68.8711 9.4449 72.4303 8.13183C73.1019 8.68209 73.2095 9.4027 73.2599 10.0971C73.6846 15.9394 74.1122 23.6395 73.6416 31.3839ZM6.38925 33.9269C6.21219 32.6703 6.02943 31.3714 5.90873 30.0916C5.79201 28.852 5.70493 27.5867 5.62067 26.363C5.57996 25.7722 5.53922 25.181 5.4951 24.5905C5.46094 24.1324 5.43079 23.6745 5.40062 23.2162C5.32973 22.1432 5.25629 21.0332 5.13217 19.9443C4.67408 16.212 4.70679 12.4362 5.2295 8.71228C5.28473 8.33514 5.36671 7.95115 5.44614 7.57939C5.52556 7.20763 5.60843 6.8197 5.66593 6.43177C5.81652 5.4198 6.41006 4.88225 7.59116 4.68985C8.82436 4.48808 10.0354 4.29857 11.1908 4.12574C13.7821 3.77047 16.3964 3.60855 19.0119 3.64132C19.4015 3.64132 19.7879 3.64314 20.1711 3.64674C23.9649 3.67853 27.8219 3.65895 31.5518 3.63965C35.1005 3.62149 38.7696 3.60276 42.3773 3.62858C45.6225 3.65157 48.9572 3.9038 51.8261 4.13934C52.8606 4.26948 53.8769 4.51705 54.8553 4.8772L55.14 4.96977C55.6828 5.11822 56.1725 5.41622 56.5531 5.82969C56.9337 6.2432 57.1896 6.75531 57.2915 7.30724C57.5876 8.7168 57.8093 10.1409 57.9556 11.5737C58.215 14.4632 58.4356 17.3593 58.6303 19.9148C58.7015 20.8488 58.7692 21.7385 58.8344 22.5663L58.6961 25.317C58.5805 27.6222 58.4817 29.5901 58.3716 31.5576C58.3556 32.069 58.2816 32.5767 58.1512 33.0713C57.5728 35.0149 56.5044 36.082 54.8852 36.3334C53.4553 36.5499 52.0123 36.6717 50.5664 36.6978C45.3196 36.809 39.9843 36.9089 34.8241 37.0054C30.1879 37.0919 25.5521 37.1816 20.9163 37.2747C19.1155 37.3119 17.2871 37.3834 15.5187 37.4526C14.3493 37.498 13.1801 37.544 12.0104 37.5806C11.588 37.5934 11.1507 37.5761 10.7294 37.5585C10.48 37.5483 10.2309 37.5378 9.98181 37.5332C7.85531 37.4949 6.65286 35.8109 6.43509 34.2623L6.38925 33.9269Z" fill="white"/>
</g>
<defs>
<clipPath id="clip0_690_726">
<rect width="78" height="42" fill="white"/>
</clipPath>
</defs>
</svg>
