<svg width="105" height="155" viewBox="0 0 105 155" fill="none" xmlns="http://www.w3.org/2000/svg">
<g clip-path="url(#clip0_670_510)">
<path d="M29.2023 99.6713C25.1916 111.249 20.9789 122.976 16.9052 134.318C15.3816 138.558 13.8602 142.799 12.341 147.041C11.4809 149.448 10.7993 152.176 13.6252 154.08C14.4027 154.645 15.3341 154.958 16.2957 154.979C18.0645 154.979 19.6015 153.81 20.9302 152.537C23.458 150.121 26.0694 147.704 28.5972 145.368C34.2361 140.151 40.0696 134.758 45.3345 129.006C54.465 119.03 63.4109 108.588 72.0629 98.4894C75.5052 94.4723 78.9547 90.4611 82.4086 86.4563C87.9918 80.007 93.6417 73.4291 99.1056 67.067L102.549 63.0584C104.231 61.1009 105.621 58.8993 104.412 56.0609C103.233 53.2948 100.782 52.8563 98.3123 52.7943C93.2036 52.6677 88.0961 52.5308 82.9887 52.3836C79.4563 52.2846 75.9239 52.1876 72.3922 52.0928C71.4498 52.0676 70.5164 52.0742 69.4386 52.0807L68.6368 52.0851C68.734 51.8023 68.8261 51.5298 68.9155 51.2682C69.259 50.2562 69.5565 49.3823 69.8877 48.5343C71.4368 44.5495 72.9885 40.5657 74.544 36.5826C77.5903 28.768 80.7442 20.6892 83.8073 12.728C84.6882 10.4301 85.3934 8.06907 85.9164 5.6652C86.0694 5.13012 86.1083 4.56907 86.0298 4.01822C85.9514 3.46738 85.7589 2.93902 85.4634 2.4671C85.1471 2.05374 84.7452 1.7123 84.2863 1.46563C83.8268 1.21896 83.3199 1.07266 82.7995 1.03652C82.1675 0.953211 81.5362 0.855057 80.9049 0.756891C79.2379 0.454081 77.5508 0.280029 75.8572 0.236328H75.8021C68.08 0.262161 60.2299 0.350014 52.6395 0.433973C48.1621 0.483486 43.6848 0.529349 39.2074 0.571543C33.1272 0.622564 32.2949 1.2271 30.2967 7.03832C30.0945 7.62796 29.8711 8.25436 29.6124 8.84659L24.6279 20.2553C19.4051 32.2239 14.0046 44.5987 8.64764 56.7494C7.60671 59.1138 6.46949 61.4892 5.36958 63.7858C4.12319 66.3889 2.83454 69.0814 1.675 71.7803C0.0870444 75.47 -0.146314 77.8738 0.919886 79.5768C1.98609 81.2799 4.23478 82.1163 8.22803 82.3165L13.1151 82.558C16.2469 82.7117 19.3784 82.8699 22.5095 83.0327C25.1312 83.1728 27.7512 83.3311 30.5233 83.4977L33.6995 83.6876C33.2652 85.2776 32.8569 86.8586 32.4551 88.3938C31.4336 92.3165 30.4675 96.0217 29.2023 99.6713ZM59.4519 53.2244C59.0144 55.4132 59.2014 56.9257 60.0355 57.9855C60.8697 59.0453 62.2699 59.5665 64.4581 59.6569C70.6013 59.9095 76.8475 60.0618 82.8889 60.2097C85.2845 60.2678 87.68 60.3284 90.0756 60.3913H90.2318C90.5662 60.3915 90.8994 60.4163 91.2293 60.4655C84.6765 68.0216 78.2456 75.8549 72.0201 83.4409C58.4666 99.9568 44.4697 117.012 28.5687 131.917C29.1961 130.026 29.8285 128.136 30.4663 126.249C32.5404 120.083 34.6797 113.708 36.525 107.355C38.0838 101.983 39.3255 96.4337 40.5265 91.0669C40.9932 88.9828 41.4596 86.8993 41.9437 84.821C42.158 83.8006 42.2632 82.7601 42.257 81.7171C42.3219 76.615 40.6233 74.8655 35.5211 74.7899C29.9814 74.7079 24.3499 74.6827 18.9035 74.6608C16.6764 74.6511 14.4497 74.6401 12.2226 74.6278C11.7722 74.6278 11.3228 74.6246 10.825 74.6246H8.84007C10.3166 71.4774 11.7953 68.3458 13.2752 65.2296C22.571 45.5919 31.3544 27.0371 37.6188 7.27915H77.5274C77.4736 7.45029 77.4231 7.61175 77.3758 7.76417C77.1619 8.45327 77.0076 8.95121 76.8119 9.4259C75.0878 13.6208 73.3605 17.8142 71.6306 22.0061C68.325 30.028 64.9035 38.3225 61.5724 46.4955C60.6518 48.6659 59.9416 50.9192 59.4519 53.2244Z" fill="#CEB693"/>
</g>
<defs>
<clipPath id="clip0_670_510">
<rect width="105" height="155" fill="white"/>
</clipPath>
</defs>
</svg>
