<svg width="140" height="46" viewBox="0 0 140 46" fill="none" xmlns="http://www.w3.org/2000/svg">
<rect x="1.48523" y="1.01288" width="138" height="44" rx="22" fill="#212121"/>
<path d="M67.2679 11.9839L64.9144 18.4634H63.9524L66.6624 11.354H67.2825L67.2679 11.9839ZM69.2405 18.4634L66.8821 11.9839L66.8675 11.354H67.4876L70.2073 18.4634H69.2405ZM69.1185 15.8315V16.603H65.1243V15.8315H69.1185Z" fill="white"/>
<path d="M72.3851 17.6479L73.8304 13.1802H74.7532L72.8538 18.4634H72.2483L72.3851 17.6479ZM71.179 13.1802L72.6683 17.6724L72.7708 18.4634H72.1653L70.2513 13.1802H71.179Z" fill="white"/>
<path d="M78.6595 17.5601V14.8403C78.6595 14.632 78.6172 14.4513 78.5325 14.2983C78.4511 14.1421 78.3274 14.0216 78.1614 13.937C77.9954 13.8524 77.7903 13.8101 77.5462 13.8101C77.3183 13.8101 77.1181 13.8491 76.9456 13.9272C76.7763 14.0054 76.6429 14.1079 76.5452 14.2349C76.4508 14.3618 76.4036 14.4985 76.4036 14.645H75.5003C75.5003 14.4562 75.5491 14.269 75.6468 14.0835C75.7444 13.8979 75.8844 13.7303 76.0667 13.5806C76.2522 13.4276 76.4736 13.3071 76.7308 13.2192C76.9912 13.1281 77.2809 13.0825 77.5999 13.0825C77.984 13.0825 78.3226 13.1476 78.6155 13.2778C78.9118 13.408 79.1429 13.605 79.3089 13.8687C79.4782 14.1291 79.5628 14.4562 79.5628 14.8501V17.311C79.5628 17.4868 79.5774 17.674 79.6067 17.8726C79.6393 18.0711 79.6865 18.242 79.7483 18.3853V18.4634H78.806C78.7604 18.3592 78.7246 18.2209 78.6985 18.0483C78.6725 17.8726 78.6595 17.7098 78.6595 17.5601ZM78.8157 15.2603L78.8255 15.895H77.9124C77.6552 15.895 77.4258 15.9162 77.2239 15.9585C77.0221 15.9976 76.8528 16.0578 76.7161 16.1392C76.5794 16.2205 76.4752 16.3231 76.4036 16.4468C76.332 16.5672 76.2962 16.7088 76.2962 16.8716C76.2962 17.0376 76.3336 17.189 76.4085 17.3257C76.4834 17.4624 76.5957 17.5715 76.7454 17.6528C76.8984 17.731 77.0856 17.77 77.3069 17.77C77.5836 17.77 77.8278 17.7114 78.0394 17.5942C78.2509 17.4771 78.4186 17.3338 78.5423 17.1646C78.6692 16.9953 78.7376 16.8309 78.7474 16.6714L79.1331 17.106C79.1103 17.2427 79.0485 17.394 78.9476 17.5601C78.8466 17.7261 78.7116 17.8856 78.5423 18.0386C78.3763 18.1883 78.1777 18.3136 77.9466 18.4146C77.7187 18.5122 77.4616 18.561 77.1751 18.561C76.817 18.561 76.5029 18.491 76.2327 18.3511C75.9658 18.2111 75.7575 18.0239 75.6077 17.7896C75.4612 17.5519 75.388 17.2866 75.388 16.9937C75.388 16.7104 75.4433 16.4614 75.554 16.2466C75.6647 16.0285 75.8242 15.8478 76.0325 15.7046C76.2409 15.5581 76.4915 15.4474 76.7845 15.3726C77.0774 15.2977 77.4046 15.2603 77.7659 15.2603H78.8157Z" fill="white"/>
<path d="M81.9651 13.1802V18.4634H81.0569V13.1802H81.9651ZM80.9886 11.7788C80.9886 11.6323 81.0325 11.5086 81.1204 11.4077C81.2116 11.3068 81.345 11.2563 81.5208 11.2563C81.6933 11.2563 81.8252 11.3068 81.9163 11.4077C82.0107 11.5086 82.0579 11.6323 82.0579 11.7788C82.0579 11.9188 82.0107 12.0392 81.9163 12.1401C81.8252 12.2378 81.6933 12.2866 81.5208 12.2866C81.345 12.2866 81.2116 12.2378 81.1204 12.1401C81.0325 12.0392 80.9886 11.9188 80.9886 11.7788Z" fill="white"/>
<path d="M84.3968 10.9634V18.4634H83.4886V10.9634H84.3968Z" fill="white"/>
<path d="M88.9622 17.5601V14.8403C88.9622 14.632 88.9199 14.4513 88.8353 14.2983C88.7539 14.1421 88.6302 14.0216 88.4642 13.937C88.2981 13.8524 88.0931 13.8101 87.8489 13.8101C87.6211 13.8101 87.4209 13.8491 87.2483 13.9272C87.0791 14.0054 86.9456 14.1079 86.848 14.2349C86.7536 14.3618 86.7064 14.4985 86.7064 14.645H85.803C85.803 14.4562 85.8519 14.269 85.9495 14.0835C86.0472 13.8979 86.1871 13.7303 86.3694 13.5806C86.555 13.4276 86.7763 13.3071 87.0335 13.2192C87.2939 13.1281 87.5836 13.0825 87.9026 13.0825C88.2868 13.0825 88.6253 13.1476 88.9183 13.2778C89.2145 13.408 89.4456 13.605 89.6116 13.8687C89.7809 14.1291 89.8655 14.4562 89.8655 14.8501V17.311C89.8655 17.4868 89.8802 17.674 89.9095 17.8726C89.942 18.0711 89.9892 18.242 90.0511 18.3853V18.4634H89.1087C89.0631 18.3592 89.0273 18.2209 89.0013 18.0483C88.9752 17.8726 88.9622 17.7098 88.9622 17.5601ZM89.1185 15.2603L89.1282 15.895H88.2151C87.958 15.895 87.7285 15.9162 87.5267 15.9585C87.3248 15.9976 87.1556 16.0578 87.0189 16.1392C86.8821 16.2205 86.778 16.3231 86.7064 16.4468C86.6347 16.5672 86.5989 16.7088 86.5989 16.8716C86.5989 17.0376 86.6364 17.189 86.7112 17.3257C86.7861 17.4624 86.8984 17.5715 87.0481 17.6528C87.2011 17.731 87.3883 17.77 87.6097 17.77C87.8864 17.77 88.1305 17.7114 88.3421 17.5942C88.5537 17.4771 88.7213 17.3338 88.845 17.1646C88.972 16.9953 89.0403 16.8309 89.0501 16.6714L89.4358 17.106C89.4131 17.2427 89.3512 17.394 89.2503 17.5601C89.1494 17.7261 89.0143 17.8856 88.845 18.0386C88.679 18.1883 88.4804 18.3136 88.2493 18.4146C88.0215 18.5122 87.7643 18.561 87.4778 18.561C87.1198 18.561 86.8056 18.491 86.5355 18.3511C86.2685 18.2111 86.0602 18.0239 85.9105 17.7896C85.764 17.5519 85.6907 17.2866 85.6907 16.9937C85.6907 16.7104 85.7461 16.4614 85.8567 16.2466C85.9674 16.0285 86.1269 15.8478 86.3353 15.7046C86.5436 15.5581 86.7942 15.4474 87.0872 15.3726C87.3802 15.2977 87.7073 15.2603 88.0687 15.2603H89.1185Z" fill="white"/>
<path d="M91.2815 10.9634H92.1897V17.438L92.1116 18.4634H91.2815V10.9634ZM95.7591 15.7778V15.8804C95.7591 16.2645 95.7135 16.6209 95.6224 16.9497C95.5312 17.2752 95.3978 17.5584 95.222 17.7993C95.0462 18.0402 94.8314 18.2274 94.5774 18.3608C94.3235 18.4943 94.0322 18.561 93.7034 18.561C93.3681 18.561 93.0735 18.5041 92.8196 18.3901C92.569 18.2729 92.3574 18.1053 92.1849 17.8872C92.0123 17.6691 91.874 17.4054 91.7698 17.0962C91.6689 16.7869 91.5989 16.4386 91.5599 16.0513V15.6021C91.5989 15.2114 91.6689 14.8615 91.7698 14.5522C91.874 14.243 92.0123 13.9793 92.1849 13.7612C92.3574 13.5399 92.569 13.3722 92.8196 13.2583C93.0703 13.1411 93.3616 13.0825 93.6937 13.0825C94.0257 13.0825 94.3203 13.1476 94.5774 13.2778C94.8346 13.4048 95.0494 13.5871 95.222 13.8247C95.3978 14.0623 95.5312 14.3472 95.6224 14.6792C95.7135 15.008 95.7591 15.3742 95.7591 15.7778ZM94.8509 15.8804V15.7778C94.8509 15.5142 94.8265 15.2668 94.7776 15.0356C94.7288 14.8013 94.6507 14.5962 94.5433 14.4204C94.4358 14.2414 94.2942 14.1014 94.1185 14.0005C93.9427 13.8963 93.7262 13.8442 93.469 13.8442C93.2412 13.8442 93.0426 13.8833 92.8733 13.9614C92.7073 14.0396 92.5657 14.1453 92.4485 14.2788C92.3314 14.409 92.2353 14.5588 92.1605 14.728C92.0888 14.894 92.0351 15.0666 91.9993 15.2456V16.4224C92.0514 16.6502 92.136 16.87 92.2532 17.0815C92.3737 17.2899 92.5332 17.4608 92.7317 17.5942C92.9336 17.7277 93.1826 17.7944 93.4788 17.7944C93.723 17.7944 93.9313 17.7456 94.1038 17.6479C94.2796 17.547 94.4212 17.4087 94.5286 17.2329C94.6393 17.0571 94.7207 16.8537 94.7728 16.6226C94.8248 16.3914 94.8509 16.144 94.8509 15.8804Z" fill="white"/>
<path d="M97.8831 10.9634V18.4634H96.9749V10.9634H97.8831Z" fill="white"/>
<path d="M101.526 18.561C101.158 18.561 100.824 18.4992 100.525 18.3755C100.228 18.2485 99.973 18.0711 99.7581 17.8433C99.5465 17.6154 99.3838 17.3452 99.2698 17.0327C99.1559 16.7202 99.0989 16.3784 99.0989 16.0073V15.8022C99.0989 15.3726 99.1624 14.9901 99.2894 14.6548C99.4163 14.3162 99.5888 14.0298 99.8069 13.7954C100.025 13.561 100.272 13.3836 100.549 13.2632C100.826 13.1427 101.112 13.0825 101.409 13.0825C101.786 13.0825 102.112 13.1476 102.385 13.2778C102.662 13.408 102.888 13.5903 103.064 13.8247C103.24 14.0558 103.37 14.3293 103.454 14.645C103.539 14.9575 103.581 15.2993 103.581 15.6704V16.0757H99.636V15.3384H102.678V15.27C102.665 15.0356 102.616 14.8078 102.532 14.5864C102.45 14.3651 102.32 14.1828 102.141 14.0396C101.962 13.8963 101.718 13.8247 101.409 13.8247C101.203 13.8247 101.015 13.8687 100.842 13.9565C100.67 14.0412 100.521 14.1681 100.398 14.3374C100.274 14.5067 100.178 14.7134 100.11 14.9575C100.041 15.2017 100.007 15.4832 100.007 15.8022V16.0073C100.007 16.258 100.041 16.494 100.11 16.7153C100.181 16.9334 100.284 17.1255 100.417 17.2915C100.554 17.4575 100.718 17.5877 100.91 17.6821C101.106 17.7765 101.327 17.8237 101.575 17.8237C101.894 17.8237 102.164 17.7586 102.385 17.6284C102.606 17.4982 102.8 17.3241 102.966 17.106L103.513 17.5405C103.399 17.7131 103.254 17.8774 103.078 18.0337C102.903 18.1899 102.686 18.3169 102.429 18.4146C102.175 18.5122 101.874 18.561 101.526 18.561Z" fill="white"/>
<path d="M106.877 15.8804V15.7681C106.877 15.3872 106.933 15.034 107.043 14.7085C107.154 14.3797 107.313 14.0949 107.522 13.854C107.73 13.6099 107.982 13.4211 108.279 13.2876C108.575 13.1509 108.907 13.0825 109.275 13.0825C109.646 13.0825 109.979 13.1509 110.276 13.2876C110.575 13.4211 110.829 13.6099 111.037 13.854C111.249 14.0949 111.41 14.3797 111.521 14.7085C111.631 15.034 111.687 15.3872 111.687 15.7681V15.8804C111.687 16.2612 111.631 16.6144 111.521 16.9399C111.41 17.2655 111.249 17.5503 111.037 17.7944C110.829 18.0353 110.577 18.2241 110.281 18.3608C109.988 18.4943 109.656 18.561 109.284 18.561C108.913 18.561 108.58 18.4943 108.284 18.3608C107.987 18.2241 107.733 18.0353 107.522 17.7944C107.313 17.5503 107.154 17.2655 107.043 16.9399C106.933 16.6144 106.877 16.2612 106.877 15.8804ZM107.781 15.7681V15.8804C107.781 16.144 107.811 16.3931 107.873 16.6274C107.935 16.8586 108.028 17.0636 108.152 17.2427C108.279 17.4217 108.436 17.5633 108.625 17.6675C108.814 17.7684 109.034 17.8188 109.284 17.8188C109.532 17.8188 109.748 17.7684 109.934 17.6675C110.123 17.5633 110.279 17.4217 110.403 17.2427C110.526 17.0636 110.619 16.8586 110.681 16.6274C110.746 16.3931 110.779 16.144 110.779 15.8804V15.7681C110.779 15.5076 110.746 15.2619 110.681 15.0308C110.619 14.7964 110.525 14.5897 110.398 14.4106C110.274 14.2284 110.118 14.0851 109.929 13.981C109.743 13.8768 109.525 13.8247 109.275 13.8247C109.027 13.8247 108.809 13.8768 108.62 13.981C108.435 14.0851 108.279 14.2284 108.152 14.4106C108.028 14.5897 107.935 14.7964 107.873 15.0308C107.811 15.2619 107.781 15.5076 107.781 15.7681Z" fill="white"/>
<path d="M113.723 14.3081V18.4634H112.82V13.1802H113.674L113.723 14.3081ZM113.508 15.6216L113.132 15.6069C113.135 15.2456 113.189 14.9119 113.293 14.606C113.397 14.2967 113.544 14.0282 113.733 13.8003C113.922 13.5724 114.146 13.3966 114.407 13.2729C114.67 13.146 114.962 13.0825 115.281 13.0825C115.541 13.0825 115.775 13.1183 115.984 13.1899C116.192 13.2583 116.369 13.369 116.516 13.522C116.666 13.675 116.78 13.8735 116.858 14.1177C116.936 14.3586 116.975 14.6532 116.975 15.0015V18.4634H116.067V14.9917C116.067 14.715 116.026 14.4937 115.945 14.3276C115.863 14.1584 115.744 14.0363 115.588 13.9614C115.432 13.8833 115.24 13.8442 115.012 13.8442C114.787 13.8442 114.582 13.8914 114.397 13.9858C114.214 14.0802 114.057 14.2104 113.923 14.3765C113.793 14.5425 113.69 14.7329 113.616 14.9478C113.544 15.1593 113.508 15.384 113.508 15.6216Z" fill="white"/>
<path d="M67.6188 33.5797V29.4677L63.9388 22.6837H65.6028L68.4188 27.9637L71.2988 22.6837H72.8988L69.2188 29.4677L69.2028 33.5797H67.6188Z" fill="white"/>
<path d="M76.1006 33.8197C75.0019 33.8197 74.1539 33.473 73.5566 32.7797C72.9593 32.0864 72.6606 31.1104 72.6606 29.8517C72.6606 28.6037 72.9593 27.633 73.5566 26.9397C74.1539 26.2464 75.0019 25.8997 76.1006 25.8997C77.1993 25.8997 78.0473 26.2464 78.6446 26.9397C79.2419 27.633 79.5406 28.6037 79.5406 29.8517C79.5406 31.1104 79.2419 32.0864 78.6446 32.7797C78.0473 33.473 77.1993 33.8197 76.1006 33.8197ZM76.1006 32.5237C76.7299 32.5237 77.2099 32.2944 77.5406 31.8357C77.8819 31.3664 78.0526 30.705 78.0526 29.8517C78.0526 29.0197 77.8819 28.369 77.5406 27.8997C77.2099 27.4304 76.7299 27.1957 76.1006 27.1957C75.4819 27.1957 75.0019 27.4304 74.6606 27.8997C74.3193 28.369 74.1486 29.0197 74.1486 29.8517C74.1486 30.705 74.3193 31.3664 74.6606 31.8357C75.0019 32.2944 75.4819 32.5237 76.1006 32.5237Z" fill="white"/>
<path d="M84.0361 33.8037C83.1614 33.8037 82.4841 33.5424 82.0041 33.0197C81.5241 32.497 81.2841 31.7237 81.2841 30.6997V26.1397H82.7721V30.3797C82.7721 30.7424 82.8041 31.0784 82.8681 31.3877C82.9428 31.697 83.0868 31.9477 83.3001 32.1397C83.5241 32.3317 83.8548 32.4277 84.2921 32.4277C84.8468 32.4277 85.2734 32.2464 85.5721 31.8837C85.8814 31.521 86.0361 30.9717 86.0361 30.2357V26.1397H87.5241V33.5797H86.1801V32.7477C85.9241 33.0997 85.6094 33.3664 85.2361 33.5477C84.8734 33.7184 84.4734 33.8037 84.0361 33.8037Z" fill="white"/>
<path d="M91.2782 33.5797V24.1077H87.8542V22.6837H96.5262L96.0622 24.1077H92.8782V33.5797H91.2782Z" fill="white"/>
<path d="M99.2048 33.8037C98.3302 33.8037 97.6528 33.5424 97.1728 33.0197C96.6928 32.497 96.4528 31.7237 96.4528 30.6997V26.1397H97.9408V30.3797C97.9408 30.7424 97.9728 31.0784 98.0368 31.3877C98.1115 31.697 98.2555 31.9477 98.4688 32.1397C98.6928 32.3317 99.0235 32.4277 99.4608 32.4277C100.016 32.4277 100.442 32.2464 100.741 31.8837C101.05 31.521 101.205 30.9717 101.205 30.2357V26.1397H102.693V33.5797H101.349V32.7477C101.093 33.0997 100.778 33.3664 100.405 33.5477C100.042 33.7184 99.6422 33.8037 99.2048 33.8037Z" fill="white"/>
<path d="M108.767 33.8037C107.817 33.8037 107.081 33.4624 106.559 32.7797V33.5797H105.151V22.6837H106.639V26.8757C107.161 26.2357 107.871 25.9157 108.767 25.9157C109.748 25.9157 110.521 26.2624 111.087 26.9557C111.663 27.6384 111.951 28.6037 111.951 29.8517C111.951 31.1104 111.663 32.0864 111.087 32.7797C110.521 33.4624 109.748 33.8037 108.767 33.8037ZM108.543 32.5077C109.151 32.5077 109.62 32.2837 109.951 31.8357C110.292 31.377 110.463 30.7157 110.463 29.8517C110.463 29.0304 110.292 28.385 109.951 27.9157C109.62 27.4464 109.151 27.2117 108.543 27.2117C107.935 27.2117 107.465 27.4464 107.135 27.9157C106.804 28.385 106.639 29.0304 106.639 29.8517C106.639 30.705 106.804 31.361 107.135 31.8197C107.465 32.2784 107.935 32.5077 108.543 32.5077Z" fill="white"/>
<path d="M116.883 33.8037C115.784 33.8037 114.925 33.4624 114.307 32.7797C113.699 32.0864 113.395 31.137 113.395 29.9317C113.395 29.153 113.523 28.465 113.779 27.8677C114.035 27.2597 114.408 26.785 114.899 26.4437C115.389 26.0917 115.997 25.9157 116.723 25.9157C117.779 25.9157 118.573 26.257 119.107 26.9397C119.64 27.6117 119.907 28.5237 119.907 29.6757C119.907 29.8037 119.896 29.921 119.875 30.0277C119.864 30.1344 119.853 30.257 119.843 30.3957H114.851C114.904 31.153 115.123 31.7024 115.507 32.0437C115.901 32.385 116.424 32.5557 117.075 32.5557C117.416 32.5557 117.72 32.5077 117.987 32.4117C118.253 32.305 118.541 32.1237 118.851 31.8677L119.603 32.8277C119.197 33.169 118.776 33.4197 118.339 33.5797C117.912 33.729 117.427 33.8037 116.883 33.8037ZM116.739 27.1637C116.152 27.1637 115.704 27.361 115.395 27.7557C115.085 28.1504 114.904 28.6784 114.851 29.3397H118.579C118.557 28.657 118.397 28.1237 118.099 27.7397C117.811 27.3557 117.357 27.1637 116.739 27.1637Z" fill="white"/>
<path d="M37.5035 35.2465C37.5035 35.2465 49.0087 35.2465 51.8625 34.4752C53.4694 34.0382 54.6777 32.7784 55.102 31.2229C55.8861 28.3691 55.8861 22.3658 55.8861 22.3658C55.8861 22.3658 55.8861 16.4011 55.102 13.573C54.6777 11.979 53.4694 10.7449 51.8625 10.3207C49.0087 9.53656 37.5035 9.53656 37.5035 9.53656C37.5035 9.53656 26.024 9.53656 23.183 10.3207C21.6019 10.7449 20.3678 11.979 19.9179 13.573C19.1594 16.4011 19.1594 22.3658 19.1594 22.3658C19.1594 22.3658 19.1594 28.3691 19.9179 31.2229C20.3678 32.7784 21.6019 34.0382 23.183 34.4752C26.024 35.2465 37.5035 35.2465 37.5035 35.2465Z" fill="#FF0000"/>
<path d="M43.3791 22.3659L33.8535 16.8768V27.8935L43.3791 22.3659Z" fill="white"/>
<rect x="1.48523" y="1.01288" width="138" height="44" rx="22" stroke="#212121"/>
</svg>
