<svg width="416" height="273" viewBox="0 0 416 273" fill="none" xmlns="http://www.w3.org/2000/svg">
<path d="M357.705 39.807C327.151 50.1341 294.897 69.0584 282.384 100.491C274.387 120.578 280.277 147.049 296.962 160.899C312.721 173.979 334.173 180.594 352.163 168.435C361.541 162.098 366.943 152.449 362.244 141.307C355.065 124.284 329.607 118.23 313.178 119.359C261.905 122.884 208.988 158.455 188.34 205.775" stroke="#4E3505" stroke-width="4" stroke-linecap="round" stroke-dasharray="8 8"/>
<path d="M186.114 167.258C185.655 176.269 185.244 196.867 187.27 207.173" stroke="#4E3505" stroke-width="4" stroke-linecap="round" stroke-dasharray="8 8"/>
<path d="M187.27 207.173C195.436 203.338 214.346 195.16 224.653 193.135" stroke="#4E3505" stroke-width="4" stroke-linecap="round" stroke-dasharray="8 8"/>
<path d="M8.11083 232.368C7.15083 232.128 6.28683 231.648 5.51883 230.928C4.77483 230.208 4.29483 229.464 4.07883 228.696C4.05483 228.384 4.01883 227.976 3.97083 227.472C3.94683 226.968 3.93483 226.5 3.93483 226.068C3.95883 225.636 3.99483 225.384 4.04283 225.312C4.11483 225.264 4.15083 225.12 4.15083 224.88C4.12683 224.784 4.13883 224.628 4.18683 224.412C4.25883 224.172 4.33083 223.932 4.40283 223.692C4.52283 223.404 4.58283 223.176 4.58283 223.008C4.58283 222.816 4.57083 222.672 4.54683 222.576C4.54683 222.576 4.58283 222.504 4.65483 222.36C4.72683 222.192 4.81083 222.06 4.90683 221.964C5.05083 221.82 5.11083 221.676 5.08683 221.532C5.08683 221.388 5.08683 221.316 5.08683 221.316C5.06283 221.22 5.08683 221.088 5.15883 220.92C5.23083 220.752 5.30283 220.62 5.37483 220.524C5.42283 220.476 5.48283 220.38 5.55483 220.236C5.65083 220.068 5.69883 219.984 5.69883 219.984C5.69883 219.912 5.74683 219.72 5.84283 219.408C5.96283 219.096 6.09483 218.76 6.23883 218.4C6.38283 218.016 6.51483 217.668 6.63483 217.356C6.77883 217.044 6.88683 216.84 6.95883 216.744V216.672C7.05483 216.432 7.18683 216.18 7.35483 215.916C7.37883 215.796 7.43883 215.604 7.53483 215.34C7.63083 215.052 7.73883 214.776 7.85883 214.512C8.12283 213.936 8.44683 213.288 8.83083 212.568C9.23883 211.824 9.67083 211.092 10.1268 210.372C10.5828 209.628 11.0148 208.968 11.4228 208.392C11.8548 207.792 12.2268 207.348 12.5388 207.06C12.9468 206.604 13.2708 206.364 13.5108 206.34C13.7508 206.316 14.0508 206.484 14.4108 206.844C14.5788 207.012 14.6988 207.216 14.7708 207.456C14.8428 207.696 14.8668 207.912 14.8428 208.104C14.8428 208.272 14.7948 208.368 14.6988 208.392C14.5308 208.488 14.2788 208.764 13.9428 209.22C13.6068 209.652 13.2228 210.168 12.7908 210.768C12.3828 211.368 11.9748 211.992 11.5668 212.64C11.1828 213.264 10.8468 213.828 10.5588 214.332C10.2468 215.028 9.95883 215.64 9.69483 216.168C9.43083 216.672 9.29883 216.924 9.29883 216.924C9.27483 216.996 9.25083 217.056 9.22683 217.104C9.20283 217.152 9.17883 217.2 9.15483 217.248C8.79483 217.992 8.49483 218.676 8.25483 219.3C8.01483 219.9 7.77483 220.536 7.53483 221.208C7.39083 221.376 7.30683 221.544 7.28283 221.712C7.25883 221.88 7.24683 221.964 7.24683 221.964C7.19883 221.94 7.16283 222 7.13883 222.144C7.11483 222.264 7.06683 222.408 6.99483 222.576C6.87483 222.672 6.80283 222.828 6.77883 223.044C6.75483 223.236 6.74283 223.428 6.74283 223.62C6.57483 224.052 6.41883 224.58 6.27483 225.204C6.13083 225.804 6.02283 226.392 5.95083 226.968C5.90283 227.52 5.89083 227.952 5.91483 228.264C5.96283 228.672 6.16683 229.044 6.52683 229.38C6.91083 229.692 7.36683 229.956 7.89483 230.172C8.15883 230.268 8.38683 230.352 8.57883 230.424C8.77083 230.472 8.95083 230.496 9.11883 230.496C9.31083 230.52 9.55083 230.52 9.83883 230.496C10.1508 230.448 10.5708 230.376 11.0988 230.28H11.0628C11.3748 230.232 11.6988 230.172 12.0348 230.1C12.3948 230.004 12.7308 229.92 13.0428 229.848C13.3308 229.8 13.6068 229.752 13.8708 229.704C14.1348 229.632 14.3388 229.572 14.4828 229.524C15.0108 229.38 15.3948 229.284 15.6348 229.236C15.8748 229.164 16.0548 229.176 16.1748 229.272C16.2948 229.368 16.3788 229.488 16.4268 229.632C16.4748 229.752 16.4628 229.92 16.3908 230.136C16.3428 230.256 16.1508 230.436 15.8148 230.676C15.4788 230.892 15.0708 231.108 14.5908 231.324C14.1348 231.54 13.6788 231.72 13.2228 231.864C12.7428 232.08 12.1668 232.248 11.4948 232.368C10.8468 232.488 10.2108 232.548 9.58683 232.548C8.98683 232.548 8.49483 232.488 8.11083 232.368ZM19.479 229.704C19.383 229.512 19.263 229.368 19.119 229.272C18.975 229.152 18.903 229.044 18.903 228.948C18.903 228.852 18.891 228.756 18.867 228.66C18.867 228.54 18.819 228.432 18.723 228.336C18.603 228.192 18.615 227.868 18.759 227.364C18.903 226.836 19.143 226.2 19.479 225.456C19.815 224.688 20.211 223.884 20.667 223.044C20.859 222.852 21.051 222.6 21.243 222.288C21.435 221.976 21.579 221.772 21.675 221.676C21.675 221.58 21.711 221.496 21.783 221.424C21.855 221.328 21.939 221.28 22.035 221.28V221.064C22.035 220.944 22.143 220.74 22.359 220.452C22.599 220.164 22.887 219.852 23.223 219.516C23.559 219.156 23.907 218.82 24.267 218.508C24.627 218.172 24.927 217.932 25.167 217.788C25.671 217.452 26.187 217.248 26.715 217.176C27.267 217.104 27.735 217.224 28.119 217.536C28.191 217.608 28.311 217.728 28.479 217.896C28.647 218.064 28.839 218.256 29.055 218.472C29.295 218.664 29.535 218.868 29.775 219.084L31.107 220.272L30.459 222.072C30.147 223.032 30.063 223.872 30.207 224.592C30.375 225.312 30.615 225.936 30.927 226.464C31.047 226.728 31.287 226.98 31.647 227.22C32.031 227.46 32.391 227.604 32.727 227.652C32.919 227.676 33.099 227.748 33.267 227.868C33.435 227.988 33.519 228.18 33.519 228.444C33.519 228.684 33.471 228.876 33.375 229.02C33.279 229.164 33.111 229.26 32.871 229.308C32.079 229.404 31.335 229.212 30.639 228.732C29.967 228.252 29.343 227.46 28.767 226.356C28.671 226.212 28.539 225.948 28.371 225.564C28.227 225.156 28.143 224.892 28.119 224.772C28.023 224.892 27.843 225.12 27.579 225.456C27.315 225.768 27.111 225.996 26.967 226.14C25.263 227.868 23.787 229.032 22.539 229.632C21.315 230.208 20.295 230.232 19.479 229.704ZM20.775 227.688C20.775 227.856 21.027 227.856 21.531 227.688C22.059 227.496 22.623 227.16 23.223 226.68C24.039 225.984 24.855 225.216 25.671 224.376C26.511 223.536 27.183 222.756 27.687 222.036L28.479 220.74C28.239 220.188 27.975 219.816 27.687 219.624C27.423 219.408 27.195 219.3 27.003 219.3C26.691 219.3 26.223 219.588 25.599 220.164C24.999 220.74 24.351 221.508 23.655 222.468C22.959 223.428 22.299 224.484 21.675 225.636C21.435 226.116 21.219 226.584 21.027 227.04C20.859 227.472 20.775 227.688 20.775 227.688ZM37.7858 230.748C37.5218 230.7 37.2458 230.568 36.9578 230.352C36.6938 230.112 36.4538 229.848 36.2378 229.56C36.0458 229.248 35.9138 228.972 35.8418 228.732C35.8418 228.684 35.8058 228.624 35.7338 228.552C35.6858 228.48 35.6618 228.444 35.6618 228.444C35.5658 228.372 35.5058 228.06 35.4818 227.508C35.4818 226.932 35.5178 226.296 35.5898 225.6C35.6618 224.904 35.7458 224.352 35.8418 223.944C35.9618 223.56 36.1418 223.044 36.3818 222.396C36.6218 221.724 36.8258 221.124 36.9938 220.596L37.9658 218.508L36.5258 218.112C36.3578 218.064 36.2138 217.968 36.0938 217.824C35.9978 217.68 35.9498 217.56 35.9498 217.464C35.9498 217.272 36.0578 217.044 36.2738 216.78C36.4898 216.492 36.6458 216.348 36.7418 216.348C36.8618 216.372 37.0778 216.384 37.3898 216.384C37.7258 216.384 38.0498 216.372 38.3618 216.348C38.6738 216.324 38.8658 216.3 38.9378 216.276C39.0338 216.228 39.1298 216.168 39.2258 216.096C39.3218 216 39.3938 215.868 39.4418 215.7C39.5618 215.436 39.6698 215.196 39.7658 214.98C39.8618 214.74 39.9938 214.476 40.1618 214.188C40.3298 213.876 40.4618 213.612 40.5578 213.396C40.6778 213.18 40.8578 212.88 41.0978 212.496C41.2178 212.328 41.3498 212.124 41.4938 211.884C41.6378 211.644 41.8178 211.44 42.0338 211.272C42.2498 211.08 42.4658 210.996 42.6818 211.02C42.9218 211.02 43.2218 211.176 43.5818 211.488C43.7738 211.728 43.8818 211.908 43.9058 212.028C43.9298 212.148 43.8338 212.376 43.6178 212.712C43.4258 213.12 43.1978 213.528 42.9338 213.936C42.6938 214.344 42.4658 214.752 42.2498 215.16C41.8658 215.688 41.7938 215.988 42.0338 216.06C42.2738 216.132 42.9458 216.084 44.0498 215.916C44.7458 215.796 45.2498 215.832 45.5618 216.024C45.8738 216.192 46.0538 216.48 46.1018 216.888C46.1738 217.464 46.1138 217.812 45.9218 217.932C45.7298 218.052 45.1778 218.112 44.2658 218.112C43.6898 218.208 43.1978 218.268 42.7898 218.292C42.3818 218.292 42.0818 218.292 41.8898 218.292C41.5778 218.316 41.3738 218.328 41.2778 218.328C41.1818 218.328 41.0378 218.352 40.8458 218.4C40.6538 218.448 40.5098 218.532 40.4138 218.652C40.3418 218.748 40.2578 218.892 40.1618 219.084C40.0658 219.18 39.9218 219.432 39.7298 219.84C39.5378 220.248 39.2978 220.692 39.0098 221.172C38.6738 222.18 38.3858 223.188 38.1458 224.196C37.9058 225.18 37.7138 226.14 37.5698 227.076C37.4738 227.676 37.4858 228.096 37.6058 228.336C37.7258 228.552 38.0378 228.684 38.5418 228.732C38.8058 228.756 39.2258 228.756 39.8018 228.732C40.4018 228.684 40.8698 228.612 41.2058 228.516C41.4698 228.396 41.7458 228.276 42.0338 228.156C42.3218 228.012 42.5858 227.868 42.8258 227.724C43.0418 227.604 43.2578 227.484 43.4738 227.364C43.6898 227.22 43.7978 227.148 43.7978 227.148C43.9178 226.956 44.0498 226.896 44.1938 226.968C44.3378 227.04 44.4578 227.22 44.5538 227.508C44.5538 227.796 44.4938 228.096 44.3738 228.408C44.2538 228.72 43.8098 229.092 43.0418 229.524C41.9618 230.196 40.9658 230.604 40.0538 230.748C39.1658 230.868 38.4098 230.868 37.7858 230.748ZM50.3158 231.108C49.2598 231.108 48.3958 230.712 47.7238 229.92C47.0518 229.104 46.7278 228.096 46.7518 226.896C46.7998 226.032 46.9678 225.108 47.2558 224.124C47.5678 223.116 47.9758 222.156 48.4798 221.244C48.9838 220.308 49.5358 219.492 50.1358 218.796C50.7358 218.1 51.3598 217.608 52.0078 217.32C52.2478 217.2 52.4998 217.104 52.7638 217.032C53.0518 216.96 53.3398 216.924 53.6278 216.924C53.8918 216.924 54.1678 216.972 54.4558 217.068C54.7438 217.14 54.9838 217.224 55.1758 217.32C55.5838 217.488 55.8958 217.692 56.1118 217.932C56.3278 218.172 56.5198 218.544 56.6878 219.048C56.7598 219.504 56.7958 219.828 56.7958 220.02C56.7958 220.212 56.7358 220.5 56.6158 220.884C56.3278 221.748 55.9558 222.492 55.4998 223.116C55.0438 223.74 54.4318 224.268 53.6638 224.7C53.4718 224.82 53.2438 224.916 52.9798 224.988C52.7398 225.036 52.4878 225.06 52.2238 225.06C51.7438 225.06 51.2758 224.976 50.8198 224.808C50.3878 224.616 50.0398 224.34 49.7758 223.98L49.5238 223.692L49.4158 223.98C49.1758 224.628 48.9838 225.228 48.8398 225.78C48.7198 226.332 48.6598 226.836 48.6598 227.292C48.6598 227.58 48.6838 227.856 48.7318 228.12C48.8038 228.384 48.8998 228.612 49.0198 228.804C49.1158 228.948 49.2718 229.056 49.4878 229.128C49.7278 229.176 49.9798 229.2 50.2438 229.2C50.4118 229.2 50.5798 229.2 50.7478 229.2C50.9398 229.176 51.1198 229.128 51.2878 229.056C51.6958 228.912 52.0198 228.756 52.2598 228.588C52.5238 228.42 52.7878 228.24 53.0518 228.048L53.1958 227.976H53.1598C53.4478 227.832 53.6998 227.688 53.9158 227.544C54.1558 227.4 54.2758 227.328 54.2758 227.328C54.3718 227.328 54.4678 227.268 54.5638 227.148C54.7558 227.052 54.9958 227.088 55.2838 227.256C55.5958 227.424 55.7518 227.64 55.7518 227.904C55.7278 228.024 55.6198 228.216 55.4278 228.48C55.2358 228.72 55.0198 228.948 54.7798 229.164C54.5638 229.38 54.3838 229.5 54.2398 229.524C54.2158 229.548 54.1318 229.596 53.9878 229.668C53.8438 229.716 53.7478 229.764 53.6998 229.812H53.7358C53.5198 230.1 53.3038 230.244 53.0878 230.244H52.7998C52.7038 230.412 52.3918 230.604 51.8638 230.82C51.3358 231.012 50.8198 231.108 50.3158 231.108ZM51.9358 223.188C52.3678 223.188 52.7398 223.068 53.0518 222.828C53.3878 222.564 53.6758 222.276 53.9158 221.964C54.3958 221.316 54.6718 220.692 54.7438 220.092C54.8398 219.468 54.7678 219.036 54.5278 218.796C54.3838 218.724 54.2518 218.688 54.1318 218.688C54.0358 218.664 53.8318 218.7 53.5198 218.796C53.3038 218.844 53.0038 219.024 52.6198 219.336C52.2358 219.648 51.8518 219.996 51.4678 220.38C51.1078 220.764 50.8318 221.088 50.6398 221.352L50.1718 222.108C50.3638 222.036 50.5438 222 50.7118 222C50.9038 221.976 51.0118 221.988 51.0358 222.036C51.0358 222.252 51.0718 222.456 51.1438 222.648C51.2398 222.816 51.3478 222.948 51.4678 223.044C51.6118 223.14 51.7678 223.188 51.9358 223.188ZM61.9868 230.676C61.3868 230.724 60.8108 230.688 60.2588 230.568C59.7308 230.448 59.2748 230.244 58.8908 229.956C58.5308 229.644 58.2788 229.272 58.1348 228.84C57.9668 228.504 57.8828 228.276 57.8828 228.156C57.8828 228.012 57.9668 227.892 58.1348 227.796C58.3268 227.796 58.4948 227.856 58.6388 227.976C58.8068 228.072 59.0228 228.18 59.2868 228.3C59.6468 228.612 60.0788 228.78 60.5828 228.804C61.1108 228.828 61.5908 228.744 62.0228 228.552C62.4548 228.36 62.6948 228.12 62.7428 227.832C62.7428 227.736 62.7068 227.568 62.6348 227.328C62.5628 227.088 62.4788 226.836 62.3828 226.572C61.7348 225.66 61.2548 224.76 60.9428 223.872C60.6548 222.96 60.5108 222.216 60.5108 221.64C60.5108 221.208 60.6428 220.752 60.9068 220.272C61.1708 219.768 61.5308 219.348 61.9868 219.012C62.4188 218.556 62.8988 218.148 63.4268 217.788C63.9548 217.428 64.4828 217.116 65.0108 216.852C65.5628 216.588 66.0548 216.396 66.4868 216.276C66.7508 216.276 67.0988 216.312 67.5308 216.384C67.9628 216.456 68.2628 216.54 68.4308 216.636C68.6948 216.732 68.9468 216.996 69.1868 217.428C69.4268 217.836 69.5468 218.244 69.5468 218.652C69.5468 218.82 69.4988 219.036 69.4028 219.3C69.3068 219.564 69.1508 219.876 68.9348 220.236C68.8388 220.5 68.7308 220.752 68.6108 220.992C68.4908 221.208 68.4308 221.364 68.4308 221.46C68.3108 221.724 68.1428 221.856 67.9268 221.856C67.7348 221.832 67.5308 221.724 67.3148 221.532C67.1228 221.316 66.9668 221.064 66.8468 220.776C66.7508 220.416 66.7148 220.128 66.7388 219.912C66.7628 219.672 66.8588 219.42 67.0268 219.156C67.2908 218.892 67.4228 218.712 67.4228 218.616C67.4228 218.52 67.2908 218.472 67.0268 218.472C66.8588 218.472 66.5468 218.58 66.0908 218.796C65.6588 218.988 65.1908 219.252 64.6868 219.588C64.2068 219.9 63.7868 220.236 63.4268 220.596C62.9708 221.028 62.6948 221.34 62.5988 221.532C62.5268 221.724 62.4908 222.024 62.4908 222.432C62.4908 222.768 62.5628 223.188 62.7068 223.692C62.8748 224.196 63.0428 224.532 63.2108 224.7C63.2108 224.7 63.2948 224.868 63.4628 225.204C63.6308 225.516 63.8348 225.852 64.0748 226.212C64.7708 227.748 64.9508 228.852 64.6148 229.524C64.2788 230.196 63.4028 230.58 61.9868 230.676ZM74.0763 232.8C73.2843 232.68 72.7443 232.38 72.4563 231.9C72.1923 231.444 72.1323 230.736 72.2763 229.776C72.4203 229.32 72.5043 228.912 72.5283 228.552C72.5763 228.168 72.6843 227.928 72.8523 227.832C72.8523 227.832 72.8643 227.796 72.8883 227.724C72.9363 227.652 72.9243 227.58 72.8523 227.508C72.8523 227.196 72.9603 226.764 73.1763 226.212C73.2243 226.068 73.2843 225.9 73.3563 225.708C73.4523 225.492 73.5003 225.384 73.5003 225.384C73.3803 225.192 73.3803 225.036 73.5003 224.916C73.6203 224.796 73.7403 224.688 73.8603 224.592C74.0043 224.472 74.0163 224.34 73.8963 224.196C73.8483 224.1 73.9083 223.884 74.0763 223.548C74.2443 223.188 74.4363 222.816 74.6523 222.432C74.8683 222.048 75.0123 221.748 75.0843 221.532C75.0843 221.484 75.1443 221.316 75.2643 221.028C75.3843 220.74 75.5283 220.404 75.6963 220.02C75.8643 219.636 76.0203 219.288 76.1643 218.976C76.3323 218.664 76.4403 218.46 76.4883 218.364C76.7283 218.244 76.6323 218.16 76.2003 218.112C75.7683 218.064 75.3123 218.052 74.8323 218.076C74.0883 218.052 73.4883 218.016 73.0323 217.968C72.6003 217.92 72.2403 217.812 71.9523 217.644C71.6643 217.308 71.5563 217.068 71.6283 216.924C71.7243 216.756 72.0123 216.66 72.4923 216.636C72.8043 216.612 73.0443 216.6 73.2123 216.6C73.4043 216.6 73.6443 216.588 73.9323 216.564C74.2443 216.516 74.7243 216.456 75.3723 216.384L77.2083 216.24L77.3163 215.628C77.5083 215.316 77.6643 215.04 77.7843 214.8C77.9283 214.536 78.0483 214.272 78.1443 214.008C78.2403 213.744 78.3123 213.468 78.3603 213.18C78.3603 213.18 78.4683 212.988 78.6843 212.604C78.9003 212.196 79.0323 211.776 79.0803 211.344C79.3683 210.864 79.6203 210.432 79.8363 210.048C80.0523 209.64 80.1843 209.388 80.2323 209.292C80.4963 209.076 80.6763 208.968 80.7723 208.968C80.8923 208.968 81.1323 209.088 81.4923 209.328C81.7083 209.448 81.9003 209.592 82.0683 209.76C82.2363 209.928 82.3443 210.108 82.3923 210.3C82.4403 210.468 82.3683 210.636 82.1763 210.804C82.1283 210.9 82.0563 211.08 81.9603 211.344C81.8643 211.584 81.7923 211.788 81.7443 211.956C81.6003 212.124 81.4203 212.4 81.2043 212.784C81.0123 213.144 80.8803 213.516 80.8083 213.9C80.6163 214.308 80.4363 214.68 80.2683 215.016C80.1003 215.328 79.9683 215.484 79.8723 215.484C79.9203 215.724 80.0643 215.844 80.3043 215.844C80.5443 215.82 80.9403 215.796 81.4923 215.772C81.9483 215.724 82.2603 215.676 82.4283 215.628C82.6203 215.556 82.8363 215.58 83.0763 215.7C83.1963 215.868 83.2923 216.06 83.3643 216.276C83.4363 216.492 83.4483 216.696 83.4003 216.888C83.3763 217.056 83.2803 217.176 83.1123 217.248C82.9923 217.248 82.7403 217.32 82.3563 217.464C81.9963 217.584 81.5403 217.656 80.9883 217.68L79.0803 217.86L78.4683 219.084C78.3003 219.396 78.1563 219.684 78.0363 219.948C77.9163 220.188 77.8323 220.332 77.7843 220.38C77.7843 220.524 77.7003 220.74 77.5323 221.028C77.3883 221.316 77.2323 221.628 77.0643 221.964C76.9203 222.372 76.7523 222.744 76.5603 223.08C76.3923 223.416 76.3083 223.584 76.3083 223.584C76.2123 223.584 76.1643 223.656 76.1643 223.8C76.2843 224.088 76.2483 224.304 76.0563 224.448C75.9363 224.52 75.8283 224.628 75.7323 224.772C75.6603 224.892 75.6243 224.952 75.6243 224.952C75.7203 225.048 75.7323 225.168 75.6603 225.312C75.6123 225.456 75.5403 225.612 75.4443 225.78C75.4443 225.972 75.3843 226.248 75.2643 226.608C75.1683 226.968 75.0603 227.304 74.9403 227.616C74.9643 228.048 74.9883 228.324 75.0123 228.444C75.0363 228.564 75.0963 228.612 75.1923 228.588C75.3123 228.612 75.4203 228.612 75.5163 228.588C75.6123 228.564 75.7083 228.552 75.8043 228.552C76.1403 228.408 75.9603 229.248 75.2643 231.072C74.8803 231.672 74.6163 232.104 74.4723 232.368C74.3283 232.656 74.1963 232.8 74.0763 232.8ZM93.993 230.136C93.057 229.752 92.445 229.224 92.157 228.552C91.893 227.856 91.845 226.788 92.013 225.348C92.061 224.604 92.085 224.112 92.085 223.872C92.085 223.632 91.953 223.392 91.689 223.152C91.617 223.056 91.485 222.924 91.293 222.756C91.125 222.588 91.053 222.444 91.077 222.324C91.053 222.156 91.065 221.976 91.113 221.784C91.161 221.568 91.233 221.46 91.329 221.46C91.425 221.46 91.521 221.436 91.617 221.388C91.737 221.34 91.845 221.34 91.941 221.388C92.037 221.388 92.145 221.4 92.265 221.424C92.385 221.448 92.445 221.508 92.445 221.604C92.541 221.772 92.697 221.796 92.913 221.676C93.129 221.532 93.357 221.22 93.597 220.74C93.837 220.356 94.149 219.972 94.533 219.588C94.941 219.204 95.337 218.856 95.721 218.544C96.129 218.208 96.465 217.968 96.729 217.824C96.849 217.776 97.029 217.716 97.269 217.644C97.509 217.572 97.761 217.512 98.025 217.464C98.313 217.416 98.553 217.404 98.745 217.428C99.177 217.452 99.537 217.572 99.825 217.788C100.137 218.004 100.425 218.256 100.689 218.544C101.001 218.76 101.193 219.048 101.265 219.408C101.361 219.768 101.385 220.152 101.337 220.56C101.289 220.968 101.181 221.34 101.013 221.676C100.941 221.916 100.737 222.204 100.401 222.54C100.065 222.876 99.681 223.2 99.249 223.512C98.817 223.824 98.421 224.052 98.061 224.196C97.749 224.268 97.341 224.328 96.837 224.376C96.357 224.424 95.901 224.448 95.469 224.448C95.061 224.424 94.785 224.376 94.641 224.304C94.473 224.208 94.341 224.34 94.245 224.7C94.149 225.06 94.077 225.576 94.029 226.248C93.981 226.776 93.981 227.16 94.029 227.4C94.077 227.64 94.125 227.808 94.173 227.904C94.341 228.072 94.569 228.288 94.857 228.552C95.169 228.792 95.601 228.828 96.153 228.66C96.609 228.54 97.053 228.228 97.485 227.724C97.941 227.22 98.361 226.812 98.745 226.5C98.841 226.332 98.997 226.236 99.213 226.212C99.453 226.164 99.705 226.176 99.969 226.248C100.233 226.416 100.341 226.62 100.293 226.86C100.269 227.076 100.149 227.412 99.933 227.868C99.861 228.036 99.693 228.252 99.429 228.516C99.189 228.756 98.913 229.008 98.601 229.272C98.313 229.512 98.049 229.704 97.809 229.848C97.089 230.232 96.417 230.436 95.793 230.46C95.169 230.46 94.569 230.352 93.993 230.136ZM96.117 222.828C96.645 222.708 97.065 222.624 97.377 222.576C97.689 222.528 97.989 222.396 98.277 222.18C98.565 221.94 98.925 221.496 99.357 220.848C99.453 220.584 99.477 220.32 99.429 220.056C99.405 219.792 99.345 219.612 99.249 219.516C99.033 219.276 98.769 219.204 98.457 219.3C98.169 219.372 97.893 219.504 97.629 219.696C97.461 219.768 97.209 219.948 96.873 220.236C96.561 220.5 96.249 220.812 95.937 221.172C95.625 221.508 95.373 221.82 95.181 222.108C94.989 222.396 94.941 222.564 95.037 222.612C94.989 222.708 95.121 222.768 95.433 222.792C95.769 222.816 95.997 222.828 96.117 222.828ZM101.776 239.064C101.68 239.064 101.56 239.064 101.416 239.064C101.272 239.088 101.14 238.992 101.02 238.776C100.924 238.656 100.864 238.476 100.84 238.236C100.84 237.996 100.9 237.564 101.02 236.94C101.14 236.532 101.236 236.124 101.308 235.716C101.38 235.332 101.416 235.044 101.416 234.852C101.416 234.756 101.44 234.564 101.488 234.276C101.56 234.012 101.596 233.82 101.596 233.7C101.716 233.508 101.812 233.244 101.884 232.908C101.956 232.572 101.992 232.272 101.992 232.008C101.992 231.72 102.136 231.456 102.424 231.216C102.424 231.024 102.46 230.784 102.532 230.496C102.628 230.208 102.676 230.016 102.676 229.92C102.748 229.584 102.904 228.996 103.144 228.156C103.408 227.292 103.72 226.32 104.08 225.24C104.464 224.16 104.836 223.104 105.196 222.072C105.556 221.04 105.88 220.164 106.168 219.444C106.456 218.772 106.648 218.196 106.744 217.716C106.864 217.212 106.924 216.84 106.924 216.6C106.924 216.504 106.948 216.432 106.996 216.384C107.044 216.312 107.152 216.18 107.32 215.988C107.56 215.748 107.764 215.676 107.932 215.772C108.124 215.868 108.352 216.012 108.616 216.204C108.808 216.516 108.94 216.78 109.012 216.996C109.108 217.212 109.108 217.584 109.012 218.112C109.012 218.472 108.952 218.784 108.832 219.048C108.712 219.312 108.604 219.516 108.508 219.66C108.412 219.78 108.388 219.828 108.436 219.804C109.42 219.348 110.284 219.108 111.028 219.084C111.796 219.036 112.432 219.168 112.936 219.48C113.464 219.768 113.86 220.176 114.124 220.704C114.388 221.232 114.52 221.844 114.52 222.54C114.52 222.828 114.46 223.176 114.34 223.584C114.22 223.968 114.064 224.328 113.872 224.664C113.704 224.976 113.548 225.204 113.404 225.348C113.308 225.348 113.212 225.432 113.116 225.6C113.02 225.744 112.924 225.912 112.828 226.104C112.636 226.344 112.324 226.62 111.892 226.932C111.484 227.22 111.076 227.46 110.668 227.652C110.26 227.82 109.96 227.868 109.768 227.796C109.768 227.796 109.732 227.808 109.66 227.832C109.612 227.832 109.588 227.892 109.588 228.012C109.588 228.06 109.396 228.168 109.012 228.336C108.628 228.48 108.184 228.624 107.68 228.768C107.176 228.888 106.732 228.948 106.348 228.948C105.844 228.948 105.484 228.852 105.268 228.66C105.22 228.708 105.16 228.78 105.088 228.876C105.04 228.972 105.016 229.056 105.016 229.128C105.016 229.272 104.956 229.548 104.836 229.956C104.74 230.34 104.62 230.712 104.476 231.072C104.332 231.432 104.2 231.612 104.08 231.612C104.08 231.612 104.056 231.648 104.008 231.72C103.96 231.792 103.984 231.888 104.08 232.008C104.08 232.008 104.068 232.14 104.044 232.404C104.044 232.692 103.984 232.932 103.864 233.124C103.864 233.316 103.828 233.604 103.756 233.988C103.684 234.372 103.6 234.66 103.504 234.852C103.504 235.14 103.456 235.416 103.36 235.68C103.288 235.968 103.204 236.112 103.108 236.112C103.012 236.136 102.952 236.28 102.928 236.544C102.904 236.832 102.892 237.036 102.892 237.156C102.868 237.756 102.748 238.224 102.532 238.56C102.316 238.896 102.064 239.064 101.776 239.064ZM106.132 227.04C106.324 227.04 106.72 226.956 107.32 226.788C107.92 226.62 108.532 226.416 109.156 226.176C109.804 225.912 110.284 225.648 110.596 225.384C111.22 224.832 111.7 224.208 112.036 223.512C112.396 222.792 112.372 222.108 111.964 221.46C111.772 221.124 111.424 220.992 110.92 221.064C110.416 221.112 109.864 221.304 109.264 221.64C108.664 221.976 108.1 222.396 107.572 222.9C107.284 223.212 107.02 223.596 106.78 224.052C106.54 224.508 106.336 224.964 106.168 225.42C106.024 225.876 105.94 226.26 105.916 226.572C105.892 226.884 105.964 227.04 106.132 227.04ZM117.182 229.848C116.99 229.656 116.846 229.416 116.75 229.128C116.678 228.84 116.654 228.552 116.678 228.264C116.702 227.976 116.762 227.736 116.858 227.544C116.858 227.352 116.882 227.208 116.93 227.112C117.002 226.992 117.026 226.884 117.002 226.788C116.978 226.692 117.002 226.524 117.074 226.284C117.146 226.044 117.218 225.816 117.29 225.6C117.458 225.216 117.638 224.76 117.83 224.232C118.022 223.68 118.202 223.14 118.37 222.612C118.538 222.084 118.682 221.628 118.802 221.244C118.922 220.86 118.994 220.62 119.018 220.524C119.018 220.236 119.21 220.08 119.594 220.056C119.882 219.96 120.098 219.96 120.242 220.056C120.386 220.128 120.578 220.356 120.818 220.74C121.01 220.932 121.082 221.22 121.034 221.604C120.986 221.988 120.83 222.468 120.566 223.044C120.47 223.236 120.35 223.512 120.206 223.872C120.086 224.232 120.002 224.556 119.954 224.844C119.858 225.036 119.738 225.312 119.594 225.672C119.474 226.008 119.366 226.332 119.27 226.644C119.222 226.764 119.174 226.944 119.126 227.184C119.078 227.4 119.018 227.64 118.946 227.904C118.874 228.144 118.778 228.36 118.658 228.552C118.442 229.536 118.238 230.112 118.046 230.28C117.878 230.448 117.59 230.304 117.182 229.848ZM120.674 215.232C120.554 215.112 120.446 214.944 120.35 214.728C120.254 214.488 120.194 214.272 120.17 214.08C120.146 213.864 120.17 213.756 120.242 213.756C120.434 213.732 120.662 213.528 120.926 213.144C121.19 212.76 121.298 212.424 121.25 212.136C121.25 212.04 121.286 211.956 121.358 211.884C121.43 211.788 121.514 211.728 121.61 211.704C121.898 211.512 122.174 211.488 122.438 211.632C122.726 211.752 122.99 212.004 123.23 212.388C123.446 212.844 123.506 213.228 123.41 213.54C123.314 213.828 123.05 214.236 122.618 214.764C122.258 215.244 121.922 215.508 121.61 215.556C121.322 215.604 121.01 215.496 120.674 215.232ZM126.92 230.676C126.32 230.724 125.744 230.688 125.192 230.568C124.664 230.448 124.208 230.244 123.824 229.956C123.464 229.644 123.212 229.272 123.068 228.84C122.9 228.504 122.816 228.276 122.816 228.156C122.816 228.012 122.9 227.892 123.068 227.796C123.26 227.796 123.428 227.856 123.572 227.976C123.74 228.072 123.956 228.18 124.22 228.3C124.58 228.612 125.012 228.78 125.516 228.804C126.044 228.828 126.524 228.744 126.956 228.552C127.388 228.36 127.628 228.12 127.676 227.832C127.676 227.736 127.64 227.568 127.568 227.328C127.496 227.088 127.412 226.836 127.316 226.572C126.668 225.66 126.188 224.76 125.876 223.872C125.588 222.96 125.444 222.216 125.444 221.64C125.444 221.208 125.576 220.752 125.84 220.272C126.104 219.768 126.464 219.348 126.92 219.012C127.352 218.556 127.832 218.148 128.36 217.788C128.888 217.428 129.416 217.116 129.944 216.852C130.496 216.588 130.988 216.396 131.42 216.276C131.684 216.276 132.032 216.312 132.464 216.384C132.896 216.456 133.196 216.54 133.364 216.636C133.628 216.732 133.88 216.996 134.12 217.428C134.36 217.836 134.48 218.244 134.48 218.652C134.48 218.82 134.432 219.036 134.336 219.3C134.24 219.564 134.084 219.876 133.868 220.236C133.772 220.5 133.664 220.752 133.544 220.992C133.424 221.208 133.364 221.364 133.364 221.46C133.244 221.724 133.076 221.856 132.86 221.856C132.668 221.832 132.464 221.724 132.248 221.532C132.056 221.316 131.9 221.064 131.78 220.776C131.684 220.416 131.648 220.128 131.672 219.912C131.696 219.672 131.792 219.42 131.96 219.156C132.224 218.892 132.356 218.712 132.356 218.616C132.356 218.52 132.224 218.472 131.96 218.472C131.792 218.472 131.48 218.58 131.024 218.796C130.592 218.988 130.124 219.252 129.62 219.588C129.14 219.9 128.72 220.236 128.36 220.596C127.904 221.028 127.628 221.34 127.532 221.532C127.46 221.724 127.424 222.024 127.424 222.432C127.424 222.768 127.496 223.188 127.64 223.692C127.808 224.196 127.976 224.532 128.144 224.7C128.144 224.7 128.228 224.868 128.396 225.204C128.564 225.516 128.768 225.852 129.008 226.212C129.704 227.748 129.884 228.852 129.548 229.524C129.212 230.196 128.336 230.58 126.92 230.676ZM139.55 229.632C139.046 229.728 138.722 229.764 138.578 229.74C138.458 229.692 138.266 229.548 138.002 229.308C137.618 229.116 137.294 228.876 137.03 228.588C136.79 228.3 136.61 228 136.49 227.688C136.394 227.352 136.358 227.076 136.382 226.86C136.454 226.02 136.658 225.12 136.994 224.16C137.33 223.2 137.738 222.276 138.218 221.388C138.698 220.5 139.214 219.744 139.766 219.12C140.342 218.472 140.894 218.052 141.422 217.86C141.902 217.668 142.358 217.596 142.79 217.644C143.222 217.692 143.534 217.92 143.726 218.328C144.086 219.024 144.002 219.468 143.474 219.66C143.402 219.66 143.318 219.696 143.222 219.768C143.126 219.816 143.078 219.888 143.078 219.984C143.174 220.032 143.438 220.044 143.87 220.02C144.302 219.972 144.734 219.9 145.166 219.804C145.622 219.684 145.922 219.564 146.066 219.444C146.21 219.372 146.318 219.336 146.39 219.336C146.462 219.336 146.642 219.36 146.93 219.408C147.338 219.528 147.542 219.672 147.542 219.84C147.542 219.936 147.578 220.032 147.65 220.128C147.722 220.2 147.806 220.236 147.902 220.236C148.07 220.26 148.046 220.368 147.83 220.56C147.638 220.752 147.302 221.016 146.822 221.352C146.366 221.64 146.078 221.832 145.958 221.928C145.862 222 145.85 222.168 145.922 222.432C146.114 222.888 146.126 223.416 145.958 224.016C145.79 224.616 145.49 225.228 145.058 225.852C144.626 226.476 144.098 227.064 143.474 227.616C142.874 228.144 142.226 228.6 141.53 228.984C140.858 229.344 140.198 229.56 139.55 229.632ZM138.938 228.048C139.034 228.048 139.202 228 139.442 227.904C139.682 227.784 139.874 227.688 140.018 227.616C140.114 227.52 140.234 227.412 140.378 227.292C140.546 227.148 140.678 227.064 140.774 227.04C140.87 227.04 140.99 227.004 141.134 226.932C141.278 226.836 141.482 226.656 141.746 226.392C142.01 226.104 142.358 225.684 142.79 225.132C143.27 224.604 143.642 224.124 143.906 223.692C144.17 223.236 144.242 222.816 144.122 222.432C144.098 222.336 144.026 222.276 143.906 222.252C143.81 222.228 143.678 222.168 143.51 222.072C143.27 222.072 143.042 222.012 142.826 221.892C142.634 221.748 142.406 221.568 142.142 221.352L141.566 220.632L140.954 221.244C140.57 221.628 140.162 222.204 139.73 222.972C139.322 223.716 138.974 224.484 138.686 225.276C138.398 226.044 138.23 226.656 138.182 227.112C138.158 227.472 138.218 227.712 138.362 227.832C138.506 227.952 138.698 228.024 138.938 228.048ZM156.489 230.892C156.225 230.988 156.033 231.024 155.913 231C155.817 230.952 155.565 230.772 155.157 230.46C154.989 230.172 154.881 229.92 154.833 229.704C154.809 229.464 154.797 229.044 154.797 228.444C154.845 228.084 154.941 227.568 155.085 226.896C155.253 226.224 155.445 225.516 155.661 224.772C155.877 224.028 156.069 223.356 156.237 222.756C156.429 222.156 156.573 221.748 156.669 221.532C156.837 220.956 156.873 220.608 156.777 220.488C156.681 220.344 156.393 220.248 155.913 220.2C154.953 220.08 154.089 220.392 153.321 221.136C152.553 221.88 151.785 222.852 151.017 224.052C150.441 224.94 150.093 225.708 149.973 226.356C149.877 226.98 149.865 227.412 149.937 227.652C150.009 227.844 150.177 227.952 150.441 227.976C150.705 227.976 150.993 227.916 151.305 227.796C151.641 227.676 151.929 227.556 152.169 227.436C152.337 227.34 152.541 227.244 152.781 227.148C153.045 227.028 153.297 226.92 153.537 226.824C153.681 226.824 153.777 226.872 153.825 226.968C153.897 227.04 153.933 227.196 153.933 227.436C153.933 227.532 153.969 227.616 154.041 227.688C154.113 227.76 154.197 227.82 154.293 227.868C154.389 227.964 154.245 228.18 153.861 228.516C153.501 228.852 152.937 229.236 152.169 229.668C151.449 229.836 150.861 229.92 150.405 229.92C149.973 229.92 149.553 229.764 149.145 229.452C148.473 229.044 148.089 228.384 147.993 227.472C147.921 226.536 148.113 225.396 148.569 224.052C149.025 222.972 149.529 222.096 150.081 221.424C150.633 220.728 151.221 220.056 151.845 219.408C151.941 219.312 152.157 219.168 152.493 218.976C152.853 218.76 153.297 218.568 153.825 218.4C154.425 218.208 154.989 218.088 155.517 218.04C156.045 217.992 156.501 218.1 156.885 218.364C157.317 218.46 157.593 218.448 157.713 218.328C157.833 218.184 158.037 217.752 158.325 217.032C158.805 215.832 159.273 214.62 159.729 213.396C160.185 212.148 160.677 210.888 161.205 209.616C161.445 209.16 161.589 208.812 161.637 208.572C161.709 208.308 161.793 208.128 161.889 208.032H162.573C162.669 208.032 162.837 208.116 163.077 208.284C163.317 208.452 163.485 208.68 163.581 208.968C163.581 209.184 163.485 209.664 163.293 210.408C163.101 211.128 162.789 211.992 162.357 213C161.973 213.888 161.589 214.788 161.205 215.7C160.845 216.588 160.497 217.536 160.161 218.544C159.897 219.288 159.657 219.888 159.441 220.344C159.225 220.8 159.081 221.196 159.009 221.532C158.865 222.156 158.685 222.72 158.469 223.224C158.277 223.704 158.145 224.04 158.073 224.232C157.761 225.144 157.509 225.888 157.317 226.464C157.125 227.016 156.981 227.484 156.885 227.868C156.789 228.228 156.729 228.6 156.705 228.984C156.705 229.344 156.741 229.776 156.813 230.28C156.813 230.376 156.801 230.472 156.777 230.568C156.753 230.664 156.657 230.772 156.489 230.892ZM165.114 230.136C164.178 229.752 163.566 229.224 163.278 228.552C163.014 227.856 162.966 226.788 163.134 225.348C163.182 224.604 163.206 224.112 163.206 223.872C163.206 223.632 163.074 223.392 162.81 223.152C162.738 223.056 162.606 222.924 162.414 222.756C162.246 222.588 162.174 222.444 162.198 222.324C162.174 222.156 162.186 221.976 162.234 221.784C162.282 221.568 162.354 221.46 162.45 221.46C162.546 221.46 162.642 221.436 162.738 221.388C162.858 221.34 162.966 221.34 163.062 221.388C163.158 221.388 163.266 221.4 163.386 221.424C163.506 221.448 163.566 221.508 163.566 221.604C163.662 221.772 163.818 221.796 164.034 221.676C164.25 221.532 164.478 221.22 164.718 220.74C164.958 220.356 165.27 219.972 165.654 219.588C166.062 219.204 166.458 218.856 166.842 218.544C167.25 218.208 167.586 217.968 167.85 217.824C167.97 217.776 168.15 217.716 168.39 217.644C168.63 217.572 168.882 217.512 169.146 217.464C169.434 217.416 169.674 217.404 169.866 217.428C170.298 217.452 170.658 217.572 170.946 217.788C171.258 218.004 171.546 218.256 171.81 218.544C172.122 218.76 172.314 219.048 172.386 219.408C172.482 219.768 172.506 220.152 172.458 220.56C172.41 220.968 172.302 221.34 172.134 221.676C172.062 221.916 171.858 222.204 171.522 222.54C171.186 222.876 170.802 223.2 170.37 223.512C169.938 223.824 169.542 224.052 169.182 224.196C168.87 224.268 168.462 224.328 167.958 224.376C167.478 224.424 167.022 224.448 166.59 224.448C166.182 224.424 165.906 224.376 165.762 224.304C165.594 224.208 165.462 224.34 165.366 224.7C165.27 225.06 165.198 225.576 165.15 226.248C165.102 226.776 165.102 227.16 165.15 227.4C165.198 227.64 165.246 227.808 165.294 227.904C165.462 228.072 165.69 228.288 165.978 228.552C166.29 228.792 166.722 228.828 167.274 228.66C167.73 228.54 168.174 228.228 168.606 227.724C169.062 227.22 169.482 226.812 169.866 226.5C169.962 226.332 170.118 226.236 170.334 226.212C170.574 226.164 170.826 226.176 171.09 226.248C171.354 226.416 171.462 226.62 171.414 226.86C171.39 227.076 171.27 227.412 171.054 227.868C170.982 228.036 170.814 228.252 170.55 228.516C170.31 228.756 170.034 229.008 169.722 229.272C169.434 229.512 169.17 229.704 168.93 229.848C168.21 230.232 167.538 230.436 166.914 230.46C166.29 230.46 165.69 230.352 165.114 230.136ZM167.238 222.828C167.766 222.708 168.186 222.624 168.498 222.576C168.81 222.528 169.11 222.396 169.398 222.18C169.686 221.94 170.046 221.496 170.478 220.848C170.574 220.584 170.598 220.32 170.55 220.056C170.526 219.792 170.466 219.612 170.37 219.516C170.154 219.276 169.89 219.204 169.578 219.3C169.29 219.372 169.014 219.504 168.75 219.696C168.582 219.768 168.33 219.948 167.994 220.236C167.682 220.5 167.37 220.812 167.058 221.172C166.746 221.508 166.494 221.82 166.302 222.108C166.11 222.396 166.062 222.564 166.158 222.612C166.11 222.708 166.242 222.768 166.554 222.792C166.89 222.816 167.118 222.828 167.238 222.828Z" fill="#4E3505"/>
</svg>
