<svg width="660" height="154" viewBox="0 0 660 154" fill="none" xmlns="http://www.w3.org/2000/svg">
<g clip-path="url(#clip0_523_3335)">
<path d="M293.253 144.602C364.916 143.613 444.504 140.054 522.714 129.376C547.177 126.015 570.95 122.06 593.345 115.535C603.336 112.569 613.328 109.207 622.286 105.252C628.832 102.286 634.345 98.3315 638.479 94.1791C648.471 84.2922 645.714 74.2077 630.555 66.8914C621.597 62.5412 611.605 58.982 600.924 56.0159C570.605 47.3155 538.219 41.5811 505.488 37.0332C478.269 33.2762 450.362 31.6943 422.454 30.7056C419.009 30.5079 415.563 30.7056 412.807 29.9147C410.395 29.3215 407.639 27.5418 407.639 26.3554C407.983 24.7735 410.74 23.1916 413.152 22.4007C415.563 21.6098 419.009 22.0052 421.765 22.0052C467.244 21.8075 511 26.9486 553.378 35.4513C574.051 39.6038 594.378 44.5472 614.361 49.8861C624.698 52.6544 634.689 56.8069 642.958 61.3548C660.874 71.0439 664.664 83.8968 654.328 96.7496C649.16 103.473 640.891 108.812 631.244 113.36C613.672 121.467 593.689 126.608 573.017 130.76C532.706 138.867 491.017 143.613 448.639 146.975C398.336 151.127 348.034 153.302 297.042 153.895C236.404 154.489 175.765 152.709 116.505 144.602C92.7318 141.438 69.9923 136.692 48.9755 129.574C35.194 124.828 22.7907 119.489 13.1436 111.975C-2.36055 99.9134 -4.08324 87.2583 7.63103 73.8122C14.1772 66.2982 23.4798 60.1684 34.1604 54.6318C62.4125 39.9993 95.4881 30.1124 130.631 22.203C176.454 11.9207 224.345 6.38404 272.925 3.02252C335.286 -1.32768 397.647 -0.734471 460.009 3.22026C513.756 6.58178 566.815 12.3161 617.807 23.3894C624.353 24.7735 630.555 26.5532 636.756 28.3328C641.235 29.5192 643.992 31.2988 642.269 34.2649C640.891 36.44 636.412 37.2309 630.899 35.649C598.857 27.3441 564.748 23.1916 530.639 19.0392C490.672 14.2935 450.017 11.7229 409.362 10.141C337.009 7.57046 265.345 10.7342 195.059 20.6211C157.16 25.5645 120.639 33.2762 86.5301 44.5472C68.9587 50.2815 52.4209 57.0046 38.2949 65.5073C33.1268 68.671 28.3033 72.2303 24.1688 75.9873C11.7655 87.6538 13.8327 99.3202 30.3705 109.009C38.6394 113.953 48.631 118.105 58.9671 121.862C81.7066 129.969 107.202 134.122 133.387 137.088C183.001 142.822 233.648 144.8 293.253 144.602Z" fill="white"/>
</g>
<defs>
<clipPath id="clip0_523_3335">
<rect width="660" height="154" fill="white"/>
</clipPath>
</defs>
</svg>
