<svg width="301" height="225" viewBox="0 0 301 225" fill="none" xmlns="http://www.w3.org/2000/svg">
<path d="M58.0373 90.4131L57.8142 91.1631L58.5885 91.0504C58.8251 91.016 59.0614 90.9813 59.2977 90.9467C62.2549 90.5135 65.1912 90.0833 68.2395 90.0833C80.8545 90.0825 93.212 93.6531 103.883 100.382C114.553 107.111 123.1 116.723 128.536 128.107C133.972 139.491 136.073 152.181 134.598 164.71C133.123 177.238 128.13 189.093 120.199 198.903C112.268 208.713 101.721 216.076 89.7792 220.143C77.8374 224.209 64.9885 224.811 52.7188 221.88C40.4491 218.948 29.2599 212.603 20.4457 203.578C11.6315 194.553 5.55245 183.217 2.91171 170.882L2.80537 170.385L2.44877 170.467L2.15467 168.491C2.15466 168.491 2.15465 168.491 2.15464 168.491C1.85563 166.443 1.43914 163.496 1.21619 160.464L1.21633 160.464L1.21519 160.452C0.589591 154.018 0.290608 145.113 0.798031 134.395C1.40987 123.697 2.9912 111.199 6.52465 98.0483C8.38892 91.4865 10.6693 84.7354 13.499 78.1364C13.8304 77.4373 14.1597 76.7381 14.4886 76.0396C17.2847 70.1018 20.0595 64.2091 23.9501 58.7916L23.9631 58.7735L23.9744 58.7543C27.7305 52.4002 32.5764 46.808 37.5087 41.4572L37.5218 41.443L37.5337 41.4279C39.7599 38.6047 42.387 36.2228 45.1052 33.9759C46.0938 33.1588 47.1 32.3553 48.1031 31.5542C49.8383 30.1686 51.5642 28.7903 53.1735 27.3617C55.7584 25.206 58.5225 23.451 61.294 21.8232C62.2489 21.2623 63.2087 20.7143 64.1626 20.1697C65.9653 19.1405 67.7468 18.1234 69.4345 17.0539L69.4346 17.054L69.4442 17.0476C71.9608 15.3698 74.5799 14.1731 77.1768 13.1277C78.1267 12.7452 79.0812 12.3804 80.0275 12.0187C81.6428 11.4012 83.2339 10.793 84.7365 10.1226C85.9214 9.66247 87.0691 9.19509 88.185 8.74064C91.651 7.32911 94.8106 6.04236 97.828 5.48564L97.844 5.48269L97.8598 5.47869C100.132 4.90413 102.236 4.3865 104.158 3.9135C105.596 3.55958 106.933 3.23066 108.163 2.92158C108.164 2.92138 108.165 2.92119 108.165 2.92099L116.609 0.884378L123.639 28.9749L116.948 31.7558L116.946 31.7564L108.903 35.0692C107.243 35.6095 105.649 36.4395 104.052 37.3713C103.328 37.7935 102.599 38.2398 101.86 38.6911C101.781 38.7399 101.701 38.7887 101.621 38.8376C100.799 39.3398 99.965 39.847 99.1041 40.3405L99.0895 40.3489L99.0754 40.3583C97.9482 41.1097 96.7322 41.7798 95.4696 42.4755C94.8927 42.7934 94.3062 43.1166 93.7139 43.4553C91.8476 44.5229 89.9654 45.7247 88.3273 47.3382C87.1134 48.462 85.7835 49.4976 84.4177 50.5611C83.9802 50.9017 83.539 51.2452 83.0968 51.5954C81.2846 53.0306 79.4746 54.5638 77.9367 56.4154L77.9309 56.4223L77.9254 56.4295C76.8818 57.783 75.7061 59.0253 74.5068 60.2926C74.0766 60.7472 73.6434 61.205 73.2122 61.6723C71.5985 63.4207 70.0364 65.2791 68.8985 67.5074C68.834 67.6055 68.7695 67.7035 68.7049 67.8016C66.1374 71.7021 63.5426 75.6442 61.8591 80.1778C60.1353 83.3934 59.0639 86.9612 58.0373 90.4131ZM222.579 90.4131L222.356 91.1631L223.13 91.0504C223.367 91.016 223.603 90.9813 223.839 90.9467C226.797 90.5135 229.733 90.0833 232.781 90.0833C245.396 90.0825 257.754 93.6531 268.424 100.382C279.095 107.111 287.642 116.723 293.078 128.107C298.513 139.491 300.615 152.181 299.14 164.71C297.664 177.238 292.672 189.093 284.741 198.903C276.809 208.713 266.263 216.076 254.321 220.143C242.379 224.209 229.53 224.811 217.26 221.88C204.991 218.948 193.802 212.603 184.987 203.578C176.173 194.553 170.094 183.217 167.453 170.882L167.347 170.385L166.99 170.467L166.696 168.491C166.696 168.491 166.696 168.49 166.696 168.49C166.397 166.442 165.981 163.496 165.758 160.464L165.758 160.464L165.757 160.452C165.131 154.018 164.832 145.112 165.34 134.394C165.952 123.697 167.533 111.2 171.066 98.0491C172.93 91.4871 175.211 84.7358 178.041 78.1366C178.372 77.4374 178.701 76.7381 179.03 76.0394C181.826 70.1018 184.601 64.2091 188.492 58.7916L188.505 58.7735L188.516 58.7543C192.272 52.4002 197.118 46.808 202.05 41.4572L202.063 41.4433L202.075 41.4284C204.301 38.6125 206.928 36.2342 209.647 33.9891C210.63 33.1772 211.63 32.3785 212.628 31.5823C214.369 30.1926 216.1 28.8101 217.715 27.3766C220.3 25.2209 223.064 23.466 225.836 21.8381C226.791 21.2772 227.75 20.7293 228.704 20.1847C230.507 19.1555 232.289 18.1383 233.976 17.0688L233.976 17.069L233.987 17.062C236.503 15.3772 239.125 14.1807 241.724 13.1352C242.647 12.764 243.573 12.4094 244.492 12.0578C246.136 11.4288 247.754 10.8095 249.279 10.1222C250.464 9.66222 251.611 9.19497 252.727 8.74064C256.193 7.32911 259.352 6.04236 262.37 5.48564L262.386 5.48269L262.402 5.47869C264.674 4.9041 266.778 4.38644 268.7 3.91341C270.138 3.5595 271.475 3.23057 272.705 2.92149C272.706 2.92132 272.706 2.92116 272.707 2.92099L281.151 0.884381L288.181 28.9749L281.489 31.7558L281.488 31.7564L273.445 35.0693C271.785 35.6095 270.191 36.4395 268.594 37.3713C267.87 37.7936 267.14 38.2399 266.402 38.6913L266.163 38.8376C265.341 39.3398 264.507 39.847 263.646 40.3405L263.631 40.3489L263.617 40.3583C262.49 41.1097 261.274 41.7798 260.011 42.4755C259.434 42.7933 258.848 43.1165 258.256 43.4553C256.389 44.5229 254.507 45.7248 252.869 47.3385C251.655 48.4622 250.325 49.4977 248.959 50.5611C248.522 50.9017 248.081 51.2452 247.638 51.5954C245.826 53.0306 244.016 54.5638 242.478 56.4154L242.473 56.4223L242.467 56.4295C241.423 57.783 240.248 59.0253 239.048 60.2927C238.618 60.7472 238.185 61.205 237.754 61.6723C236.14 63.4207 234.578 65.2791 233.44 67.5074L233.246 67.8017C230.679 71.7023 228.084 75.6443 226.401 80.1778C224.677 83.3934 223.606 86.9613 222.579 90.4131Z" stroke="#B6B6B6"/>
</svg>
