<svg width="303" height="284" viewBox="0 0 303 284" fill="none" xmlns="http://www.w3.org/2000/svg">
<g clip-path="url(#clip0_102_2)">
<path d="M10.6018 151.81C15.4553 146.948 20.3089 142.086 26.0874 136.334C26.7718 139.202 27.326 141.132 27.532 143.301C33.3157 188.356 63.1131 220.31 107.768 229.521C136.497 235.262 163.489 229.874 190.167 218.799C219.99 206.341 241.776 184.757 258.625 157.827C267.278 143.949 270.754 128.483 271.76 112.397C271.935 108.172 271.937 104.065 270.698 99.2669C269.675 101.507 268.184 103.811 268.216 106.099C266.946 162.14 209.152 214.786 146.15 221.726C121.466 224.508 98.1974 219.648 77.0969 206.376C52.331 190.737 36.3605 158.814 39.2418 130.153C47.7581 135.872 51.9098 147.914 65.0949 148.128C57.0916 137.182 49.9802 127.166 42.8142 117.444C40.3675 114.242 36.8324 112.813 34.2967 115.832C25.4163 126.016 16.9492 136.43 8.77579 146.901C8.199 147.552 8.92728 149.363 9.00303 150.594C9.06815 151.063 9.89478 151.524 10.6018 151.81Z" fill="#4E3505"/>
</g>
<defs>
<clipPath id="clip0_102_2">
<rect width="245" height="176" fill="white" transform="matrix(0.825207 -0.56483 -0.56483 -0.825207 100.117 283.81)"/>
</clipPath>
</defs>
</svg>
