<svg width="182" height="182" viewBox="0 0 182 182" fill="none" xmlns="http://www.w3.org/2000/svg">
<path d="M12.3368 42.9612C10.4955 53.0231 13.7196 63.1152 20.0515 70.9482C26.3745 78.7703 36.5903 85.8295 46.5872 87.8657C56.9824 89.9844 66.8391 81.013 64.1888 70.3283C63.6724 68.248 62.5426 65.4149 60.8103 64.0243C56.963 60.937 54.7039 64.3248 53.3582 67.4007C51.4072 71.8594 51.2303 76.932 52.0777 81.6491C55.3238 99.73 73.657 115.999 92.3178 115.849C97.3537 115.809 103.281 114.295 106.059 109.643C107.386 107.42 108.062 103.912 104.924 102.805C101.83 101.714 98.4803 104.032 97.5194 106.913C96.1192 111.116 97.9861 115.921 99.6371 119.76C101.894 125.004 104.891 129.979 108.736 134.206C115.715 141.878 125.727 146.981 136.308 146.323C147.292 145.646 157.205 137.92 159.405 126.945C159.723 125.361 162.149 126.001 161.824 127.573C159.488 139.02 149.309 147.329 137.884 148.575C125.31 149.94 113.241 143.501 105.464 133.976C101.274 128.844 97.9222 122.8 95.8902 116.474C94.559 112.33 93.8433 107.016 96.7962 103.326C99.1844 100.342 104.303 99.019 107.484 101.438C111.32 104.353 109.393 109.777 106.69 112.775C98.6267 121.716 83.6659 118.162 74.4617 113.5C63.4085 107.902 54.2345 97.801 50.7352 85.7931C49.2048 80.5423 48.7552 74.7597 50.2616 69.4259C51.2987 65.7555 53.9448 59.2187 58.824 60.1384C63.3837 60.9987 66.0729 67.1434 66.7067 71.1818C67.4818 76.1245 66.0689 81.1264 62.6661 84.8546C52.2057 96.3181 35.5275 87.1723 25.9906 79.3985C15.1501 70.5621 8.43703 56.8187 11.2137 42.6698C11.3587 41.9302 12.4709 42.2306 12.3368 42.9612Z" fill="#4E3505"/>
<path d="M150.014 127.473C156.894 130.139 163.72 132.938 170.542 135.742C169.979 136.176 169.416 136.61 168.853 137.044C167.756 129.693 166.659 122.343 165.581 114.992C166.237 115.167 166.891 115.344 167.547 115.519C162.54 119.952 157.524 124.375 152.522 128.813C152.065 128.212 151.608 127.61 151.156 127.014C154.529 125.075 157.414 122.694 159.975 119.767C160.815 118.809 162.505 120.067 161.768 121.13C159.739 124.079 157.704 127.024 155.67 129.968C155.079 129.52 154.484 129.066 153.894 128.618C157.268 125.403 160.183 121.884 162.679 117.944C163.461 116.717 165.293 117.754 164.632 119.048C162.865 122.526 161.098 126.004 159.331 129.482C158.817 128.968 158.307 128.459 157.793 127.944C161.832 125.409 161.9 119.89 163.857 115.935C164.515 114.604 166.402 115.734 165.828 117.05C163.693 121.886 162.295 126.895 161.547 132.114C160.849 131.832 160.152 131.55 159.459 131.273C162.388 126.822 164.095 121.978 164.512 116.674C165.26 116.767 166.013 116.865 166.761 116.958C165.585 121.745 165.203 126.538 165.578 131.437C164.829 131.344 164.082 131.251 163.334 131.158C164.822 126.544 165.47 121.869 165.298 117.036C166.061 117.035 166.824 117.034 167.581 117.028C167.461 122.302 167.837 127.506 168.741 132.695C168.934 133.798 167.692 134.595 166.827 133.798C164.669 131.811 162.34 130.47 159.527 129.603C158.1 129.161 158.682 127.174 160.114 127.394C162.593 127.773 164.338 128.967 165.78 130.977C166.336 131.756 165.379 132.951 164.494 132.649C161.188 131.513 157.836 130.651 154.392 130.049C154.681 129.354 154.966 128.654 155.251 127.953C158.394 129.579 161.62 130.923 164.988 132.006C164.79 132.738 164.597 133.476 164.404 134.213C162.068 133.413 159.736 132.619 157.405 131.824C156.034 131.355 156.569 129.207 157.99 129.617C161.842 130.731 165.517 132.17 169.102 133.967C170.084 134.458 169.667 136.191 168.528 136.094C166.492 135.923 164.718 135.461 162.864 134.615C161.525 134.005 162.673 132.066 163.996 132.632C165.244 133.165 166.316 133.439 167.633 133.655C169.076 133.884 168.478 136.084 167.045 135.855C165.562 135.617 164.236 135.202 162.864 134.615C163.24 133.952 163.621 133.295 163.996 132.632C165.564 133.349 166.819 133.677 168.538 133.818C168.35 134.531 168.157 135.238 167.969 135.95C164.562 134.243 161.066 132.882 157.405 131.824C157.603 131.092 157.796 130.354 157.99 129.617C160.321 130.412 162.657 131.212 164.988 132.006C166.361 132.473 165.804 134.663 164.404 134.213C160.847 133.071 157.436 131.654 154.123 129.943C152.916 129.319 153.77 127.634 154.977 127.842C158.422 128.443 161.774 129.305 165.08 130.441C164.646 130.993 164.218 131.55 163.789 132.107C162.641 130.505 161.355 129.882 159.527 129.603C159.721 128.865 159.914 128.127 160.114 127.394C163.295 128.378 166.004 129.932 168.446 132.179C167.81 132.548 167.174 132.917 166.532 133.282C165.597 127.906 165.173 122.503 165.298 117.036C165.335 115.564 167.532 115.564 167.581 117.028C167.764 122.058 167.089 126.928 165.542 131.73C165.131 132.991 163.396 132.738 163.294 131.445C162.901 126.348 163.33 121.359 164.553 116.386C164.857 115.152 166.903 115.352 166.796 116.665C166.348 122.356 164.59 127.607 161.437 132.392C160.689 133.515 159.163 132.806 159.345 131.546C160.124 126.117 161.638 120.954 163.857 115.935C164.514 116.306 165.171 116.678 165.828 117.05C163.554 121.639 163.639 126.935 158.905 129.908C157.908 130.53 156.886 129.316 157.367 128.37C159.139 124.897 160.911 121.423 162.679 117.944C163.33 118.312 163.981 118.68 164.632 119.048C162.026 123.147 159.002 126.854 155.486 130.211C154.6 131.058 152.957 129.951 153.71 128.862C155.734 125.908 157.762 122.96 159.791 120.011C160.386 120.464 160.987 120.922 161.583 121.375C158.882 124.461 155.832 126.957 152.276 129C151.18 129.63 149.921 128.081 150.91 127.2C155.906 122.758 160.893 118.305 165.895 113.867C166.49 113.332 167.714 113.443 167.855 114.39C168.942 121.741 170.014 129.098 171.082 136.448C171.233 137.465 170.338 138.171 169.394 137.75C162.744 134.795 156.087 131.826 149.496 128.732C148.809 128.411 149.292 127.195 150.014 127.473Z" fill="#4E3505"/>
</svg>
