<svg width="64" height="64" viewBox="0 0 64 64" fill="none" xmlns="http://www.w3.org/2000/svg">
<path d="M39.668 47.588C41.221 46.059 40.383 42.547 37.846 38.49C38.768 38.346 39.63 38.126 40.282 37.789C42.628 36.578 44.212 34.371 45.411 32.088C46.7 29.639 47.565 26.947 49.247 24.717C49.531 24.34 49.815 24.002 50.098 23.684C53.727 24.119 56.624 24.899 56.624 24.899L57.731 22.086C56.3338 21.5845 54.9011 21.1878 53.445 20.899C54.337 20.392 54.919 20.234 54.919 20.234L53.87 17.398C52.188 18.109 50.823 19.158 49.68 20.414C45.408 20.175 41.106 21.026 37.712 23.658C35.16 25.638 33.436 28.383 31.814 31.129C30.3769 29.7187 28.8464 28.4067 27.233 27.202C27.539 26.699 27.867 26.247 28.22 25.898C30.353 23.798 33.167 22.455 35.013 20.052C38.893 15.006 36.055 7.096 32.863 3C32.291 3.551 31.345 4.354 30.633 4.988C34.026 8.463 36.399 14.547 33.74 19.093C32.254 21.634 29.508 23.228 27.588 25.411C27.256 25.79 26.959 26.27 26.69 26.8C21.669 23.199 17.061 21.75 15.235 23.548C15.0537 23.7335 14.9043 23.9477 14.793 24.182L14.786 24.175L14.737 24.318C14.669 24.473 14.607 24.634 14.565 24.81L2 61L38.662 48.182L38.652 48.172C39.046 48.045 39.393 47.858 39.668 47.588ZM9.293 56.332L6.233 54.906L8.298 48.956L17.769 53.368L9.293 56.332M26.244 50.405L10.365 43.006L12.43 37.057L24.296 43.013C17.213 38.403 14.495 31.106 14.495 31.106L15.201 29.073C16.456 32.248 19.217 36.202 23.011 39.934C26.837 43.7 30.892 46.428 34.133 47.647L26.244 50.405M32.343 31.665C34.001 29.288 35.71 26.889 38.086 25.182C40.348 23.556 44.02 23.259 47.501 23.454C46.325 25.508 45.456 27.787 44.676 29.976C43.733 32.626 42.469 35.374 40.059 36.999C39.409 37.437 38.498 37.757 37.525 37.994C36.188 35.945 34.434 33.779 32.343 31.665" fill="#231803"/>
<path d="M23.0327 22C24.0347 22 21.0307 19 21.5327 16.369C23.4567 16.221 27.8547 17.088 25.2947 13.572C28.1907 14.082 29.6907 11.92 26.9567 9.87101C27.8667 9.93501 29.2807 8.219 28.2657 8.002C25.0137 7.313 23.7407 9.07201 25.8047 11.609C23.6347 11.205 21.8657 12.214 23.4957 14.48C17.2297 13.699 20.7947 22 23.0327 22ZM44.5447 19.334C45.4837 18.91 43.8907 16.109 43.3727 15.393C47.3357 14.969 47.1857 13.788 44.7007 11.258C51.4567 11.485 44.9097 7.645 45.8277 6.125C46.6227 4.807 49.0617 6.189 48.8357 5.455C48.0737 3 40.8457 4.66001 45.4197 9.24401C41.4277 9.32201 41.0447 10.627 44.0197 13.332C38.8377 13.389 43.0657 20 44.5447 19.334M61.6967 29.225C60.1147 29.668 59.8707 29.502 60.0817 31.077C56.4277 29.395 52.5617 27.056 54.9077 33.253C50.7577 30.782 50.9647 32.946 50.1887 36.507C49.1787 35.72 47.7437 33.646 47.7437 33.646L46.2237 34.937C46.2237 34.937 49.0087 38.865 50.3837 38.642C51.5927 38.447 52.2507 36.162 52.3177 34.148C56.1677 35.773 58.0107 35.99 56.2497 31.238C59.3277 32.967 63.1017 34.492 61.6967 29.225M6.04873 11.437L8.87673 14.266L6.04873 17.094L3.21973 14.266L6.04873 11.437ZM12.8237 23.198L9.99373 26.026L7.16473 23.196L9.99473 20.367L12.8237 23.198ZM17.2197 7.00001L20.0477 9.828L17.2187 12.658L14.3907 9.828L17.2197 7.00001ZM48.0107 46.484L45.1807 43.655L48.0087 40.825L50.8387 43.654L48.0107 46.484ZM41.7047 56.186L38.8767 53.358L41.7047 50.529L44.5337 53.358L41.7047 56.186ZM54.1127 58.42L51.2827 55.591L54.1097 52.761L56.9397 55.59L54.1127 58.42ZM56.9407 45.536L54.1127 42.707L56.9407 39.879L59.7687 42.707L56.9407 45.536ZM52.2197 10L55.0477 12.828L52.2187 15.657L49.3907 12.828L52.2197 10Z" fill="#231803"/>
</svg>
