<svg width="1211" height="648" viewBox="0 0 1211 648" fill="none" xmlns="http://www.w3.org/2000/svg">
<rect y="69" width="1211" height="4" fill="url(#paint0_linear_534_316)"/>
<rect x="165" width="648" height="3.99998" transform="rotate(90 165 0)" fill="url(#paint1_linear_534_316)"/>
<rect x="768" width="648" height="3.99998" transform="rotate(90 768 0)" fill="url(#paint2_linear_534_316)"/>
<rect x="366" width="648" height="3.99998" transform="rotate(90 366 0)" fill="url(#paint3_linear_534_316)"/>
<rect x="969" width="648" height="3.99998" transform="rotate(90 969 0)" fill="url(#paint4_linear_534_316)"/>
<rect x="567" width="648" height="3.99998" transform="rotate(90 567 0)" fill="url(#paint5_linear_534_316)"/>
<rect x="1170" width="648" height="3.99998" transform="rotate(90 1170 0)" fill="url(#paint6_linear_534_316)"/>
<rect y="245" width="1211" height="4" fill="url(#paint7_linear_534_316)"/>
<rect y="597" width="1211" height="4" fill="url(#paint8_linear_534_316)"/>
<rect y="421" width="1211" height="4" fill="url(#paint9_linear_534_316)"/>
<defs>
<linearGradient id="paint0_linear_534_316" x1="0" y1="69" x2="1210.99" y2="73.8231" gradientUnits="userSpaceOnUse">
<stop stop-color="white"/>
<stop offset="0.119792" stop-color="#A0B4D3"/>
<stop offset="1" stop-color="white"/>
</linearGradient>
<linearGradient id="paint1_linear_534_316" x1="165" y1="0" x2="813.001" y2="1.381" gradientUnits="userSpaceOnUse">
<stop stop-color="white"/>
<stop offset="0.515625" stop-color="#A0B4D3"/>
<stop offset="1" stop-color="white"/>
</linearGradient>
<linearGradient id="paint2_linear_534_316" x1="768" y1="0" x2="1416" y2="1.381" gradientUnits="userSpaceOnUse">
<stop stop-color="white"/>
<stop offset="0.515625" stop-color="#A0B4D3"/>
<stop offset="1" stop-color="white"/>
</linearGradient>
<linearGradient id="paint3_linear_534_316" x1="366" y1="0" x2="1014" y2="1.381" gradientUnits="userSpaceOnUse">
<stop stop-color="white"/>
<stop offset="0.244792" stop-color="#A0B4D3"/>
<stop offset="1" stop-color="white"/>
</linearGradient>
<linearGradient id="paint4_linear_534_316" x1="969" y1="0" x2="1617" y2="1.381" gradientUnits="userSpaceOnUse">
<stop stop-color="white"/>
<stop offset="0.244792" stop-color="#A0B4D3"/>
<stop offset="1" stop-color="white"/>
</linearGradient>
<linearGradient id="paint5_linear_534_316" x1="567" y1="0" x2="1215" y2="1.381" gradientUnits="userSpaceOnUse">
<stop stop-color="white"/>
<stop offset="0.875" stop-color="#A0B4D3"/>
<stop offset="1" stop-color="white"/>
</linearGradient>
<linearGradient id="paint6_linear_534_316" x1="1170" y1="0" x2="1818" y2="1.381" gradientUnits="userSpaceOnUse">
<stop stop-color="white"/>
<stop offset="0.875" stop-color="#A0B4D3"/>
<stop offset="1" stop-color="white"/>
</linearGradient>
<linearGradient id="paint7_linear_534_316" x1="0" y1="245" x2="1210.99" y2="249.823" gradientUnits="userSpaceOnUse">
<stop stop-color="white"/>
<stop offset="0.854167" stop-color="#A0B4D3"/>
<stop offset="1" stop-color="white"/>
</linearGradient>
<linearGradient id="paint8_linear_534_316" x1="0" y1="597" x2="1210.99" y2="601.823" gradientUnits="userSpaceOnUse">
<stop stop-color="white"/>
<stop offset="0.854167" stop-color="#A0B4D3"/>
<stop offset="1" stop-color="white"/>
</linearGradient>
<linearGradient id="paint9_linear_534_316" x1="0" y1="421" x2="1210.99" y2="425.823" gradientUnits="userSpaceOnUse">
<stop stop-color="white"/>
<stop offset="0.119792" stop-color="#A0B4D3"/>
<stop offset="1" stop-color="white"/>
</linearGradient>
</defs>
</svg>
