<svg width="201" height="46" viewBox="0 0 201 46" fill="none" xmlns="http://www.w3.org/2000/svg">
<path d="M8.42432 7.68871V13.3146H24.2705V7.68871" stroke="white" stroke-width="1.96521" stroke-linecap="round"/>
<rect x="9.92456" y="33.3802" width="12.8458" height="4.87576" rx="1.26335" fill="white"/>
<path d="M1 17.824C1 15.369 2.99015 13.3789 5.44512 13.3789H27.3432C29.7982 13.3789 31.7883 15.369 31.7883 17.824V21.9884C31.7883 28.4488 26.5511 33.6861 20.0906 33.6861H12.6977C6.23723 33.6861 1 28.4488 1 21.9884V17.824Z" stroke="white" stroke-width="1.96521"/>
<path d="M50.5405 34.361C46.8321 34.361 43.7144 32.6873 42.4017 29.6681L45.224 28.2897C46.0773 30.1932 47.9479 31.2105 50.5405 31.2105C53.1002 31.2105 55.0693 29.9962 55.0693 27.8303C55.0693 25.4018 52.8377 24.9752 50.2451 24.4829C46.9305 23.8265 42.8283 22.7436 42.8283 18.0834C42.8283 14.4407 46.1429 11.684 50.3107 11.684C53.6581 11.684 56.6445 13.2593 57.9572 16.2785L55.1677 17.7225C54.2817 15.9175 52.608 14.8017 50.1795 14.8017C47.9479 14.8017 46.1429 16.1144 46.1429 17.985C46.1429 20.3479 48.4729 20.8729 51.1312 21.398C54.4129 22.0544 58.4167 23.1374 58.4167 27.7975C58.4167 31.6699 54.9708 34.361 50.5405 34.361ZM68.7781 34.3938C63.9211 34.3938 60.1799 30.587 60.1799 25.9269C60.1799 21.2996 63.9539 17.5255 68.7781 17.5255C73.6351 17.5255 77.3107 21.3324 77.3107 25.9269C77.3107 30.587 73.6023 34.3938 68.7781 34.3938ZM68.7781 31.309C71.7645 31.309 74.0617 28.8804 74.0617 25.9597C74.0617 23.0061 71.7645 20.5776 68.7781 20.5776C65.7589 20.5776 63.4288 23.0061 63.4288 25.9597C63.4288 28.8804 65.7589 31.309 68.7781 31.309ZM83.9583 34H80.6109V12.0122H87.6011C93.5082 12.0122 97.3479 14.6704 97.3479 19.79C97.3479 25.0408 93.4426 27.6662 87.7651 27.6662H83.9583V34ZM87.6995 15.097H83.9583V24.5485H87.6995C91.3094 24.5485 93.902 23.1374 93.902 19.79C93.902 16.5738 91.4079 15.097 87.6995 15.097ZM100.058 10.5354H103.307V34H100.058V10.5354ZM114.966 31.2433C117.952 31.2433 119.593 28.6507 119.593 25.6643V17.9194H122.842V26.0581C122.842 30.7182 120.02 34.3938 114.966 34.3938C109.978 34.3938 107.155 30.6854 107.155 26.0253V17.9194H110.404V25.6971C110.404 28.6507 112.013 31.2433 114.966 31.2433ZM133.321 41.7778C129.842 41.7778 126.955 40.2682 125.478 37.413L128.202 35.9362C129.153 37.6756 130.925 38.7914 133.256 38.7914C136.636 38.7914 138.933 36.3629 138.933 32.5888V31.309C137.883 32.9827 135.914 34.2297 133.223 34.2297C128.661 34.2297 125.051 30.6198 125.051 25.894C125.051 21.2996 128.727 17.5255 133.616 17.5255C138.474 17.5255 142.182 21.1355 142.182 25.9269V32.556C142.182 38.135 138.441 41.7778 133.321 41.7778ZM133.584 31.1777C136.537 31.1777 138.9 28.8148 138.9 25.8612C138.9 22.9076 136.537 20.6104 133.584 20.6104C130.663 20.6104 128.267 22.9076 128.267 25.8612C128.267 28.8148 130.663 31.1777 133.584 31.1777ZM152.776 41.7778C149.297 41.7778 146.409 40.2682 144.932 37.413L147.656 35.9362C148.608 37.6756 150.38 38.7914 152.71 38.7914C156.09 38.7914 158.388 36.3629 158.388 32.5888V31.309C157.337 32.9827 155.368 34.2297 152.677 34.2297C148.116 34.2297 144.506 30.6198 144.506 25.894C144.506 21.2996 148.181 17.5255 153.071 17.5255C157.928 17.5255 161.637 21.1355 161.637 25.9269V32.556C161.637 38.135 157.895 41.7778 152.776 41.7778ZM153.038 31.1777C155.992 31.1777 158.355 28.8148 158.355 25.8612C158.355 22.9076 155.992 20.6104 153.038 20.6104C150.118 20.6104 147.722 22.9076 147.722 25.8612C147.722 28.8148 150.118 31.1777 153.038 31.1777ZM172.493 34.361C167.603 34.361 163.961 30.8167 163.961 25.8612C163.961 21.2339 167.275 17.4599 172.099 17.4599C176.956 17.4599 179.976 20.9714 179.976 25.4674V26.7801H167.111C167.472 29.5368 169.572 31.473 172.46 31.473C174.429 31.473 176.201 30.6198 177.153 28.8476L179.647 30.1275C178.236 32.8842 175.644 34.361 172.493 34.361ZM167.242 24.6798H176.727C176.595 22.12 174.725 20.3807 172.066 20.3807C169.343 20.3807 167.57 22.2841 167.242 24.6798ZM190.09 34.3938C185.2 34.3938 181.524 30.6198 181.524 25.9925C181.524 21.1027 185.069 17.5255 189.926 17.5255C192.092 17.5255 194.061 18.4773 195.373 19.9212L195.406 10.5354H198.655V25.9925C198.655 30.7511 194.947 34.3938 190.09 34.3938ZM190.09 31.3418C193.109 31.3418 195.406 28.9133 195.406 25.9597C195.406 23.0389 193.109 20.6104 190.09 20.6104C187.103 20.6104 184.773 23.0389 184.773 25.9597C184.773 28.9133 187.103 31.3418 190.09 31.3418Z" fill="white"/>
</svg>
