<svg width="78" height="78" viewBox="0 0 78 78" fill="none" xmlns="http://www.w3.org/2000/svg">
<path d="M32.9697 20.2221C32.8358 20.3691 32.7615 21.0306 32.7466 22.1772C32.7318 23.118 32.7169 24.3823 32.702 24.9556L32.6723 26.0287H29.7137C27.2159 26.0287 26.7105 26.0581 26.5172 26.2639C26.309 26.455 26.2793 27.0577 26.2793 30.5123C26.2793 34.746 26.3982 36.1719 26.9037 37.8624C27.8998 41.2435 30.457 44.1248 33.4603 45.2126L34.159 45.4772V47.3589C34.159 49.7256 34.1293 49.6962 36.4189 49.6962H38.0246V50.9457V52.1953H30.799C26.1158 52.1953 23.4842 52.2541 23.2909 52.3423C22.9639 52.5187 22.8895 53.3419 23.1869 53.6359C23.3207 53.7682 25.194 53.8123 30.6949 53.8123H38.0246V55.8703C38.0246 58.1195 38.1881 59.1338 38.6936 60.1334C39.1694 61.0596 40.3142 62.1033 41.3698 62.5884C42.1429 62.9412 42.4402 63 43.6742 63C45.2353 63 46.0976 62.7648 47.2127 62.0151C48.4615 61.1625 49.4725 59.2514 49.4725 57.7226C49.4725 56.0761 48.5507 54.2239 47.2721 53.2978C46.0679 52.4305 45.5327 52.3129 42.4848 52.21L39.7343 52.1218L39.6897 50.9163L39.6451 49.7256L41.6374 49.6668C43.0498 49.6374 43.704 49.5639 43.8675 49.4169C44.0756 49.2552 44.1202 48.9024 44.1202 47.3589V45.4919L44.9826 45.1391C48.64 43.6544 51.1674 40.1998 51.8365 35.775C51.9257 35.2017 52 32.8643 52 30.6005C52 27.0577 51.9703 26.455 51.7621 26.2639C51.5688 26.0581 51.0633 26.0287 48.5656 26.0287H45.607V23.412C45.607 20.472 45.5178 20.1045 44.7595 20.031C43.9121 19.9428 43.8229 20.2809 43.8229 23.3385V26.0287H39.1396H34.4564V23.3385C34.4564 21.1482 34.4118 20.5896 34.2185 20.325C33.9509 19.9428 33.2521 19.884 32.9697 20.2221ZM50.32 31.7177C50.2456 36.363 50.1564 36.8481 49.0711 39.0973C47.9561 41.3905 45.9043 43.1987 43.6742 43.8308C42.5294 44.1542 42.4997 44.213 42.4551 46.2269L42.4105 48.0057H39.1396H35.8688L35.8242 46.2269C35.7796 44.213 35.7499 44.1542 34.6051 43.8308C31.7357 43.0076 29.2825 40.3321 28.3607 36.9804C28.0634 35.9367 28.0188 35.334 27.9593 31.7177L27.885 27.6457H39.1396H50.3943L50.32 31.7177ZM44.8636 53.974C46.9302 54.415 48.2237 56.6642 47.6141 58.7516C46.9302 61.0743 44.0162 62.1474 41.7415 60.9273C40.1952 60.0893 39.7789 59.1779 39.6897 56.3555C39.66 55.2088 39.66 54.1651 39.7046 54.0328C39.7789 53.8417 40.1506 53.8123 41.9496 53.8123C43.139 53.8123 44.4473 53.8858 44.8636 53.974Z" fill="#4E3505"/>
<circle cx="39" cy="39" r="38.5" stroke="#4E3505"/>
</svg>
