<svg width="44" height="44" viewBox="0 0 44 44" fill="none" xmlns="http://www.w3.org/2000/svg">
<path d="M13.0936 0.418579H31.1088C37.9717 0.418579 43.5478 5.9947 43.5478 12.8576V30.8728C43.5478 34.1718 42.2373 37.3358 39.9045 39.6685C37.5717 42.0013 34.4078 43.3118 31.1088 43.3118H13.0936C6.23066 43.3118 0.654541 37.7357 0.654541 30.8728V12.8576C0.654541 9.55858 1.96508 6.39466 4.29785 4.06189C6.63063 1.72912 9.79455 0.418579 13.0936 0.418579ZM12.6647 4.7079C10.617 4.7079 8.65316 5.52134 7.20523 6.96927C5.7573 8.4172 4.94387 10.381 4.94387 12.4287V31.3017C4.94387 35.5696 8.39677 39.0225 12.6647 39.0225H31.5377C33.5854 39.0225 35.5492 38.2091 36.9971 36.7611C38.445 35.3132 39.2585 33.3494 39.2585 31.3017V12.4287C39.2585 8.16081 35.8056 4.7079 31.5377 4.7079H12.6647ZM33.3606 7.9249C34.0716 7.9249 34.7535 8.20734 35.2563 8.7101C35.759 9.21285 36.0415 9.89473 36.0415 10.6057C36.0415 11.3167 35.759 11.9986 35.2563 12.5014C34.7535 13.0041 34.0716 13.2866 33.3606 13.2866C32.6497 13.2866 31.9678 13.0041 31.465 12.5014C30.9623 11.9986 30.6798 11.3167 30.6798 10.6057C30.6798 9.89473 30.9623 9.21285 31.465 8.7101C31.9678 8.20734 32.6497 7.9249 33.3606 7.9249ZM22.1012 11.1419C24.9452 11.1419 27.6727 12.2717 29.6837 14.2827C31.6947 16.2937 32.8245 19.0212 32.8245 21.8652C32.8245 24.7092 31.6947 27.4367 29.6837 29.4477C27.6727 31.4587 24.9452 32.5885 22.1012 32.5885C19.2572 32.5885 16.5297 31.4587 14.5186 29.4477C12.5076 27.4367 11.3779 24.7092 11.3779 21.8652C11.3779 19.0212 12.5076 16.2937 14.5186 14.2827C16.5297 12.2717 19.2572 11.1419 22.1012 11.1419ZM22.1012 15.4312C20.3948 15.4312 18.7583 16.1091 17.5517 17.3157C16.345 18.5223 15.6672 20.1588 15.6672 21.8652C15.6672 23.5716 16.345 25.2081 17.5517 26.4147C18.7583 27.6213 20.3948 28.2992 22.1012 28.2992C23.8076 28.2992 25.4441 27.6213 26.6507 26.4147C27.8573 25.2081 28.5352 23.5716 28.5352 21.8652C28.5352 20.1588 27.8573 18.5223 26.6507 17.3157C25.4441 16.1091 23.8076 15.4312 22.1012 15.4312Z" fill="#231803"/>
</svg>
