<svg width="39" height="40" viewBox="0 0 39 40" fill="none" xmlns="http://www.w3.org/2000/svg">
<path d="M34.3413 0.563232C35.4789 0.563232 36.5699 1.01514 37.3743 1.81955C38.1787 2.62395 38.6306 3.71496 38.6306 4.85256V34.8778C38.6306 36.0154 38.1787 37.1064 37.3743 37.9108C36.5699 38.7153 35.4789 39.1672 34.3413 39.1672H4.316C3.1784 39.1672 2.08739 38.7153 1.28299 37.9108C0.478582 37.1064 0.0266724 36.0154 0.0266724 34.8778V4.85256C0.0266724 3.71496 0.478582 2.62395 1.28299 1.81955C2.08739 1.01514 3.1784 0.563232 4.316 0.563232H34.3413ZM33.2689 33.8055V22.4388C33.2689 20.5845 32.5323 18.8062 31.2212 17.495C29.91 16.1838 28.1316 15.4472 26.2773 15.4472C24.4544 15.4472 22.3312 16.5624 21.3017 18.2353V15.8547H15.3181V33.8055H21.3017V23.2323C21.3017 21.5809 22.6314 20.2298 24.2828 20.2298C25.0791 20.2298 25.8428 20.5461 26.4059 21.1092C26.969 21.6723 27.2853 22.436 27.2853 23.2323V33.8055H33.2689ZM8.34796 12.4876C9.30355 12.4876 10.22 12.108 10.8957 11.4323C11.5714 10.7566 11.951 9.84011 11.951 8.88452C11.951 6.88999 10.3425 5.26004 8.34796 5.26004C7.38669 5.26004 6.46479 5.64191 5.78507 6.32163C5.10535 7.00135 4.72348 7.92325 4.72348 8.88452C4.72348 10.8791 6.35343 12.4876 8.34796 12.4876ZM11.329 33.8055V15.8547H5.38833V33.8055H11.329Z" fill="#231803"/>
</svg>
