<svg width="97" height="146" viewBox="0 0 97 146" fill="none" xmlns="http://www.w3.org/2000/svg">
<path d="M33.3049 0.750266C32.8579 1.24693 32.6096 3.48193 32.5599 7.35593C32.5102 10.5346 32.4606 14.8059 32.4109 16.7429L32.3116 20.3686H22.4279C14.0839 20.3686 12.3952 20.4679 11.7496 21.1633C11.0542 21.8089 10.9549 23.8453 10.9549 35.5169C10.9549 49.8209 11.3522 54.6386 13.0409 60.3503C16.3686 71.7736 24.9112 81.5083 34.9439 85.1836L37.2782 86.0776V92.4349C37.2782 100.431 37.1789 100.332 44.8276 100.332H50.1916V104.554V108.775H26.0536C10.4086 108.775 1.61757 108.974 0.971906 109.272C-0.120761 109.868 -0.369094 112.649 0.624239 113.643C1.07124 114.09 7.32924 114.239 25.7059 114.239H50.1916V121.192C50.1916 128.791 50.7379 132.218 52.4266 135.595C54.0159 138.724 57.8402 142.251 61.3666 143.89C63.9492 145.082 64.9426 145.28 69.0649 145.28C74.2799 145.28 77.1606 144.486 80.8856 141.953C85.0576 139.072 88.4349 132.615 88.4349 127.45C88.4349 121.887 85.3556 115.629 81.0842 112.5C77.0612 109.57 75.2732 109.173 65.0916 108.825L55.9032 108.527L55.7542 104.454L55.6052 100.431L62.2606 100.233C66.9789 100.133 69.1642 99.8849 69.7106 99.3883C70.4059 98.8419 70.5549 97.6499 70.5549 92.4349V86.1273L73.4356 84.9353C85.6536 79.9189 94.0969 68.2473 96.3319 53.2976C96.6299 51.3606 96.8782 43.4636 96.8782 35.8149C96.8782 23.8453 96.7789 21.8089 96.0836 21.1633C95.4379 20.4679 93.7492 20.3686 85.4052 20.3686H75.5216V11.5279C75.5216 1.5946 75.2236 0.352933 72.6906 0.104599C69.8596 -0.193401 69.5616 0.948933 69.5616 11.2796V20.3686H53.9166H38.2716V11.2796C38.2716 3.87927 38.1226 1.99193 37.4769 1.09793C36.5829 -0.193401 34.2486 -0.392067 33.3049 0.750266ZM91.2659 39.5896C91.0176 55.2843 90.7196 56.9233 87.0939 64.5223C83.3689 72.2703 76.5149 78.3793 69.0649 80.5149C65.2406 81.6076 65.1412 81.8063 64.9922 88.6106L64.8432 94.6203H53.9166H42.9899L42.8409 88.6106C42.6919 81.8063 42.5926 81.6076 38.7682 80.5149C29.1826 77.7336 20.9876 68.6943 17.9082 57.3703C16.9149 53.8439 16.7659 51.8076 16.5672 39.5896L16.3189 25.8319H53.9166H91.5142L91.2659 39.5896ZM73.0382 114.785C79.9419 116.275 84.2629 123.874 82.2266 130.927C79.9419 138.774 70.2072 142.4 62.6082 138.277C57.4429 135.446 56.0522 132.367 55.7542 122.831C55.6549 118.957 55.6549 115.431 55.8039 114.984C56.0522 114.338 57.2939 114.239 63.3036 114.239C67.2769 114.239 71.6476 114.487 73.0382 114.785Z" fill="#231803"/>
</svg>
