<svg width="200" height="200" viewBox="0 0 200 200" fill="none" xmlns="http://www.w3.org/2000/svg">
<circle cx="100" cy="100" r="99.5" stroke="#4E3505"/>
<path d="M86.0647 54.5422C85.7417 54.9012 85.5623 56.5165 85.5264 59.3164C85.4905 61.6138 85.4546 64.7008 85.4187 66.1008L85.3469 68.7212H78.2054C72.1764 68.7212 70.9563 68.793 70.4897 69.2956C69.9873 69.7622 69.9155 71.2339 69.9155 79.6695C69.9155 90.0076 70.2026 93.4895 71.4228 97.6176C73.8272 105.874 79.9998 112.909 87.2489 115.566L88.9356 116.212V120.807C88.9356 126.586 88.8639 126.514 94.3905 126.514H98.2662V129.565V132.616H80.8252C69.5208 132.616 63.1688 132.76 62.7023 132.975C61.9127 133.406 61.7333 135.416 62.451 136.134C62.774 136.457 67.2958 136.565 80.574 136.565H98.2662V141.59C98.2662 147.082 98.661 149.559 99.8812 152C101.03 154.262 103.793 156.81 106.341 157.995C108.207 158.856 108.925 159 111.903 159C115.671 159 117.753 158.426 120.444 156.595C123.459 154.513 125.899 149.846 125.899 146.113C125.899 142.093 123.674 137.57 120.588 135.309C117.681 133.191 116.389 132.904 109.032 132.652L102.393 132.437L102.286 129.493L102.178 126.586L106.987 126.442C110.396 126.37 111.975 126.191 112.37 125.832C112.872 125.437 112.98 124.576 112.98 120.807V116.248L115.061 115.386C123.89 111.761 129.99 103.325 131.605 92.5204C131.821 91.1204 132 85.4129 132 79.8849C132 71.2339 131.928 69.7622 131.426 69.2956C130.959 68.793 129.739 68.7212 123.71 68.7212H116.569V62.3317C116.569 55.1525 116.353 54.2551 114.523 54.0756C112.477 53.8602 112.262 54.6858 112.262 62.1522V68.7212H100.958H89.6534V62.1522C89.6534 56.8037 89.5457 55.4396 89.0792 54.7935C88.4332 53.8602 86.7465 53.7166 86.0647 54.5422ZM127.945 82.613C127.765 93.9562 127.55 95.1408 124.93 100.633C122.239 106.233 117.286 110.648 111.903 112.191C109.14 112.981 109.068 113.125 108.961 118.043L108.853 122.386H100.958H93.0626L92.955 118.043C92.8473 113.125 92.7755 112.981 90.0122 112.191C83.0861 110.181 77.1647 103.648 74.9397 95.4638C74.222 92.9152 74.1143 91.4435 73.9708 82.613L73.7913 72.6698H100.958H128.124L127.945 82.613ZM114.774 136.96C119.763 138.037 122.885 143.529 121.413 148.626C119.763 154.298 112.729 156.918 107.238 153.939C103.506 151.893 102.501 149.667 102.286 142.775C102.214 139.975 102.214 137.426 102.321 137.103C102.501 136.637 103.398 136.565 107.74 136.565C110.611 136.565 113.769 136.744 114.774 136.96Z" fill="#4E3505"/>
</svg>
