<svg width="43" height="65" viewBox="0 0 43 65" fill="none" xmlns="http://www.w3.org/2000/svg">
<path d="M14.7826 0.335668C14.5842 0.557882 14.474 1.55785 14.4519 3.29112C14.4299 4.71329 14.4078 6.62433 14.3858 7.49097L14.3417 9.11313H9.95476C6.25123 9.11313 5.5017 9.15757 5.21512 9.46867C4.90649 9.75755 4.8624 10.6686 4.8624 15.8907C4.8624 22.2904 5.03876 24.4459 5.78829 27.0014C7.26529 32.1123 11.057 36.4677 15.5101 38.1121L16.5462 38.5121V41.3564C16.5462 44.9341 16.5021 44.8896 19.897 44.8896H22.2778V46.7784V48.6673H11.564C4.61991 48.6673 0.717969 48.7561 0.431386 48.8895C-0.0536005 49.1561 -0.163825 50.4005 0.277072 50.845C0.475476 51.0449 3.25313 51.1116 11.4097 51.1116H22.2778V54.2226C22.2778 57.6225 22.5203 59.1558 23.2699 60.6668C23.9753 62.0668 25.6727 63.6445 27.2379 64.3778C28.3843 64.9111 28.8252 65 30.6549 65C32.9696 65 34.2482 64.6445 35.9016 63.5112C37.7533 62.2223 39.2524 59.3335 39.2524 57.0225C39.2524 54.5337 37.8856 51.7338 35.9897 50.3339C34.2041 49.0228 33.4105 48.845 28.8913 48.6895L24.813 48.5561L24.7469 46.734L24.6807 44.9341L27.6347 44.8452C29.729 44.8007 30.699 44.6896 30.9415 44.4674C31.2501 44.223 31.3162 43.6897 31.3162 41.3564V38.5343L32.5948 38.001C38.0179 35.7566 41.7655 30.5346 42.7575 23.8459C42.8898 22.9793 43 19.4461 43 16.024C43 10.6686 42.9559 9.75755 42.6473 9.46867C42.3607 9.15757 41.6112 9.11313 37.9076 9.11313H33.5207V5.15772C33.5207 0.713432 33.3884 0.157897 32.2642 0.0467895C31.0076 -0.0865391 30.8753 0.424554 30.8753 5.04661V9.11313H23.9312H16.9871V5.04661C16.9871 1.73562 16.9209 0.891203 16.6344 0.491218C16.2375 -0.0865391 15.2014 -0.175425 14.7826 0.335668ZM40.5089 17.7128C40.3987 24.7348 40.2664 25.4681 38.6572 28.868C37.0038 32.3345 33.9616 35.0677 30.6549 36.0233C28.9574 36.5121 28.9133 36.601 28.8472 39.6454L28.7811 42.3342H23.9312H19.0813L19.0152 39.6454C18.9491 36.601 18.905 36.5121 17.2075 36.0233C12.9529 34.7789 9.31546 30.7346 7.94868 25.6681C7.50778 24.0904 7.44165 23.1793 7.35347 17.7128L7.24325 11.5575H23.9312H40.6192L40.5089 17.7128ZM32.4185 51.356C35.4827 52.0227 37.4006 55.4226 36.4968 58.578C35.4827 62.089 31.1619 63.7112 27.7891 61.8668C25.4964 60.6002 24.8791 59.2224 24.7469 54.9559C24.7028 53.2226 24.7028 51.6449 24.7689 51.4449C24.8791 51.1561 25.4303 51.1116 28.0977 51.1116C29.8613 51.1116 31.8012 51.2227 32.4185 51.356Z" fill="white"/>
</svg>
