<svg width="35" height="40" viewBox="0 0 35 40" fill="none" xmlns="http://www.w3.org/2000/svg">
<path d="M27.1183 6.61118C27.1183 6.61118 28.212 7.68351 27.1183 6.61118C25.6522 4.93753 24.8443 2.78817 24.8449 0.563232H18.2179V27.1571C18.1668 28.5962 17.5592 29.9593 16.5231 30.9594C15.487 31.9595 14.1033 32.5185 12.6632 32.5187C9.61782 32.5187 7.08712 30.0309 7.08712 26.9426C7.08712 23.2538 10.6473 20.4872 14.3146 21.6238V14.8467C6.91554 13.8601 0.43866 19.6078 0.43866 26.9426C0.43866 34.0843 6.35793 39.1672 12.6418 39.1672C19.376 39.1672 24.8449 33.6983 24.8449 26.9426V13.4527C27.5322 15.3825 30.7585 16.418 34.067 16.4123V9.78528C34.067 9.78528 30.035 9.9783 27.1183 6.61118Z" fill="#231803"/>
</svg>
