<svg width="47" height="38" viewBox="0 0 47 38" fill="none" xmlns="http://www.w3.org/2000/svg">
<path d="M44.6236 1.72939C42.4789 2.78027 40.3772 3.20706 38.1896 3.8526C35.7854 1.1396 32.221 0.989477 28.796 2.27199C25.371 3.55449 23.1276 6.68999 23.177 10.2866V12.4313C16.2175 12.6093 10.0195 9.43945 6.01967 3.8526C6.01967 3.8526 -2.94931 19.7939 14.5983 27.4439C10.5835 30.1183 6.57943 31.9219 1.73035 31.7332C8.82489 35.6 16.5564 36.9297 23.2499 34.9867C30.9278 32.7562 37.2374 27.0021 39.6587 18.3827C40.381 15.7612 40.7397 13.0529 40.7246 10.3338C40.7203 9.79975 43.963 4.38877 44.6236 1.72724V1.72939Z" stroke="#231803" stroke-width="2.85955" stroke-linecap="round" stroke-linejoin="round"/>
</svg>
