<svg width="1120" height="412" viewBox="0 0 1120 412" fill="none" xmlns="http://www.w3.org/2000/svg">
<path opacity="0.3" d="M1185.5 373.5C1185.5 467.811 1115.57 553.302 1002.26 615.245C888.975 677.178 732.436 715.5 559.5 715.5C386.564 715.5 230.025 677.178 116.737 615.245C3.43134 553.302 -66.5 467.811 -66.5 373.5C-66.5 279.189 3.43134 193.698 116.737 131.755C230.025 69.8218 386.564 31.5 559.5 31.5C732.436 31.5 888.975 69.8218 1002.26 131.755C1115.57 193.698 1185.5 279.189 1185.5 373.5Z" stroke="#A26D50"/>
<path opacity="0.4" d="M1222.5 335.5C1222.5 429.796 1148.56 515.29 1028.73 577.24C908.924 639.177 743.381 677.5 560.5 677.5C377.619 677.5 212.076 639.177 92.2714 577.24C-27.5584 515.29 -101.5 429.796 -101.5 335.5C-101.5 241.204 -27.5584 155.71 92.2714 93.7601C212.076 31.8235 377.619 -6.5 560.5 -6.5C743.381 -6.5 908.924 31.8235 1028.73 93.7601C1148.56 155.71 1222.5 241.204 1222.5 335.5Z" stroke="#A26D50"/>
<path opacity="0.2" d="M1153.5 404.5C1153.5 498.824 1087.24 584.314 979.918 646.251C872.604 708.18 724.319 746.5 560.5 746.5C396.681 746.5 248.396 708.18 141.082 646.251C33.7552 584.314 -32.5 498.824 -32.5 404.5C-32.5 310.176 33.7552 224.686 141.082 162.749C248.396 100.82 396.681 62.5 560.5 62.5C724.319 62.5 872.604 100.82 979.918 162.749C1087.24 224.686 1153.5 310.176 1153.5 404.5Z" stroke="#A26D50"/>
</svg>
