<svg width="2393" height="311" viewBox="0 0 2393 311" fill="none" xmlns="http://www.w3.org/2000/svg">
<g clip-path="url(#clip0_203_37)">
<path d="M0.856934 184.292C52.1255 179.269 103.414 174.405 154.423 167.289C205.453 160.352 256.183 150.884 305.877 137.389C318.196 133.682 330.654 130.412 342.813 126.127L351.963 123.077C355.013 122.06 358.082 121.084 361.072 119.908L379.132 113.09L383.637 111.376L388.062 109.482L396.932 105.675C402.833 103.104 408.813 100.732 414.553 97.8015L431.915 89.3697C437.656 86.4794 443.337 83.4495 449.038 80.4396C471.782 68.3799 494.327 55.8817 517.589 44.7191C540.811 33.5763 564.751 23.6097 589.728 17.0117C602.226 13.8423 614.883 11.1115 627.681 9.53672C634.059 8.54005 640.498 8.06166 646.916 7.44372C650.126 7.10486 653.355 7.06499 656.564 6.84572C659.793 6.70619 663.003 6.42712 666.232 6.44706C692.025 5.80919 717.839 7.52345 743.394 10.952C768.968 14.2609 794.303 19.2044 819.459 24.7658C844.615 30.387 869.612 36.5863 894.548 43.1045C944.401 56.101 993.936 70.2736 1043.85 82.9512C1093.74 95.6089 1144.07 106.851 1195.06 113.828C1245.99 120.904 1297.68 123.675 1348.97 119.688C1400.2 115.761 1451.09 104.758 1498.53 84.805C1546.05 65.1109 1590.82 38.9583 1639.44 21.3971C1688.07 3.99526 1740.34 -2.50301 1791.79 0.945459C1817.52 2.46039 1843.14 5.84906 1868.45 10.7327C1893.75 15.7161 1918.76 21.9751 1943.54 29.0315C1993.11 43.1643 2041.51 61.0046 2090.21 77.7287C2114.57 86.1007 2139.01 94.2135 2163.66 101.629C2188.34 108.984 2213.26 115.502 2238.47 120.765L2247.94 122.678C2251.09 123.316 2254.24 123.974 2257.43 124.452L2276.49 127.602L2295.64 129.994C2298.83 130.452 2302.04 130.692 2305.25 130.931L2314.88 131.688C2340.55 133.482 2366.39 133.303 2392.02 130.711C2366.39 133.383 2340.55 133.662 2314.86 131.927L2305.23 131.19C2302.02 130.951 2298.81 130.731 2295.62 130.273L2276.45 127.941L2257.37 124.851C2254.18 124.373 2251.03 123.735 2247.86 123.097L2238.39 121.203C2213.16 116.021 2188.2 109.562 2163.48 102.287C2138.79 94.9311 2114.31 86.898 2089.93 78.6057C2041.19 61.9614 1992.82 44.1609 1943.26 30.088C1918.5 23.0515 1893.51 16.8323 1868.25 11.8889C1842.98 7.02512 1817.42 3.67632 1791.75 2.20125C1740.44 -1.16748 1688.39 5.37065 1639.98 22.7326C1591.54 40.254 1546.83 66.4464 1499.19 86.2601C1451.59 106.333 1400.52 117.436 1349.13 121.442C1297.68 125.489 1245.85 122.778 1194.8 115.722C1143.71 108.665 1093.32 97.3431 1043.41 84.6256C993.477 71.8882 943.963 57.6558 894.15 44.6194C869.233 38.1012 844.256 31.8621 819.14 26.2209C794.024 20.6197 768.749 15.6762 743.234 12.3473C717.739 8.89885 692.006 7.16465 666.311 7.78259C663.102 7.78259 659.893 8.04172 656.684 8.18125C653.474 8.38059 650.265 8.44039 647.056 8.75932C640.657 9.37726 634.239 9.83572 627.9 10.8125C615.143 12.3872 602.545 15.0782 590.106 18.2277C565.23 24.7658 541.369 34.6727 518.167 45.7556C494.945 56.8784 472.4 69.3367 449.636 81.3765C443.935 84.3864 438.254 87.4163 432.493 90.3066L415.092 98.7384C409.351 101.669 403.351 104.041 397.431 106.612L388.54 110.419L384.095 112.313L379.57 114.007L361.471 120.825C358.481 122.021 355.391 122.977 352.341 123.994L343.172 127.024C337.053 129.057 330.953 131.13 324.734 132.844L306.176 138.246C256.382 151.602 205.592 160.91 154.543 167.688C103.434 174.744 52.1255 179.448 0.856934 184.292Z" fill="white"/>
<path d="M0.797363 205.224C52.026 201.177 103.235 196.772 154.164 189.795C205.094 183.018 255.685 173.43 305.219 159.836L323.678 154.374L332.907 151.623L342.036 148.553L360.275 142.354L378.255 135.457C381.245 134.281 384.275 133.225 387.225 131.929L396.055 128.102L404.886 124.275C407.816 122.979 410.806 121.783 413.657 120.328C425.178 114.667 436.779 109.165 448.062 103.006C470.746 90.9261 493.171 78.3681 516.154 66.8466C539.117 55.2853 562.718 44.8402 587.296 37.126C611.854 29.352 637.349 24.8271 662.983 22.5547C675.8 21.5381 688.677 20.9003 701.534 20.98C714.391 20.9202 727.268 21.4783 740.085 22.3155C765.759 24.0697 791.294 27.2789 816.689 31.2257C842.084 35.1526 867.419 39.5579 892.675 44.2821C943.206 53.7105 993.497 64.2951 1043.79 74.8797C1068.93 80.2219 1094 85.863 1119 91.8629C1131.5 94.8529 1143.93 98.0423 1156.47 100.793L1175.25 105.059L1184.64 107.192L1194.07 109.145C1244.36 119.271 1295.61 125.51 1346.96 124.474C1372.59 123.995 1398.2 121.444 1423.4 116.68C1436 114.288 1448.48 111.338 1460.81 107.83C1473.13 104.281 1485.27 100.135 1497.29 95.6303C1545.31 77.491 1591.02 53.4115 1640 37.3253C1664.43 29.2324 1689.65 23.5315 1715.14 20.0631C1740.64 16.5349 1766.43 15.1993 1792.15 16.0565C1817.86 16.9335 1843.49 20.1029 1868.71 25.1261C1893.95 30.1095 1918.82 36.7473 1943.46 44.1027C1992.76 58.7537 2041.09 76.3149 2089.85 92.4609C2114.23 100.574 2138.77 108.188 2163.5 115.105C2188.24 122.042 2213.24 128.062 2238.45 132.886C2288.85 142.613 2340.61 146.66 2391.8 141.537C2340.63 146.839 2288.83 142.952 2238.37 133.364C2213.12 128.62 2188.08 122.68 2163.31 115.803C2138.53 108.966 2113.95 101.431 2089.53 93.3779C2040.72 77.3116 1992.38 59.7902 1943.1 45.199C1918.48 37.8835 1893.65 31.2855 1868.45 26.3421C1843.28 21.3587 1817.72 18.2292 1792.09 17.3721C1766.45 16.5548 1740.74 17.9103 1715.32 21.4584C1689.91 24.9268 1664.79 30.6277 1640.45 38.7406C1591.66 54.8467 1545.99 78.9461 1497.87 97.1851C1485.83 101.73 1473.65 105.896 1461.27 109.484C1448.89 113.032 1436.36 116.002 1423.72 118.414C1398.42 123.238 1372.71 125.809 1347 126.328C1295.49 127.424 1244.08 121.245 1193.69 111.119L1184.24 109.165L1174.83 107.012L1156.03 102.727C1143.48 99.9559 1131.02 96.7665 1118.54 93.7566C1093.56 87.7168 1068.51 82.0757 1043.39 76.6937C993.119 66.0692 942.847 55.4248 892.356 45.9565C867.1 41.2123 841.805 36.7871 816.43 32.8403C791.054 28.8736 765.56 25.6444 739.965 23.8703C727.168 23.0132 714.331 22.4351 701.514 22.4949C688.677 22.3953 675.86 23.0132 663.082 24.0099C637.548 26.2424 612.153 30.7274 587.675 38.4416C563.177 46.0761 539.615 56.4813 516.692 68.0027C493.729 79.4843 471.284 92.0224 448.58 104.082C403.371 128.72 354.953 146.979 305.458 160.832C255.824 174.287 205.174 183.716 154.204 190.334C103.275 197.111 52.026 201.337 0.797363 205.224Z" fill="white"/>
<path d="M0.736816 226.154C51.9854 223.064 103.214 219.118 154.084 212.261C179.539 208.992 204.874 204.746 230.07 199.902L248.927 196.035C255.226 194.779 261.425 193.164 267.684 191.749C280.222 188.978 292.561 185.47 304.959 182.181C311.139 180.487 317.238 178.494 323.398 176.68C329.537 174.826 335.697 173.012 341.736 170.839L359.936 164.58C365.955 162.367 371.896 159.956 377.895 157.663L386.865 154.175C389.816 152.939 392.746 151.603 395.676 150.328L413.297 142.594L430.539 134.082C433.41 132.647 436.3 131.271 439.151 129.796L447.662 125.291C470.306 113.192 492.672 100.574 515.455 88.7138C538.259 76.8934 561.541 65.8902 585.78 57.2391L594.91 54.1494C597.959 53.1528 601.069 52.2757 604.139 51.3388C610.258 49.3654 616.537 47.9302 622.757 46.2957C635.275 43.4054 647.892 40.834 660.65 39.1396C686.105 35.4121 711.859 34.236 737.533 34.2161C763.227 34.3955 788.901 35.8506 814.495 38.0433C840.09 40.216 865.644 42.6878 891.159 45.4784C942.208 51.0598 993.118 57.9567 1043.77 66.6077C1069.06 71.0728 1094.22 76.4947 1119 83.3717C1143.71 90.4082 1168.23 98.0028 1192.97 104.8C1242.44 118.195 1293.09 128.042 1344.36 130.115C1369.96 131.092 1395.65 129.757 1420.99 125.969C1433.64 124.056 1446.22 121.584 1458.64 118.434C1471.06 115.285 1483.32 111.537 1495.48 107.451C1544.04 90.9663 1590.62 68.8004 1639.82 53.7109C1664.39 46.1362 1689.55 40.5748 1714.94 36.628C1740.34 32.6613 1766.03 30.4288 1791.75 30.7676C1817.46 31.0068 1843.12 34.1164 1868.29 39.2991C1893.49 44.4419 1918.22 51.4385 1942.78 58.9932C1955.06 62.7806 1967.28 66.6676 1979.5 70.6343L2016.08 82.6939C2040.42 90.8467 2064.73 99.0991 2089.19 106.873C2138.09 122.401 2187.74 135.896 2238.33 144.746C2288.84 153.657 2340.53 157.085 2391.68 152.201C2340.55 157.245 2288.82 153.976 2238.25 145.225C2187.62 136.534 2137.89 123.198 2088.91 107.81C2064.41 100.096 2040.1 91.8434 2015.76 83.7305L1979.18 71.7107C1966.98 67.744 1954.72 63.8968 1942.46 60.1095C1917.92 52.5946 1893.21 45.6379 1868.07 40.515C1842.96 35.3722 1817.4 32.3025 1791.77 32.0832C1766.13 31.7842 1740.52 34.0168 1715.18 38.0034C1689.85 41.9502 1664.77 47.5316 1640.27 55.1062C1591.22 70.2157 1544.69 92.4015 1496.02 108.986C1483.84 113.112 1471.54 116.88 1459.08 120.049C1446.6 123.218 1433.98 125.73 1421.27 127.644C1395.83 131.471 1370.02 132.846 1344.32 131.889C1292.88 129.856 1242.07 120.049 1192.49 106.674C1167.73 99.8366 1143.18 92.2022 1118.54 85.1458C1093.84 78.2488 1068.74 72.827 1043.51 68.342C992.938 59.651 942.049 52.6943 891.039 47.0731C865.525 44.2625 839.99 41.7509 814.416 39.5582C788.861 37.3456 763.227 35.8506 737.592 35.6513C711.958 35.6314 686.284 36.7875 660.909 40.4752C648.191 42.1496 635.633 44.701 623.135 47.5714C616.936 49.206 610.697 50.6412 604.577 52.5747C601.508 53.5116 598.438 54.3687 595.388 55.3654L586.279 58.4351C562.119 67.0264 538.877 77.9897 516.073 89.7703C493.29 101.591 470.924 114.189 448.24 126.268L439.729 130.753C436.878 132.228 433.968 133.604 431.098 135.039L413.815 143.55L396.154 151.285C393.204 152.56 390.274 153.876 387.324 155.112L378.334 158.6C372.334 160.892 366.374 163.284 360.354 165.517L342.135 171.756C336.095 173.929 329.936 175.743 323.776 177.597C317.617 179.41 311.498 181.404 305.298 183.078C292.88 186.327 280.501 189.816 267.963 192.547C261.704 193.942 255.485 195.556 249.166 196.792L230.289 200.6C205.053 205.384 179.718 209.55 154.223 212.739C103.234 219.457 52.0054 223.224 0.736816 226.154Z" fill="white"/>
<path d="M0.697754 247.084C52.0261 244.931 103.334 241.462 154.264 234.705C179.759 231.516 205.094 227.23 230.29 222.346L249.147 218.419L253.851 217.443L258.535 216.326L267.904 214.094C280.442 211.283 292.781 207.755 305.179 204.386C329.797 197.131 354.295 189.357 378.076 179.629C390.115 175.144 401.697 169.603 413.477 164.5C419.298 161.789 424.979 158.819 430.739 156.008L439.351 151.722C442.221 150.267 445.032 148.732 447.862 147.237C493.131 123.078 537.223 96.1683 585.203 77.3113C609.183 68.0025 633.96 60.667 659.235 55.8631C671.833 53.2717 684.59 51.4977 697.348 49.8432C710.125 48.3681 722.942 47.1921 735.759 46.4346C761.453 44.8798 787.187 44.6406 812.881 44.9795C838.575 45.3183 864.25 45.7369 889.944 46.4745C941.312 47.9695 992.68 51.1189 1043.67 58.0358C1069.12 61.7235 1094.4 67.0855 1118.92 74.9791C1143.38 83.0123 1167.28 92.4407 1191.55 100.793C1240.01 117.557 1289.83 131.331 1340.9 136.573C1366.41 139.045 1392.16 138.905 1417.64 136.135C1430.38 134.719 1443.03 132.666 1455.57 129.955C1468.09 127.224 1480.49 123.915 1492.79 120.228C1541.94 105.437 1589.28 84.9857 1638.68 70.534C1663.36 63.2583 1688.49 57.6371 1713.77 52.9927C1739.06 48.4479 1764.7 45.2585 1790.45 45.119C1803.33 45.0393 1816.21 45.6373 1828.98 47.0725C1841.78 48.4877 1854.48 50.6605 1867.06 53.3315C1892.23 58.6936 1916.89 66.049 1941.39 73.7632C1965.89 81.4774 1990.3 89.5105 2014.72 97.4839C2039.1 105.577 2063.5 113.63 2088.08 121.085C2112.63 128.62 2137.43 135.337 2162.41 141.337C2187.38 147.317 2212.56 152.52 2237.92 156.526C2288.61 164.639 2340.29 167.569 2391.48 162.905C2340.29 167.729 2288.59 164.978 2237.84 157.025C2212.44 153.078 2187.24 147.975 2162.23 142.055C2137.23 136.135 2112.4 129.477 2087.8 122.022C2063.2 114.607 2038.78 106.554 2014.38 98.5005C1989.96 90.5471 1965.55 82.5538 1941.03 74.8595C1916.53 67.1653 1891.89 59.8497 1866.78 54.5275C1854.22 51.8764 1841.56 49.7236 1828.82 48.3283C1816.09 46.913 1803.25 46.3349 1790.43 46.4346C1764.78 46.5941 1739.22 49.8033 1713.99 54.3681C1688.75 59.0125 1663.68 64.6537 1639.06 71.9493C1589.78 86.4209 1542.5 106.912 1493.23 121.803C1480.91 125.51 1468.47 128.839 1455.89 131.59C1443.31 134.321 1430.6 136.414 1417.8 137.849C1392.2 140.679 1366.31 140.839 1340.7 138.387C1289.41 133.165 1239.43 119.411 1190.88 102.667C1166.58 94.2746 1142.66 84.8262 1118.3 76.7931C1093.9 68.9194 1068.75 63.5374 1043.37 59.8497C992.521 52.8731 941.172 49.6837 889.864 48.1289C864.19 47.3515 838.516 46.913 812.822 46.5343C787.147 46.1755 761.453 46.3947 735.839 47.8897C684.67 50.7801 633.481 59.6504 585.661 78.5073C537.801 97.2646 493.709 124.095 448.38 148.234C445.53 149.729 442.719 151.264 439.849 152.719L431.218 157.005C425.437 159.835 419.736 162.785 413.896 165.496C402.095 170.619 390.474 176.141 378.414 180.626C354.594 190.333 330.056 198.107 305.399 205.303C292.98 208.632 280.622 212.12 268.064 214.911L258.675 217.124L253.991 218.22L249.266 219.197L230.39 223.064C205.154 227.868 179.779 232.074 154.284 235.183C103.354 241.781 52.0261 245.11 0.697754 247.084Z" fill="white"/>
<path d="M0.637207 268.013C52.1051 266.817 103.593 263.767 154.662 257.109C180.217 254 205.612 249.654 230.867 244.731C243.465 242.06 256.083 239.548 268.541 236.339L277.91 234.066L282.594 232.93L287.239 231.634L305.836 226.472C330.494 219.156 355.012 211.183 378.812 201.396C390.852 196.831 402.493 191.349 414.254 186.127C417.224 184.871 420.054 183.356 422.945 181.941L431.576 177.615C437.317 174.725 443.097 171.914 448.739 168.805C471.423 156.645 493.748 143.808 516.372 131.45C538.977 119.091 561.86 107.171 585.601 97.0844C609.321 86.9782 633.859 78.7857 658.896 72.6063C671.394 69.4768 684.032 66.8855 696.709 64.5533C709.407 62.3606 722.144 60.3473 734.941 58.8125C760.516 55.6032 786.21 53.6098 811.924 51.9952C837.618 50.4205 863.312 48.6664 889.046 47.3308C914.76 45.9754 940.534 45.1581 966.308 45.2977C979.184 45.4173 992.081 45.7362 1004.96 46.3342C1017.82 46.992 1030.71 47.7893 1043.51 49.364C1069.12 52.4138 1094.56 57.7959 1118.8 66.8057C1124.86 69.0781 1130.8 71.5698 1136.78 73.9817L1154.48 81.7159C1166.28 86.8786 1178.06 92.1211 1189.88 97.1841C1213.52 107.33 1237.46 116.838 1261.88 124.891C1274.08 128.918 1286.42 132.586 1298.86 135.795C1311.29 139.004 1323.85 141.815 1336.53 143.788C1349.23 145.742 1362 147.037 1374.84 147.596C1387.68 148.114 1400.54 147.954 1413.33 147.097C1438.97 145.343 1464.3 140.459 1489.16 133.901C1538.93 120.825 1586.97 101.868 1636.55 87.6959C1661.32 80.5797 1686.4 74.6196 1711.59 69.2177C1736.79 63.8755 1762.39 59.849 1788.2 59.1713C1814.01 58.4337 1839.83 61.643 1864.98 67.2642C1890.18 72.8256 1914.8 80.5199 1939.31 88.3736L2012.83 112.094C2037.31 120.088 2061.82 127.961 2086.54 135.137C2111.24 142.373 2136.22 148.652 2161.35 154.253C2186.49 159.835 2211.78 164.619 2237.28 168.266C2288.21 175.602 2339.97 178.094 2391.3 173.628C2339.99 178.273 2288.19 175.941 2237.2 168.765C2211.68 165.177 2186.35 160.472 2161.19 154.971C2136.04 149.469 2111.02 143.25 2086.28 136.094C2061.52 128.958 2037.01 121.084 2012.51 113.131L1938.95 89.4899C1914.44 81.6561 1889.84 74.0017 1864.7 68.4801C1839.61 62.8988 1813.93 59.7493 1788.24 60.5068C1762.54 61.2044 1737.03 65.231 1711.89 70.593C1686.74 76.0149 1661.68 81.9949 1636.96 89.1311C1587.51 103.344 1539.49 122.34 1489.6 135.516C1464.68 142.094 1439.23 147.037 1413.47 148.831C1400.6 149.708 1387.68 149.888 1374.78 149.37C1361.88 148.811 1349.03 147.536 1336.27 145.582C1323.51 143.609 1310.9 140.798 1298.42 137.589C1285.92 134.38 1273.56 130.712 1261.3 126.685C1236.8 118.632 1212.8 109.144 1189.12 98.998C1177.28 93.8951 1165.52 88.6526 1153.74 83.4899L1136.06 75.7359C1130.1 73.3239 1124.16 70.8323 1118.16 68.5798C1094.1 59.6098 1068.8 54.2278 1043.31 51.178C1030.55 49.6032 1017.72 48.8059 1004.88 48.1282C992.042 47.5103 979.165 47.1714 966.308 47.0518C940.574 46.8724 914.86 47.6896 889.146 49.0052C863.432 50.3208 837.738 52.0551 812.044 53.5899C786.349 55.1846 760.675 57.158 735.141 60.3274C722.363 61.8423 709.666 63.8357 696.988 66.0084C684.331 68.3207 671.733 70.8921 659.255 74.0017C634.278 80.1411 609.82 88.2939 586.139 98.3403C562.458 108.387 539.575 120.247 516.99 132.586C494.386 144.905 472.041 157.722 449.317 169.861C443.675 172.951 437.875 175.781 432.114 178.652L423.463 182.977C420.573 184.412 417.722 185.907 414.752 187.163C402.972 192.386 391.311 197.867 379.231 202.412C355.371 212.18 330.833 220.153 306.116 227.409L287.478 232.512L282.813 233.787L278.109 234.904L268.721 237.156C256.222 240.325 243.585 242.797 230.987 245.428C205.691 250.272 180.276 254.518 154.702 257.568C103.613 264.086 52.1051 266.976 0.637207 268.013Z" fill="white"/>
<path d="M0.578125 288.944C52.2653 288.685 103.992 286.073 155.281 279.475C180.955 276.406 206.43 272.04 231.785 267.037C244.423 264.326 257.08 261.755 269.598 258.486L279.007 256.153L283.711 254.997L288.376 253.682L307.033 248.419L311.698 247.104L316.302 245.629L325.531 242.678L334.76 239.728L339.365 238.253L343.93 236.619L362.169 230.061L366.714 228.406L371.199 226.592L380.189 222.964C392.248 218.32 403.949 212.818 415.71 207.516C418.68 206.24 421.55 204.765 424.441 203.31L433.092 198.945C438.852 196.014 444.673 193.204 450.314 190.074C495.842 165.636 539.835 138.188 586.957 116.62C610.478 105.836 634.797 96.7664 659.594 89.3313C684.411 81.936 709.627 76.0357 735.062 71.2318C760.477 66.388 786.071 62.5608 811.665 58.9529C837.26 55.3848 862.795 51.3782 888.429 47.85C914.043 44.3617 939.777 41.4514 965.631 39.9764C978.547 39.199 991.504 38.8999 1004.44 38.8601C1017.38 38.8401 1030.35 39.2388 1043.25 40.4747C1069.02 42.9464 1094.68 48.5477 1118.58 58.8134C1121.57 60.0692 1124.5 61.4446 1127.45 62.82C1130.38 64.1954 1133.35 65.5109 1136.24 66.9661L1153.46 75.9162L1170.68 84.8662L1187.85 93.8761C1210.77 105.796 1233.95 117.218 1257.77 127.205C1269.67 132.188 1281.73 136.832 1293.95 140.998C1306.15 145.204 1318.53 148.812 1331.13 151.543C1356.3 157.045 1382.18 159.417 1407.95 158.699C1433.75 158.041 1459.36 154.035 1484.54 148.394C1509.73 142.753 1534.55 135.457 1559.25 127.862L1596.32 116.48L1614.86 110.799L1624.13 107.949C1627.22 107.012 1630.35 106.215 1633.48 105.338L1670.89 95.0522C1683.37 91.7034 1695.89 88.4941 1708.47 85.3845C1733.58 79.265 1759.12 74.182 1785.05 73.1255C1810.98 71.8697 1836.92 75.2384 1862.11 81.0589C1887.37 86.8396 1912.01 94.8528 1936.58 102.846L2010.44 126.547C2035.05 134.46 2059.73 142.155 2084.63 149.052C2109.52 156.008 2134.7 161.849 2160.02 167.071C2185.33 172.254 2210.83 176.659 2236.44 179.968C2287.69 186.586 2339.62 188.659 2391.16 184.373C2339.64 188.819 2287.67 186.925 2236.36 180.447C2210.71 177.197 2185.19 172.892 2159.84 167.769C2134.5 162.626 2109.27 156.865 2084.33 149.968C2059.39 143.111 2034.7 135.417 2010.08 127.543L1936.2 103.922C1911.61 95.9691 1887.01 87.9958 1861.81 82.255C1836.68 76.4942 1810.86 73.1454 1785.07 74.4411C1759.28 75.5175 1733.82 80.6005 1708.77 86.74C1696.23 89.8496 1683.71 93.0588 1671.23 96.4276L1633.88 106.733C1630.77 107.61 1627.64 108.407 1624.55 109.344L1615.28 112.195L1596.74 117.896L1559.68 129.318C1534.99 136.952 1510.15 144.268 1484.87 149.968C1459.64 155.669 1433.92 159.716 1407.99 160.414C1382.08 161.171 1356.06 158.819 1330.75 153.297C1318.07 150.566 1305.59 146.939 1293.35 142.733C1281.1 138.567 1269 133.942 1257.06 128.939C1233.16 118.952 1209.89 107.55 1186.95 95.6103L1169.79 86.5606L1152.61 77.6105L1135.42 68.6604C1132.55 67.2053 1129.58 65.9096 1126.67 64.5342C1123.74 63.1588 1120.83 61.7834 1117.86 60.5476C1094.2 50.3417 1068.75 44.7404 1043.11 42.2687C1030.27 41.0328 1017.38 40.6142 1004.46 40.6142C991.544 40.6541 978.647 40.9332 965.75 41.6906C939.956 43.1258 914.282 45.9962 888.668 49.4646C863.074 52.9529 837.519 56.9396 811.905 60.4678C786.31 64.0558 760.736 67.8431 735.361 72.667C709.966 77.4311 684.79 83.2915 660.033 90.6469C635.295 98.0422 611.036 107.072 587.555 117.796C540.512 139.264 496.5 166.653 450.912 191.071C445.251 194.201 439.411 196.991 433.65 199.941L424.979 204.307C422.088 205.782 419.218 207.237 416.248 208.513C404.447 213.815 392.727 219.317 380.647 223.961C356.727 233.848 332.129 241.981 307.352 249.376L288.675 254.599L284.01 255.894L279.306 257.05L269.877 259.343C257.359 262.572 244.662 265.103 232.024 267.774C206.629 272.698 181.114 276.984 155.44 279.974C104.032 286.392 52.2852 288.844 0.578125 288.944Z" fill="white"/>
<path d="M0.538086 309.874C52.5242 310.551 104.59 308.379 156.178 301.821C181.991 298.791 207.625 294.365 233.12 289.262L252.177 285.136L256.941 284.1L261.665 282.924L271.113 280.552L280.562 278.18L285.286 276.984L289.97 275.648L308.707 270.266C333.544 262.632 358.202 254.359 382.162 244.273C394.281 239.549 406.002 233.947 417.823 228.585C420.793 227.29 423.683 225.795 426.573 224.32L435.264 219.914C441.045 216.944 446.885 214.114 452.566 210.964C498.293 186.267 542.406 158.52 589.249 135.736C612.651 124.334 636.75 114.367 661.308 105.776C685.886 97.2248 710.882 89.9092 736.098 83.4708C761.294 76.9924 786.689 71.3114 812.044 65.6504C837.419 60.0292 862.635 53.6904 888.03 48.0094C913.425 42.3483 938.999 37.3849 964.873 34.3351C977.79 32.7404 990.786 31.7238 1003.8 31.1258C1016.8 30.468 1029.88 30.4481 1042.87 31.4647C1068.85 33.4381 1094.8 39.3184 1118.26 50.9994C1141.76 62.4212 1163.27 77.2715 1185.42 90.8062C1207.5 104.52 1229.81 117.856 1252.87 129.796C1264.39 135.776 1276.11 141.357 1288.05 146.48C1299.97 151.623 1312.13 156.108 1324.61 159.616C1349.55 166.692 1375.42 170.34 1401.35 170.779C1414.31 170.958 1427.29 170.34 1440.2 169.084C1453.1 167.769 1465.96 165.835 1478.71 163.463C1491.47 161.091 1504.15 158.221 1516.75 155.111C1529.35 151.962 1541.9 148.653 1554.36 144.905L1629.23 123.038L1704.22 101.53C1729.24 94.474 1754.75 88.474 1780.82 86.8794C1793.84 86.0422 1806.92 86.4608 1819.87 87.8561C1832.83 89.2514 1845.67 91.6434 1858.32 94.6334C1883.68 100.633 1908.36 108.965 1933.05 117.058C1957.75 125.131 1982.59 132.866 2007.37 140.759C2032.16 148.573 2057.04 156.128 2082.16 162.785C2107.27 169.503 2132.71 174.905 2158.24 179.769C2183.78 184.593 2209.47 188.619 2235.3 191.609C2286.93 197.569 2339.14 199.224 2390.98 195.117C2339.14 199.383 2286.91 197.888 2235.24 192.087C2209.41 189.177 2183.68 185.23 2158.1 180.486C2132.55 175.702 2107.07 170.36 2081.92 163.722C2056.76 157.124 2031.86 149.57 2007.05 141.796C1982.27 133.922 1957.43 126.228 1932.7 118.175C1907.98 110.102 1883.32 101.809 1858.05 95.8494C1832.81 89.8694 1806.82 86.5006 1780.9 88.2149C1754.99 89.8096 1729.58 95.8294 1704.6 102.886L1629.65 124.474L1554.8 146.42C1542.36 150.188 1529.76 153.516 1517.15 156.686C1504.51 159.815 1491.81 162.706 1479.01 165.098C1466.22 167.49 1453.34 169.443 1440.36 170.779C1427.41 172.054 1414.37 172.712 1401.33 172.533C1375.26 172.134 1349.23 168.466 1324.13 161.39C1311.57 157.862 1299.29 153.377 1287.33 148.214C1275.35 143.111 1263.59 137.49 1252.01 131.51C1228.87 119.57 1206.48 106.215 1184.38 92.5006C1162.19 78.906 1140.74 64.0956 1117.42 52.7136C1094.24 41.1523 1068.53 35.272 1042.75 33.2986C1029.84 32.262 1016.86 32.262 1003.9 32.9198C990.946 33.4979 977.989 34.4946 965.112 36.0892C939.318 39.0792 913.784 44.0227 888.429 49.6439C863.073 55.285 837.838 61.6039 812.423 67.2052C787.048 72.8463 761.673 78.4874 736.497 84.9458C711.321 91.3644 686.345 98.6201 661.807 107.132C637.269 115.683 613.229 125.61 589.867 136.952C543.084 159.636 498.951 187.343 453.144 212.001C447.463 215.15 441.603 217.981 435.802 220.951L427.091 225.356C424.201 226.831 421.291 228.326 418.321 229.622C406.461 234.984 394.72 240.585 382.58 245.29C358.581 255.356 333.883 263.648 309.006 271.223L290.229 276.545L285.545 277.881L280.821 279.057L271.352 281.409L261.884 283.761L257.14 284.937L252.376 285.954L233.3 290.02C207.785 295.043 182.131 299.389 156.277 302.339C104.61 308.697 52.5043 310.731 0.538086 309.874Z" fill="white"/>
</g>
<defs>
<clipPath id="clip0_203_37">
<rect width="2393" height="311" fill="white"/>
</clipPath>
</defs>
</svg>
